<svg width="1783" height="2823" viewBox="0 0 1783 2823" fill="none" xmlns="http://www.w3.org/2000/svg">
<g clip-path="url(#clip0)">
<rect x="2" y="2" width="1779" height="2819" fill="white"/>
<rect x="236" y="2321.19" width="252" height="36" fill="#C4C4C4"/>
<rect x="208.833" y="2405.1" width="1565.34" height="268.369" fill="#C4C4C4"/>
<rect x="808.772" y="2495.78" width="366.375" height="87.9299" fill="white"/>
<rect x="403.013" y="2776.06" width="176.776" height="18.3187" fill="#C4C4C4"/>
<rect x="403.012" y="2801.7" width="176.776" height="18.3187" fill="#C4C4C4"/>
<rect x="403.013" y="2721.1" width="176.776" height="36.6375" fill="#C4C4C4"/>
<rect x="863.729" y="2776.06" width="176.776" height="18.3187" fill="#C4C4C4"/>
<rect x="863.729" y="2801.7" width="176.776" height="18.3187" fill="#C4C4C4"/>
<rect x="863.729" y="2721.1" width="176.776" height="36.6375" fill="#C4C4C4"/>
<rect x="1332.69" y="2721.1" width="176.776" height="36.6375" fill="#C4C4C4"/>
<rect x="1262.16" y="2783.38" width="176.776" height="36.6375" fill="#C4C4C4"/>
<rect x="1438.94" y="2783.38" width="141.054" height="36.6375" fill="#006B2D"/>
<rect x="236.312" y="122.589" width="159.373" height="61.3677" fill="#C4C4C4"/>
<g clip-path="url(#clip1)">
<path d="M259.882 5.77783H214.485C212.662 5.77783 211.184 7.25607 211.184 9.07938V42.9207C211.184 44.7439 212.662 46.2222 214.485 46.2222H259.882C261.705 46.2222 263.184 44.7439 263.184 42.9206V9.07938C263.184 7.25607 261.705 5.77783 259.882 5.77783ZM259.882 9.07938V33.091L253.375 27.1753C252.397 26.2864 250.893 26.3219 249.959 27.2571L243.374 33.8412L230.39 18.332C229.408 17.16 227.611 17.1484 226.614 18.3065L214.485 32.4026V9.07938H259.882ZM245.85 17.746C245.85 15.2385 247.882 13.2063 250.39 13.2063C252.897 13.2063 254.93 15.2385 254.93 17.746C254.93 20.2536 252.898 22.2857 250.39 22.2857C247.882 22.2858 245.85 20.2536 245.85 17.746Z" fill="#7B7B7B"/>
</g>
<rect x="444.229" y="154.646" width="87.9299" height="18.3187" fill="#C4C4C4"/>
<rect x="444.229" y="121.673" width="182.271" height="18.3187" fill="#C4C4C4"/>
<rect x="796.865" y="121.673" width="182.271" height="18.3187" fill="#C4C4C4"/>
<rect x="990.127" y="116.177" width="128.231" height="29.31" fill="#006B2D"/>
<rect x="561.469" y="154.646" width="87.9299" height="18.3187" fill="#C4C4C4"/>
<rect x="678.709" y="154.646" width="87.9299" height="18.3187" fill="#C4C4C4"/>
<rect x="795.949" y="154.646" width="87.9299" height="18.3187" fill="#C4C4C4"/>
<rect x="913.188" y="154.646" width="87.9299" height="18.3187" fill="#C4C4C4"/>
<rect x="1030.43" y="154.646" width="87.9299" height="18.3187" fill="#C4C4C4"/>
<rect x="1365.66" y="154.646" width="164.869" height="18.3187" fill="#C4C4C4"/>
<rect x="1442.6" y="119.841" width="21.9825" height="21.9825" fill="#C4C4C4"/>
<rect x="1475.57" y="119.841" width="21.9825" height="21.9825" fill="#C4C4C4"/>
<rect x="1508.55" y="119.841" width="21.9825" height="21.9825" fill="#C4C4C4"/>
<rect x="208" y="105.186" width="1" height="2822" fill="#C4C4C4"/>
<rect x="236" y="191.186" width="1538" height="2" fill="#C4C4C4"/>
<rect x="236" y="222.186" width="320" height="19" fill="#C4C4C4"/>
<rect x="236" y="259.186" width="616" height="36" fill="#C4C4C4"/>
<rect x="347.14" y="322.263" width="853.653" height="538.571" fill="#C4C4C4"/>
<g clip-path="url(#clip2)">
<path d="M889.054 488.149H657.963C648.681 488.149 641.156 495.674 641.156 504.956V677.225C641.156 686.506 648.681 694.031 657.963 694.031H889.054C898.336 694.031 905.861 686.506 905.861 677.225V504.956C905.861 495.674 898.336 488.149 889.054 488.149ZM889.054 504.956V627.187L855.932 597.073C850.954 592.548 843.298 592.729 838.542 597.489L805.02 631.006L738.925 552.057C733.928 546.09 724.777 546.031 719.706 551.926L657.963 623.683V504.956H889.054ZM817.626 549.074C817.626 536.309 827.97 525.964 840.735 525.964C853.5 525.964 863.844 536.309 863.844 549.074C863.844 561.838 853.5 572.182 840.735 572.182C827.97 572.183 817.626 561.838 817.626 549.074Z" fill="#7B7B7B"/>
</g>
<rect x="347" y="882.186" width="505" height="19" fill="#C4C4C4"/>
<rect x="240.891" y="998.224" width="251.883" height="36.6375" fill="#C4C4C4"/>
<rect x="529.411" y="1007.38" width="197.842" height="18.3187" fill="#C4C4C4"/>
<rect x="240.891" y="1078.83" width="548.646" height="18.3187" fill="#C4C4C4"/>
<rect x="240.891" y="1181.41" width="548.646" height="18.3187" fill="#C4C4C4"/>
<rect x="240.891" y="1284" width="548.646" height="18.3187" fill="#C4C4C4"/>
<rect x="240.891" y="1104.47" width="946.162" height="18.3187" fill="#C4C4C4"/>
<rect x="240.891" y="1207.06" width="946.162" height="18.3187" fill="#C4C4C4"/>
<rect x="240.891" y="1309.64" width="946.162" height="18.3187" fill="#C4C4C4"/>
<rect x="240.891" y="1130.12" width="946.162" height="18.3187" fill="#C4C4C4"/>
<rect x="240.891" y="1232.7" width="946.162" height="18.3187" fill="#C4C4C4"/>
<rect x="240.891" y="1335.29" width="946.162" height="18.3187" fill="#C4C4C4"/>
<rect x="240.891" y="1155.76" width="946.162" height="18.3187" fill="#C4C4C4"/>
<rect x="240.891" y="1258.35" width="946.162" height="18.3187" fill="#C4C4C4"/>
<rect x="240.891" y="1360.93" width="946.162" height="18.3187" fill="#C4C4C4"/>
<rect x="240.891" y="1056.84" width="1293.3" height="7.32749" fill="#C4C4C4"/>
<rect x="240.891" y="1056.84" width="197.842" height="7.32749" fill="#006B2D"/>
<rect x="236.312" y="359.816" width="88.8458" height="79.6865" fill="#C4C4C4"/>
<g clip-path="url(#clip3)">
<path d="M296.252 386.566H265.99C264.775 386.566 263.79 387.552 263.79 388.767V411.326C263.79 412.541 264.775 413.527 265.99 413.527H296.252C297.468 413.527 298.453 412.541 298.453 411.326V388.767C298.453 387.552 297.468 386.566 296.252 386.566ZM296.252 388.767V404.773L291.915 400.83C291.263 400.237 290.261 400.261 289.638 400.885L285.248 405.274L276.593 394.935C275.938 394.154 274.74 394.146 274.076 394.918L265.99 404.315V388.767H296.252ZM286.899 394.544C286.899 392.873 288.253 391.518 289.925 391.518C291.597 391.518 292.951 392.873 292.951 394.544C292.951 396.216 291.597 397.57 289.925 397.57C288.253 397.571 286.899 396.216 286.899 394.544Z" fill="#7B7B7B"/>
</g>
<rect x="236" y="1477.19" width="252" height="36" fill="#C4C4C4"/>
<rect x="236" y="1535.19" width="198" height="18" fill="#C4C4C4"/>
<rect x="236" y="1561.19" width="1293" height="7" fill="#C4C4C4"/>
<rect x="236" y="1561.19" width="198" height="7" fill="#006B2D"/>
<rect x="464" y="1535.19" width="197" height="18" fill="#C4C4C4"/>
<rect x="690" y="1535.19" width="199" height="18" fill="#C4C4C4"/>
<rect x="236.312" y="455.073" width="88.8458" height="79.6865" fill="#C4C4C4"/>
<g clip-path="url(#clip4)">
<path d="M296.252 481.823H265.99C264.775 481.823 263.79 482.809 263.79 484.024V506.583C263.79 507.799 264.775 508.784 265.99 508.784H296.252C297.468 508.784 298.453 507.799 298.453 506.583V484.024C298.453 482.809 297.468 481.823 296.252 481.823ZM296.252 484.024V500.031L291.915 496.087C291.263 495.495 290.261 495.518 289.638 496.142L285.248 500.531L276.593 490.192C275.938 489.411 274.74 489.403 274.076 490.175L265.99 499.572V484.024H296.252ZM286.899 489.801C286.899 488.13 288.253 486.775 289.925 486.775C291.597 486.775 292.951 488.13 292.951 489.801C292.951 491.473 291.597 492.828 289.925 492.828C288.253 492.828 286.899 491.473 286.899 489.801Z" fill="#7B7B7B"/>
</g>
<rect x="236.312" y="550.331" width="88.8458" height="79.6865" fill="#C4C4C4"/>
<g clip-path="url(#clip5)">
<path d="M296.252 577.081H265.99C264.775 577.081 263.79 578.066 263.79 579.282V601.841C263.79 603.056 264.775 604.042 265.99 604.042H296.252C297.468 604.042 298.453 603.056 298.453 601.841V579.282C298.453 578.066 297.468 577.081 296.252 577.081ZM296.252 579.282V595.288L291.915 591.345C291.263 590.752 290.261 590.776 289.638 591.399L285.248 595.788L276.593 585.45C275.938 584.669 274.74 584.661 274.076 585.433L265.99 594.829V579.282H296.252ZM286.899 585.059C286.899 583.388 288.253 582.033 289.925 582.033C291.597 582.033 292.951 583.388 292.951 585.059C292.951 586.731 291.597 588.085 289.925 588.085C288.253 588.085 286.899 586.731 286.899 585.059Z" fill="#7B7B7B"/>
</g>
<rect x="236.312" y="645.588" width="88.8458" height="79.6865" fill="#C4C4C4"/>
<g clip-path="url(#clip6)">
<path d="M296.252 672.338H265.99C264.775 672.338 263.79 673.323 263.79 674.539V697.098C263.79 698.313 264.775 699.299 265.99 699.299H296.252C297.468 699.299 298.453 698.313 298.453 697.098V674.539C298.453 673.323 297.468 672.338 296.252 672.338ZM296.252 674.539V690.545L291.915 686.602C291.263 686.009 290.261 686.033 289.638 686.656L285.248 691.045L276.593 680.707C275.938 679.925 274.74 679.918 274.076 680.69L265.99 690.086V674.539H296.252ZM286.899 680.316C286.899 678.644 288.253 677.29 289.925 677.29C291.597 677.29 292.951 678.644 292.951 680.316C292.951 681.988 291.597 683.342 289.925 683.342C288.253 683.342 286.899 681.988 286.899 680.316Z" fill="#7B7B7B"/>
</g>
<rect x="236.312" y="740.846" width="88.8458" height="79.6865" fill="#C4C4C4"/>
<g clip-path="url(#clip7)">
<path d="M296.252 767.596H265.99C264.775 767.596 263.79 768.581 263.79 769.797V792.356C263.79 793.571 264.775 794.556 265.99 794.556H296.252C297.468 794.556 298.453 793.571 298.453 792.356V769.797C298.453 768.581 297.468 767.596 296.252 767.596ZM296.252 769.797V785.803L291.915 781.86C291.263 781.267 290.261 781.291 289.638 781.914L285.248 786.303L276.593 775.964C275.938 775.183 274.74 775.175 274.076 775.947L265.99 785.344V769.797H296.252ZM286.899 775.574C286.899 773.902 288.253 772.548 289.925 772.548C291.597 772.548 292.951 773.902 292.951 775.574C292.951 777.245 291.597 778.6 289.925 778.6C288.253 778.6 286.899 777.245 286.899 775.574Z" fill="#7B7B7B"/>
</g>
<rect x="269.286" y="837.02" width="21.9825" height="21.9825" fill="#C4C4C4"/>
<rect x="269.286" y="322.263" width="21.9825" height="21.9825" fill="#C4C4C4"/>
<rect x="47.7485" y="206.855" width="104.178" height="21.9825" fill="#C4C4C4"/>
<rect x="47.7485" y="137.244" width="104.178" height="21.9825" fill="#C4C4C4"/>
<rect x="47.7485" y="360.732" width="104.178" height="21.9825" fill="#C4C4C4"/>
<rect x="47.7485" y="514.609" width="104.178" height="21.9825" fill="#C4C4C4"/>
<rect x="47.7485" y="283.793" width="104.178" height="21.9825" fill="#C4C4C4"/>
<rect x="47.7485" y="437.671" width="104.178" height="21.9825" fill="#C4C4C4"/>
<rect x="47.7485" y="591.548" width="104.178" height="21.9825" fill="#C4C4C4"/>
<rect x="47.7485" y="860.833" width="104.178" height="21.9825" fill="#C4C4C4"/>
<rect x="47.7485" y="245.324" width="104.178" height="21.9825" fill="#C4C4C4"/>
<rect x="47.7485" y="399.201" width="104.178" height="21.9825" fill="#C4C4C4"/>
<rect x="47.7485" y="553.079" width="104.178" height="21.9825" fill="#C4C4C4"/>
<rect x="47.7485" y="822.364" width="104.178" height="21.9825" fill="#C4C4C4"/>
<rect x="47.7485" y="322.263" width="104.178" height="21.9825" fill="#C4C4C4"/>
<rect x="47.7485" y="476.14" width="104.178" height="21.9825" fill="#C4C4C4"/>
<rect x="47.7485" y="630.018" width="104.178" height="21.9825" fill="#C4C4C4"/>
<rect y="351.186" width="199" height="2" fill="#C4C4C4"/>
<rect y="505.186" width="199" height="2" fill="#C4C4C4"/>
<rect y="274.186" width="199" height="2" fill="#C4C4C4"/>
<rect y="428.186" width="199" height="2" fill="#C4C4C4"/>
<rect y="582.186" width="199" height="2" fill="#C4C4C4"/>
<rect y="851.186" width="199" height="2" fill="#C4C4C4"/>
<rect y="236.186" width="199" height="2" fill="#C4C4C4"/>
<rect y="194.186" width="199" height="2" fill="#C4C4C4"/>
<rect y="389.186" width="199" height="2" fill="#C4C4C4"/>
<rect y="543.186" width="199" height="2" fill="#C4C4C4"/>
<rect y="813.186" width="199" height="2" fill="#C4C4C4"/>
<rect y="313.186" width="199" height="2" fill="#C4C4C4"/>
<rect y="466.186" width="199" height="2" fill="#C4C4C4"/>
<rect y="620.186" width="199" height="2" fill="#C4C4C4"/>
<rect x="158" y="890.186" width="41" height="1" fill="#C4C4C4"/>
<rect x="1225" y="319.186" width="303" height="541" stroke="#C4C4C4" stroke-width="2"/>
<rect x="1260.33" y="354.321" width="189.599" height="18.3187" fill="#C4C4C4"/>
<rect x="1260.33" y="416.604" width="189.599" height="18.3187" fill="#C4C4C4"/>
<rect x="1260.33" y="478.888" width="189.599" height="18.3187" fill="#C4C4C4"/>
<rect x="1260.33" y="379.967" width="189.599" height="18.3187" fill="#C4C4C4"/>
<rect x="1260.33" y="442.25" width="189.599" height="18.3187" fill="#C4C4C4"/>
<rect x="1260.33" y="504.534" width="189.599" height="18.3187" fill="#C4C4C4"/>
<rect x="1260.33" y="574.145" width="45.7968" height="45.7968" fill="#C4C4C4"/>
<rect x="1260.33" y="731.686" width="45.7968" height="45.7968" fill="#C4C4C4"/>
<rect x="1320.78" y="574.145" width="45.7968" height="45.7968" fill="#C4C4C4"/>
<rect x="1320.78" y="731.686" width="45.7968" height="45.7968" fill="#C4C4C4"/>
<rect x="1381.23" y="574.145" width="45.7968" height="45.7968" fill="#C4C4C4"/>
<rect x="1381.23" y="731.686" width="45.7968" height="45.7968" fill="#C4C4C4"/>
<rect x="1441.68" y="574.145" width="45.7968" height="45.7968" fill="#C4C4C4"/>
<rect x="1441.68" y="731.686" width="45.7968" height="45.7968" fill="#C4C4C4"/>
<rect x="1260.33" y="634.597" width="45.7968" height="45.7968" fill="#C4C4C4"/>
<rect x="1320.78" y="634.597" width="45.7968" height="45.7968" fill="#C4C4C4"/>
<rect x="1381.23" y="634.597" width="45.7968" height="45.7968" fill="#C4C4C4"/>
<rect x="1260.33" y="541.172" width="106.249" height="18.3187" fill="#C4C4C4"/>
<rect x="1260.33" y="698.713" width="106.249" height="18.3187" fill="#C4C4C4"/>
<rect x="236.312" y="1857.37" width="114.492" height="36.6375" fill="#C4C4C4"/>
<rect x="236.312" y="1798.75" width="239.059" height="18.3187" fill="#C4C4C4"/>
<rect x="236.312" y="1824.4" width="239.059" height="18.3187" fill="#C4C4C4"/>
<rect x="236.312" y="1780.43" width="239.059" height="7.32749" fill="#C4C4C4"/>
<rect x="236.312" y="1780.43" width="68.6952" height="7.32749" fill="#006B2D"/>
<rect x="236.312" y="1586.25" width="239.059" height="186.851" fill="#C4C4C4"/>
<rect x="236.312" y="2187.11" width="114.492" height="36.6375" fill="#C4C4C4"/>
<rect x="236.312" y="2128.49" width="239.059" height="18.3187" fill="#C4C4C4"/>
<rect x="236.312" y="2154.14" width="239.059" height="18.3187" fill="#C4C4C4"/>
<rect x="236.312" y="2110.17" width="239.059" height="7.32749" fill="#C4C4C4"/>
<rect x="236.312" y="2110.17" width="68.6952" height="7.32749" fill="#006B2D"/>
<rect x="236.312" y="1915.99" width="239.059" height="186.851" fill="#C4C4C4"/>
<rect x="500.101" y="1857.37" width="114.492" height="36.6375" fill="#C4C4C4"/>
<rect x="500.101" y="1798.75" width="239.059" height="18.3187" fill="#C4C4C4"/>
<rect x="500.101" y="1824.4" width="239.059" height="18.3187" fill="#C4C4C4"/>
<rect x="500.101" y="1780.43" width="239.059" height="7.32749" fill="#C4C4C4"/>
<rect x="500.101" y="1780.43" width="68.6952" height="7.32749" fill="#006B2D"/>
<rect x="500.101" y="1586.25" width="239.059" height="186.851" fill="#C4C4C4"/>
<rect x="500.101" y="2187.11" width="114.492" height="36.6375" fill="#C4C4C4"/>
<rect x="500.101" y="2128.49" width="239.059" height="18.3187" fill="#C4C4C4"/>
<rect x="500.101" y="2154.14" width="239.059" height="18.3187" fill="#C4C4C4"/>
<rect x="500.101" y="2110.17" width="239.059" height="7.32749" fill="#C4C4C4"/>
<rect x="500.101" y="2110.17" width="68.6952" height="7.32749" fill="#006B2D"/>
<rect x="500.101" y="1915.99" width="239.059" height="186.851" fill="#C4C4C4"/>
<rect x="763.891" y="1857.37" width="114.492" height="36.6375" fill="#C4C4C4"/>
<rect x="763.891" y="1798.75" width="239.059" height="18.3187" fill="#C4C4C4"/>
<rect x="763.891" y="1824.4" width="239.059" height="18.3187" fill="#C4C4C4"/>
<rect x="763.891" y="1780.43" width="239.059" height="7.32749" fill="#C4C4C4"/>
<rect x="763.891" y="1780.43" width="68.6952" height="7.32749" fill="#006B2D"/>
<rect x="763.891" y="1586.25" width="239.059" height="186.851" fill="#C4C4C4"/>
<rect x="763.891" y="2187.11" width="114.492" height="36.6375" fill="#C4C4C4"/>
<rect x="763.891" y="2128.49" width="239.059" height="18.3187" fill="#C4C4C4"/>
<rect x="763.891" y="2154.14" width="239.059" height="18.3187" fill="#C4C4C4"/>
<rect x="763.891" y="2110.17" width="239.059" height="7.32749" fill="#C4C4C4"/>
<rect x="763.891" y="2110.17" width="68.6952" height="7.32749" fill="#006B2D"/>
<rect x="763.891" y="1915.99" width="239.059" height="186.851" fill="#C4C4C4"/>
<rect x="1027.68" y="1857.37" width="114.492" height="36.6375" fill="#C4C4C4"/>
<rect x="1027.68" y="1798.75" width="239.059" height="18.3187" fill="#C4C4C4"/>
<rect x="1027.68" y="1824.4" width="239.059" height="18.3187" fill="#C4C4C4"/>
<rect x="1027.68" y="1780.43" width="239.059" height="7.32749" fill="#C4C4C4"/>
<rect x="1027.68" y="1780.43" width="68.6952" height="7.32749" fill="#006B2D"/>
<rect x="1027.68" y="1586.25" width="239.059" height="186.851" fill="#C4C4C4"/>
<rect x="1027.68" y="2187.11" width="114.492" height="36.6375" fill="#C4C4C4"/>
<rect x="1027.68" y="2128.49" width="239.059" height="18.3187" fill="#C4C4C4"/>
<rect x="1027.68" y="2154.14" width="239.059" height="18.3187" fill="#C4C4C4"/>
<rect x="1027.68" y="2110.17" width="239.059" height="7.32749" fill="#C4C4C4"/>
<rect x="1027.68" y="2110.17" width="68.6952" height="7.32749" fill="#006B2D"/>
<rect x="1027.68" y="1915.99" width="239.059" height="186.851" fill="#C4C4C4"/>
<rect x="1291.47" y="1857.37" width="114.492" height="36.6375" fill="#C4C4C4"/>
<rect x="1291.47" y="1798.75" width="239.059" height="18.3187" fill="#C4C4C4"/>
<rect x="1291.47" y="1824.4" width="239.059" height="18.3187" fill="#C4C4C4"/>
<rect x="1291.47" y="1780.43" width="239.059" height="7.32749" fill="#C4C4C4"/>
<rect x="1291.47" y="1780.43" width="68.6952" height="7.32749" fill="#006B2D"/>
<rect x="1291.47" y="1586.25" width="239.059" height="186.851" fill="#C4C4C4"/>
<rect x="1291.47" y="2187.11" width="114.492" height="36.6375" fill="#C4C4C4"/>
<rect x="1291.47" y="2128.49" width="239.059" height="18.3187" fill="#C4C4C4"/>
<rect x="1291.47" y="2154.14" width="239.059" height="18.3187" fill="#C4C4C4"/>
<rect x="1291.47" y="2110.17" width="239.059" height="7.32749" fill="#C4C4C4"/>
<rect x="1291.47" y="2110.17" width="68.6952" height="7.32749" fill="#006B2D"/>
<rect x="1291.47" y="1915.99" width="239.059" height="186.851" fill="#C4C4C4"/>
</g>
<rect x="2" y="2" width="1779" height="2819" stroke="#C4C4C4" stroke-width="4"/>
<defs>
<clipPath id="clip0">
</clipPath>
<clipPath id="clip1">
<rect width="47.6287" height="47.6287" fill="white" transform="translate(211.184)"/>
</clipPath>
<clipPath id="clip2">
<rect width="264.706" height="264.706" fill="white" transform="translate(641.156 458.737)"/>
</clipPath>
<clipPath id="clip3">
<rect width="34.6638" height="34.6638" fill="white" transform="translate(263.79 382.715)"/>
</clipPath>
<clipPath id="clip4">
<rect width="34.6638" height="34.6638" fill="white" transform="translate(263.79 477.972)"/>
</clipPath>
<clipPath id="clip5">
<rect width="34.6638" height="34.6638" fill="white" transform="translate(263.79 573.229)"/>
</clipPath>
<clipPath id="clip6">
<rect width="34.6638" height="34.6638" fill="white" transform="translate(263.79 668.486)"/>
</clipPath>
<clipPath id="clip7">
<rect width="34.6638" height="34.6638" fill="white" transform="translate(263.79 763.744)"/>
</clipPath>
</defs>
</svg>
