<svg width="1783" height="2823" viewBox="0 0 1783 2823" fill="none" xmlns="http://www.w3.org/2000/svg">
<rect x="2" y="2" width="1779" height="2819" fill="white"/>
<rect x="156" y="16" width="144" height="54" fill="#C4C4C4"/>
<path d="M246.92 26.4973H209.523C208.021 26.4973 206.803 27.7299 206.803 29.2503V57.4684C206.803 58.9886 208.021 60.2213 209.523 60.2213H246.92C248.422 60.2213 249.64 58.9886 249.64 57.4683V29.2503C249.64 27.7299 248.422 26.4973 246.92 26.4973ZM246.92 29.2503V49.272L241.56 44.3393C240.754 43.5981 239.515 43.6277 238.746 44.4075L233.321 49.8976L222.625 36.9655C221.816 35.9881 220.335 35.9785 219.515 36.9441L209.523 48.698V29.2503H246.92ZM235.361 36.4768C235.361 34.3859 237.035 32.6915 239.101 32.6915C241.166 32.6915 242.84 34.3859 242.84 36.4768C242.84 38.5677 241.166 40.2621 239.101 40.2621C237.035 40.2622 235.361 38.5677 235.361 36.4768Z" fill="#7B7B7B"/>
<rect x="434" y="135" width="608" height="312" fill="#C4C4C4"/>
<g clip-path="url(#clip0)">
<path d="M780.135 254.526H695.179C691.767 254.526 689 257.219 689 260.541V322.195C689 325.516 691.767 328.209 695.179 328.209H780.135C783.547 328.209 786.314 325.516 786.314 322.194V260.541C786.314 257.219 783.548 254.526 780.135 254.526ZM780.135 260.541V304.286L767.958 293.509C766.128 291.889 763.314 291.954 761.565 293.658L749.242 305.653L724.943 277.398C723.106 275.262 719.742 275.241 717.878 277.351L695.179 303.032V260.541H780.135ZM753.876 276.33C753.876 271.762 757.679 268.059 762.371 268.059C767.064 268.059 770.867 271.762 770.867 276.33C770.867 280.899 767.065 284.601 762.371 284.601C757.679 284.601 753.876 280.899 753.876 276.33Z" fill="#7B7B7B"/>
</g>
<rect x="397.38" y="1603.92" width="1385.62" height="472.033" fill="#C4C4C4"/>
<path d="M899.364 1778.57H758.262C752.595 1778.57 748 1783.04 748 1788.56V1890.96C748 1896.48 752.595 1900.95 758.262 1900.95H899.364C905.031 1900.95 909.626 1896.48 909.626 1890.96V1788.56C909.626 1783.04 905.031 1778.57 899.364 1778.57ZM899.364 1788.56V1861.21L879.14 1843.32C876.1 1840.63 871.426 1840.73 868.521 1843.56L848.054 1863.49L807.696 1816.56C804.646 1813.01 799.058 1812.98 795.962 1816.48L758.262 1859.13V1788.56H899.364ZM855.751 1814.78C855.751 1807.2 862.066 1801.05 869.86 1801.05C877.655 1801.05 883.971 1807.2 883.971 1814.78C883.971 1822.37 877.655 1828.52 869.86 1828.52C862.067 1828.52 855.751 1822.37 855.751 1814.78Z" fill="#7B7B7B"/>
<rect x="434" y="2163" width="152" height="66" fill="#C4C4C4"/>
<rect x="625" y="2163" width="151" height="66" fill="#C4C4C4"/>
<rect x="815" y="2163" width="153" height="66" fill="#C4C4C4"/>
<rect x="1199" y="2163" width="152" height="66" fill="#C4C4C4"/>
<rect x="1390" y="2163" width="152" height="66" fill="#C4C4C4"/>
<rect x="1007" y="2163" width="153" height="66" fill="#C4C4C4"/>
<rect x="1222" y="1650.88" width="319.867" height="378.945" fill="white"/>
<rect x="1247.39" y="1675.6" width="232.707" height="32.9517" fill="#C4C4C4"/>
<rect x="1247.39" y="1721.73" width="269.095" height="16.4759" fill="#C4C4C4"/>
<rect x="1247.39" y="1744.8" width="269.095" height="16.4759" fill="#C4C4C4"/>
<rect x="1247.39" y="1784.34" width="51.6188" height="16.4759" fill="#C4C4C4"/>
<rect x="1247.39" y="1860.13" width="51.6188" height="16.4759" fill="#C4C4C4"/>
<rect x="1247.39" y="1942.5" width="269.095" height="29.6565" fill="#006B2D"/>
<rect x="1247.39" y="1810.7" width="269.095" height="29.6565" fill="#C4C4C4"/>
<rect x="1247.39" y="1886.49" width="269.095" height="29.6565" fill="#C4C4C4"/>
<rect x="820.767" y="543.704" width="331" height="172.173" fill="#C4C4C4"/>
<g clip-path="url(#clip1)">
<path d="M1006.04 613.543H966.496C964.907 613.543 963.62 614.761 963.62 616.263V644.141C963.62 645.643 964.907 646.861 966.496 646.861H1006.04C1007.63 646.861 1008.91 645.643 1008.91 644.141V616.263C1008.91 614.761 1007.63 613.543 1006.04 613.543ZM1006.04 616.263V636.043L1000.37 631.17C999.519 630.438 998.209 630.467 997.395 631.237L991.659 636.661L980.349 623.885C979.494 622.919 977.928 622.91 977.061 623.864L966.496 635.476V616.263H1006.04ZM993.816 623.402C993.816 621.337 995.586 619.663 997.77 619.663C999.955 619.663 1001.72 621.337 1001.72 623.402C1001.72 625.468 999.955 627.142 997.77 627.142C995.586 627.142 993.816 625.468 993.816 623.402Z" fill="#7B7B7B"/>
</g>
<rect x="433.767" y="543.704" width="331" height="172.173" fill="#C4C4C4"/>
<g clip-path="url(#clip2)">
<path d="M619.038 613.543H579.496C577.907 613.543 576.62 614.761 576.62 616.263V644.141C576.62 645.643 577.907 646.861 579.496 646.861H619.038C620.627 646.861 621.914 645.643 621.914 644.141V616.263C621.914 614.761 620.627 613.543 619.038 613.543ZM619.038 616.263V636.043L613.371 631.17C612.519 630.438 611.209 630.467 610.395 631.237L604.659 636.661L593.349 623.885C592.494 622.919 590.928 622.91 590.061 623.864L579.496 635.476V616.263H619.038ZM606.816 623.402C606.816 621.337 608.586 619.663 610.77 619.663C612.955 619.663 614.725 621.337 614.725 623.402C614.725 625.468 612.955 627.142 610.77 627.142C608.586 627.142 606.816 625.468 606.816 623.402Z" fill="#7B7B7B"/>
</g>
<rect x="434" y="803" width="233" height="33" fill="#C4C4C4"/>
<rect x="434" y="849" width="469" height="16" fill="#C4C4C4"/>
<rect x="434" y="872" width="469" height="17" fill="#C4C4C4"/>
<rect x="434" y="909" width="183" height="16" fill="#C4C4C4"/>
<rect x="434" y="932" width="1106" height="6" fill="#C4C4C4"/>
<rect x="434" y="932" width="183" height="6" fill="#006B2D"/>
<rect x="432.921" y="954.776" width="235.246" height="172.173" fill="#C4C4C4"/>
<g clip-path="url(#clip3)">
<path d="M569.751 1024.62H531.336C529.793 1024.62 528.542 1025.83 528.542 1027.34V1055.21C528.542 1056.72 529.793 1057.93 531.336 1057.93H569.751C571.294 1057.93 572.545 1056.72 572.545 1055.21V1027.34C572.545 1025.83 571.294 1024.62 569.751 1024.62ZM569.751 1027.34V1047.12L564.245 1042.24C563.418 1041.51 562.145 1041.54 561.355 1042.31L555.782 1047.73L544.795 1034.96C543.964 1033.99 542.443 1033.98 541.6 1034.94L531.336 1046.55V1027.34H569.751ZM557.878 1034.48C557.878 1032.41 559.597 1030.74 561.719 1030.74C563.841 1030.74 565.561 1032.41 565.561 1034.48C565.561 1036.54 563.841 1038.21 561.719 1038.21C559.597 1038.21 557.878 1036.54 557.878 1034.48Z" fill="#7B7B7B"/>
</g>
<rect x="432.921" y="1136.83" width="235.246" height="16.4759" fill="#C4C4C4"/>
<rect x="432.921" y="1159.9" width="235.246" height="16.4759" fill="#C4C4C4"/>
<rect x="432.921" y="1189.56" width="88.852" height="26.3614" fill="#C4C4C4"/>
<rect x="724" y="954.776" width="235.246" height="172.173" fill="#C4C4C4"/>
<g clip-path="url(#clip4)">
<path d="M860.83 1024.62H822.415C820.872 1024.62 819.621 1025.83 819.621 1027.34V1055.21C819.621 1056.72 820.872 1057.93 822.415 1057.93H860.83C862.373 1057.93 863.624 1056.72 863.624 1055.21V1027.34C863.624 1025.83 862.373 1024.62 860.83 1024.62ZM860.83 1027.34V1047.12L855.324 1042.24C854.497 1041.51 853.224 1041.54 852.433 1042.31L846.861 1047.73L835.874 1034.96C835.043 1033.99 833.522 1033.98 832.679 1034.94L822.415 1046.55V1027.34H860.83ZM848.956 1034.48C848.956 1032.41 850.676 1030.74 852.798 1030.74C854.92 1030.74 856.639 1032.41 856.639 1034.48C856.639 1036.54 854.92 1038.21 852.798 1038.21C850.676 1038.21 848.956 1036.54 848.956 1034.48Z" fill="#7B7B7B"/>
</g>
<rect x="724" y="1136.83" width="235.246" height="16.4759" fill="#C4C4C4"/>
<rect x="724" y="1159.9" width="235.246" height="16.4759" fill="#C4C4C4"/>
<rect x="724" y="1189.56" width="88.852" height="26.3614" fill="#C4C4C4"/>
<rect x="1015" y="954.776" width="235.246" height="172.173" fill="#C4C4C4"/>
<g clip-path="url(#clip5)">
<path d="M1151.83 1024.62H1113.42C1111.87 1024.62 1110.62 1025.83 1110.62 1027.34V1055.21C1110.62 1056.72 1111.87 1057.93 1113.42 1057.93H1151.83C1153.37 1057.93 1154.62 1056.72 1154.62 1055.21V1027.34C1154.62 1025.83 1153.37 1024.62 1151.83 1024.62ZM1151.83 1027.34V1047.12L1146.32 1042.24C1145.5 1041.51 1144.22 1041.54 1143.43 1042.31L1137.86 1047.73L1126.87 1034.96C1126.04 1033.99 1124.52 1033.98 1123.68 1034.94L1113.42 1046.55V1027.34H1151.83ZM1139.96 1034.48C1139.96 1032.41 1141.68 1030.74 1143.8 1030.74C1145.92 1030.74 1147.64 1032.41 1147.64 1034.48C1147.64 1036.54 1145.92 1038.21 1143.8 1038.21C1141.68 1038.21 1139.96 1036.54 1139.96 1034.48Z" fill="#7B7B7B"/>
</g>
<rect x="1015" y="1136.83" width="235.246" height="16.4759" fill="#C4C4C4"/>
<rect x="1015" y="1159.9" width="235.246" height="16.4759" fill="#C4C4C4"/>
<rect x="1015" y="1189.56" width="88.852" height="26.3614" fill="#C4C4C4"/>
<rect x="1306" y="954.776" width="235.246" height="172.173" fill="#C4C4C4"/>
<g clip-path="url(#clip6)">
<path d="M1442.83 1024.62H1404.42C1402.87 1024.62 1401.62 1025.83 1401.62 1027.34V1055.21C1401.62 1056.72 1402.87 1057.93 1404.42 1057.93H1442.83C1444.37 1057.93 1445.62 1056.72 1445.62 1055.21V1027.34C1445.62 1025.83 1444.37 1024.62 1442.83 1024.62ZM1442.83 1027.34V1047.12L1437.32 1042.24C1436.5 1041.51 1435.22 1041.54 1434.43 1042.31L1428.86 1047.73L1417.87 1034.96C1417.04 1033.99 1415.52 1033.98 1414.68 1034.94L1404.42 1046.55V1027.34H1442.83ZM1430.96 1034.48C1430.96 1032.41 1432.68 1030.74 1434.8 1030.74C1436.92 1030.74 1438.64 1032.41 1438.64 1034.48C1438.64 1036.54 1436.92 1038.21 1434.8 1038.21C1432.68 1038.21 1430.96 1036.54 1430.96 1034.48Z" fill="#7B7B7B"/>
</g>
<rect x="1306" y="1136.83" width="235.246" height="16.4759" fill="#C4C4C4"/>
<rect x="1306" y="1159.9" width="235.246" height="16.4759" fill="#C4C4C4"/>
<rect x="1306" y="1189.56" width="88.852" height="26.3614" fill="#C4C4C4"/>
<rect x="432.921" y="1255.46" width="235.246" height="172.173" fill="#C4C4C4"/>
<g clip-path="url(#clip7)">
<path d="M569.751 1325.3H531.336C529.793 1325.3 528.542 1326.52 528.542 1328.02V1355.9C528.542 1357.4 529.793 1358.62 531.336 1358.62H569.751C571.294 1358.62 572.545 1357.4 572.545 1355.9V1328.02C572.545 1326.52 571.294 1325.3 569.751 1325.3ZM569.751 1328.02V1347.8L564.245 1342.93C563.418 1342.2 562.145 1342.22 561.355 1342.99L555.782 1348.42L544.795 1335.64C543.964 1334.68 542.443 1334.67 541.6 1335.62L531.336 1347.23V1328.02H569.751ZM557.878 1335.16C557.878 1333.09 559.597 1331.42 561.719 1331.42C563.841 1331.42 565.561 1333.09 565.561 1335.16C565.561 1337.23 563.841 1338.9 561.719 1338.9C559.597 1338.9 557.878 1337.23 557.878 1335.16Z" fill="#7B7B7B"/>
</g>
<rect x="432.921" y="1437.52" width="235.246" height="16.4759" fill="#C4C4C4"/>
<rect x="432.921" y="1460.59" width="235.246" height="16.4759" fill="#C4C4C4"/>
<rect x="432.921" y="1490.24" width="88.852" height="26.3614" fill="#C4C4C4"/>
<rect x="724" y="1255.46" width="235.246" height="172.173" fill="#C4C4C4"/>
<g clip-path="url(#clip8)">
<path d="M860.83 1325.3H822.415C820.872 1325.3 819.621 1326.52 819.621 1328.02V1355.9C819.621 1357.4 820.872 1358.62 822.415 1358.62H860.83C862.373 1358.62 863.624 1357.4 863.624 1355.9V1328.02C863.624 1326.52 862.373 1325.3 860.83 1325.3ZM860.83 1328.02V1347.8L855.324 1342.93C854.497 1342.2 853.224 1342.22 852.433 1342.99L846.861 1348.42L835.874 1335.64C835.043 1334.68 833.522 1334.67 832.679 1335.62L822.415 1347.23V1328.02H860.83ZM848.956 1335.16C848.956 1333.09 850.676 1331.42 852.798 1331.42C854.92 1331.42 856.639 1333.09 856.639 1335.16C856.639 1337.23 854.92 1338.9 852.798 1338.9C850.676 1338.9 848.956 1337.23 848.956 1335.16Z" fill="#7B7B7B"/>
</g>
<rect x="724" y="1437.52" width="235.246" height="16.4759" fill="#C4C4C4"/>
<rect x="724" y="1460.59" width="235.246" height="16.4759" fill="#C4C4C4"/>
<rect x="724" y="1490.24" width="88.852" height="26.3614" fill="#C4C4C4"/>
<rect x="1015" y="1255.46" width="235.246" height="172.173" fill="#C4C4C4"/>
<g clip-path="url(#clip9)">
<path d="M1151.83 1325.3H1113.42C1111.87 1325.3 1110.62 1326.52 1110.62 1328.02V1355.9C1110.62 1357.4 1111.87 1358.62 1113.42 1358.62H1151.83C1153.37 1358.62 1154.62 1357.4 1154.62 1355.9V1328.02C1154.62 1326.52 1153.37 1325.3 1151.83 1325.3ZM1151.83 1328.02V1347.8L1146.32 1342.93C1145.5 1342.2 1144.22 1342.22 1143.43 1342.99L1137.86 1348.42L1126.87 1335.64C1126.04 1334.68 1124.52 1334.67 1123.68 1335.62L1113.42 1347.23V1328.02H1151.83ZM1139.96 1335.16C1139.96 1333.09 1141.68 1331.42 1143.8 1331.42C1145.92 1331.42 1147.64 1333.09 1147.64 1335.16C1147.64 1337.23 1145.92 1338.9 1143.8 1338.9C1141.68 1338.9 1139.96 1337.23 1139.96 1335.16Z" fill="#7B7B7B"/>
</g>
<rect x="1015" y="1437.52" width="235.246" height="16.4759" fill="#C4C4C4"/>
<rect x="1015" y="1460.59" width="235.246" height="16.4759" fill="#C4C4C4"/>
<rect x="1015" y="1490.24" width="88.852" height="26.3614" fill="#C4C4C4"/>
<rect x="1306" y="1255.46" width="235.246" height="172.173" fill="#C4C4C4"/>
<g clip-path="url(#clip10)">
<path d="M1442.83 1325.3H1404.42C1402.87 1325.3 1401.62 1326.52 1401.62 1328.02V1355.9C1401.62 1357.4 1402.87 1358.62 1404.42 1358.62H1442.83C1444.37 1358.62 1445.62 1357.4 1445.62 1355.9V1328.02C1445.62 1326.52 1444.37 1325.3 1442.83 1325.3ZM1442.83 1328.02V1347.8L1437.32 1342.93C1436.5 1342.2 1435.22 1342.22 1434.43 1342.99L1428.86 1348.42L1417.87 1335.64C1417.04 1334.68 1415.52 1334.67 1414.68 1335.62L1404.42 1347.23V1328.02H1442.83ZM1430.96 1335.16C1430.96 1333.09 1432.68 1331.42 1434.8 1331.42C1436.92 1331.42 1438.64 1333.09 1438.64 1335.16C1438.64 1337.23 1436.92 1338.9 1434.8 1338.9C1432.68 1338.9 1430.96 1337.23 1430.96 1335.16Z" fill="#7B7B7B"/>
</g>
<rect x="1306" y="1437.52" width="235.246" height="16.4759" fill="#C4C4C4"/>
<rect x="1306" y="1460.59" width="235.246" height="16.4759" fill="#C4C4C4"/>
<rect x="1306" y="1490.24" width="88.852" height="26.3614" fill="#C4C4C4"/>
<rect x="644" y="909" width="183" height="16" fill="#C4C4C4"/>
<rect x="854" y="909" width="183" height="16" fill="#C4C4C4"/>
<rect x="1207.77" y="543.704" width="331" height="172.173" fill="#C4C4C4"/>
<g clip-path="url(#clip11)">
<path d="M1393.46 612.667H1353.92C1352.33 612.667 1351.04 613.86 1351.04 615.333V642.667C1351.04 644.139 1352.33 645.333 1353.92 645.333H1393.46C1395.05 645.333 1396.33 644.139 1396.33 642.666V615.333C1396.33 613.86 1395.05 612.667 1393.46 612.667ZM1393.46 615.333V634.727L1387.79 629.949C1386.94 629.231 1385.63 629.26 1384.82 630.015L1379.08 635.333L1367.77 622.806C1366.92 621.86 1365.35 621.85 1364.48 622.786L1353.92 634.171V615.333H1393.46ZM1381.24 622.333C1381.24 620.308 1383.01 618.666 1385.19 618.666C1387.38 618.666 1389.14 620.308 1389.14 622.333C1389.14 624.358 1387.38 626 1385.19 626C1383.01 626 1381.24 624.358 1381.24 622.333Z" fill="#7B7B7B"/>
</g>
<rect x="1098" y="135.102" width="441.721" height="312.218" fill="#C4C4C4"/>
<g clip-path="url(#clip12)">
<path d="M1362.13 254.556H1276.57C1273.14 254.556 1270.35 257.256 1270.35 260.587V322.413C1270.35 325.744 1273.14 328.444 1276.57 328.444H1362.13C1365.56 328.444 1368.35 325.744 1368.35 322.413V260.587C1368.35 257.256 1365.56 254.556 1362.13 254.556ZM1362.13 260.587V304.455L1349.87 293.647C1348.02 292.023 1345.19 292.088 1343.43 293.797L1331.02 305.825L1306.55 277.491C1304.7 275.35 1301.31 275.329 1299.43 277.444L1276.57 303.197V260.587H1362.13ZM1335.68 276.421C1335.68 271.84 1339.51 268.127 1344.24 268.127C1348.96 268.127 1352.79 271.84 1352.79 276.421C1352.79 281.002 1348.96 284.714 1344.24 284.714C1339.51 284.714 1335.68 281.002 1335.68 276.421Z" fill="#7B7B7B"/>
</g>
<rect x="433" y="44" width="79" height="17" fill="#C4C4C4"/>
<rect x="434" y="18" width="199" height="20" fill="#C4C4C4"/>
<rect x="1182" y="18" width="199" height="20" fill="#C4C4C4"/>
<rect x="1400" y="12" width="140" height="32" fill="#006B2D"/>
<rect x="538" y="44" width="80" height="17" fill="#C4C4C4"/>
<rect x="644" y="44" width="79" height="17" fill="#C4C4C4"/>
<rect x="749" y="44" width="80" height="17" fill="#C4C4C4"/>
<rect x="855" y="44" width="79" height="17" fill="#C4C4C4"/>
<rect x="960" y="44" width="79" height="17" fill="#C4C4C4"/>
<rect x="395" width="2" height="2789" fill="#C4C4C4"/>
<rect width="1350" height="1" transform="matrix(1 0 0 -1 433 80)" fill="#C4C4C4"/>
<rect x="1241.05" y="476.153" width="81.2361" height="16.4759" fill="#C4C4C4"/>
<rect x="1356.13" y="474.505" width="20.309" height="19.771" fill="#C4C4C4"/>
<rect x="935.569" y="474.505" width="20.309" height="19.771" fill="#C4C4C4"/>
<rect x="962.648" y="474.505" width="20.309" height="19.771" fill="#C4C4C4"/>
<rect x="1386.6" y="474.505" width="20.309" height="19.771" fill="#C4C4C4"/>
<rect x="1417.06" y="474.505" width="20.309" height="19.771" fill="#C4C4C4"/>
<rect x="433.767" y="467.091" width="71.0816" height="34.5993" fill="#C4C4C4"/>
<rect x="529.389" y="481.095" width="393.487" height="6.59034" fill="#C4C4C4"/>
<rect x="529.389" y="481.095" width="74.4664" height="6.59034" fill="#006B2D"/>
<rect x="143" y="91.4409" width="19.771" height="19.771" fill="#C4C4C4"/>
<rect x="180.437" y="93.0886" width="127.688" height="16.4759" fill="#C4C4C4"/>
<rect x="143" y="229.838" width="19.771" height="19.771" fill="#C4C4C4"/>
<rect x="180.437" y="231.486" width="127.688" height="16.4759" fill="#C4C4C4"/>
<rect x="143" y="368.235" width="19.771" height="19.771" fill="#C4C4C4"/>
<rect x="180.437" y="369.883" width="127.688" height="16.4759" fill="#C4C4C4"/>
<rect x="143" y="160.64" width="19.771" height="19.771" fill="#C4C4C4"/>
<rect x="180.437" y="162.287" width="127.688" height="16.4759" fill="#C4C4C4"/>
<rect x="143" y="299.037" width="19.771" height="19.771" fill="#C4C4C4"/>
<rect x="180.437" y="300.685" width="127.688" height="16.4759" fill="#C4C4C4"/>
<rect x="143" y="437.434" width="19.771" height="19.771" fill="#C4C4C4"/>
<rect x="180.437" y="439.082" width="127.688" height="16.4759" fill="#C4C4C4"/>
<rect x="143" y="126.04" width="19.771" height="19.771" fill="#C4C4C4"/>
<rect x="180.437" y="127.688" width="127.688" height="16.4759" fill="#C4C4C4"/>
<rect x="143" y="264.438" width="19.771" height="19.771" fill="#C4C4C4"/>
<rect x="180.437" y="266.085" width="127.688" height="16.4759" fill="#C4C4C4"/>
<rect x="143" y="402.835" width="19.771" height="19.771" fill="#C4C4C4"/>
<rect x="180.437" y="404.483" width="127.688" height="16.4759" fill="#C4C4C4"/>
<rect x="143" y="195.239" width="19.771" height="19.771" fill="#C4C4C4"/>
<rect x="180.437" y="196.886" width="127.688" height="16.4759" fill="#C4C4C4"/>
<rect x="143" y="333.636" width="19.771" height="19.771" fill="#C4C4C4"/>
<rect x="180.437" y="335.283" width="127.688" height="16.4759" fill="#C4C4C4"/>
<rect x="143" y="472.033" width="19.771" height="19.771" fill="#C4C4C4"/>
<rect x="180.437" y="473.681" width="127.688" height="16.4759" fill="#C4C4C4"/>
<rect x="143" y="626.906" width="19.771" height="19.771" fill="#C4C4C4"/>
<rect x="180.437" y="628.554" width="127.688" height="16.4759" fill="#C4C4C4"/>
<rect x="143" y="653.268" width="19.771" height="19.771" fill="#C4C4C4"/>
<rect x="180.437" y="654.915" width="127.688" height="16.4759" fill="#C4C4C4"/>
<rect x="147.485" y="687.867" width="160.64" height="16.4759" fill="#C4C4C4"/>
<rect x="147.485" y="710.933" width="160.64" height="16.4759" fill="#C4C4C4"/>
<rect x="397.38" y="2316.51" width="1385.62" height="241.371" fill="#C4C4C4"/>
<rect x="921.313" y="2398.06" width="338.484" height="79.0841" fill="white"/>
<rect x="603.328" y="2653.44" width="163.318" height="16.4759" fill="#C4C4C4"/>
<rect x="603.328" y="2676.5" width="163.318" height="16.4759" fill="#C4C4C4"/>
<rect x="603.328" y="2604.01" width="163.318" height="32.9517" fill="#C4C4C4"/>
<rect x="976.506" y="2653.44" width="163.318" height="16.4759" fill="#C4C4C4"/>
<rect x="976.506" y="2676.5" width="163.318" height="16.4759" fill="#C4C4C4"/>
<rect x="976.507" y="2604.01" width="163.318" height="32.9517" fill="#C4C4C4"/>
<rect x="1348.84" y="2604.01" width="163.318" height="32.9517" fill="#C4C4C4"/>
<rect x="1283.68" y="2660.03" width="163.318" height="32.9517" fill="#C4C4C4"/>
<rect x="1447" y="2660.03" width="130.316" height="32.9517" fill="#006B2D"/>
<rect x="395" y="2781" width="1386" height="42" fill="#C4C4C4"/>
<rect x="2" y="2" width="1779" height="2819" stroke="#C4C4C4" stroke-width="4"/>
<defs>
<clipPath id="clip0">
<rect width="97.314" height="94.7362" fill="white" transform="translate(689 244)"/>
</clipPath>
<clipPath id="clip1">
<rect width="45.2947" height="42.8372" fill="white" transform="translate(963.62 608.783)"/>
</clipPath>
<clipPath id="clip2">
<rect width="45.2947" height="42.8372" fill="white" transform="translate(576.62 608.783)"/>
</clipPath>
<clipPath id="clip3">
<rect width="44.0029" height="42.8372" fill="white" transform="translate(528.542 1019.86)"/>
</clipPath>
<clipPath id="clip4">
<rect width="44.0029" height="42.8372" fill="white" transform="translate(819.621 1019.86)"/>
</clipPath>
<clipPath id="clip5">
<rect width="44.0029" height="42.8372" fill="white" transform="translate(1110.62 1019.86)"/>
</clipPath>
<clipPath id="clip6">
<rect width="44.0029" height="42.8372" fill="white" transform="translate(1401.62 1019.86)"/>
</clipPath>
<clipPath id="clip7">
<rect width="44.0029" height="42.8372" fill="white" transform="translate(528.542 1320.54)"/>
</clipPath>
<clipPath id="clip8">
<rect width="44.0029" height="42.8372" fill="white" transform="translate(819.621 1320.54)"/>
</clipPath>
<clipPath id="clip9">
<rect width="44.0029" height="42.8372" fill="white" transform="translate(1110.62 1320.54)"/>
</clipPath>
<clipPath id="clip10">
<rect width="44.0029" height="42.8372" fill="white" transform="translate(1401.62 1320.54)"/>
</clipPath>
<clipPath id="clip11">
<rect width="45.2918" height="42" fill="white" transform="translate(1351.04 608)"/>
</clipPath>
<clipPath id="clip12">
<rect width="98" height="95" fill="white" transform="translate(1270.35 244)"/>
</clipPath>
</defs>
</svg>
