<svg width="708" height="736" viewBox="0 0 708 736" fill="none" xmlns="http://www.w3.org/2000/svg">
<path d="M334.37 1.32008C338.38 1.41008 342.36 0.660081 346.36 0.680081C348.03 17.3601 349.4 34.0701 350.66 50.7901C346.6 51.3001 342.54 51.8601 338.44 51.9201C337.79 44.5801 337.28 37.2301 336.49 29.9101C330.06 30.8201 323.55 31.0201 317.1 31.7501C317.36 39.0601 318.37 46.3201 318.71 53.6401C314.62 53.8801 310.59 54.6001 306.5 54.7301C305.13 37.8701 303.36 21.0301 302.34 4.15008C306.39 4.01008 310.42 3.60008 314.46 3.29008C315.2 9.57008 315.18 15.9401 316.24 22.1801C322.75 22.0601 329.17 20.8501 335.69 20.7301C335.47 14.2501 334.37 7.82008 334.37 1.32008Z" fill="#E43949"/>
<path d="M365.8 12.46C366.61 8.34 366.04 4 367.46 0C371.4 0.61 375.36 1.12 379.35 1.3C378.82 7.55 377.98 13.76 377.43 20.01C383.14 19.99 389.03 19.95 394.44 22.05C398.67 23.81 402.03 27.76 402.41 32.42C402.87 37.78 402.44 43.76 398.89 48.1C394.89 52.42 388.56 52.93 383.04 52.6C376.2 51.96 369.38 51.2 362.55 50.55C362.38 50.27 362.04 49.73 361.87 49.46C363.41 37.15 364.43 24.79 365.8 12.46ZM377.02 28.31C376 33.26 376.12 38.34 375.25 43.31C379.23 43.59 383.9 45.56 387.42 42.79C390.01 40.03 390.34 35.65 389.18 32.21C387.07 27.65 381.09 28.83 377.02 28.31Z" fill="#E43949"/>
<path d="M406.76 55.1599C408.36 38.4099 410.44 21.6899 411.8 4.90991C415.98 4.90991 420.11 5.58991 424.26 6.07991C422.44 22.1799 420.86 38.3199 419.21 54.4399C419.03 55.2099 418.8 55.9699 418.52 56.6999C414.73 55.3999 410.67 55.7799 406.76 55.1599Z" fill="#E43949"/>
<path d="M272.43 9.97988C276.59 8.83988 280.74 7.62988 284.94 6.62988C282.73 15.2299 280.87 23.9299 278.49 32.4899C285.21 40.0899 292.06 47.5799 298.64 55.2999C294.63 56.2699 290.6 57.2199 286.75 58.7399C281.14 52.5499 275.69 46.2099 270.22 39.8999C269.73 39.9199 268.76 39.9699 268.28 39.9899C268.25 47.6499 272.97 54.9099 273.25 62.2799C269.57 63.5799 265.75 64.5199 261.93 65.3099C259.59 57.4799 257.37 49.6099 255.25 41.7199C254.86 41.6499 254.07 41.5199 253.68 41.4499C252.34 50.5699 250.53 59.6299 249.31 68.7599C245.41 70.4899 241.2 71.3399 237.1 72.4099C238.68 62.5799 240.38 52.7499 242.36 42.9899C236.13 36.4699 229.58 30.2499 223.01 24.0799C227.35 22.8699 231.6 21.3099 236.03 20.4499C240.9 25.7699 245.72 31.1699 251.02 36.0599L252.6 35.8099C252.77 29.3499 249.36 23.2299 248.25 16.8599C252.18 15.7499 256.07 14.4599 260.1 13.7599C261.65 19.6499 263.38 25.4899 264.95 31.3799C265.47 29.5999 266.8 29.7799 268.15 30.2799C269.3 23.4699 270.85 16.7099 272.43 9.97988Z" fill="#E43949"/>
<path d="M440.54 9.68994C445.46 11.0799 450.37 12.5699 455.21 14.2199C457.27 20.7699 457.51 27.9099 459.29 34.5899C464.63 30.1199 468.78 24.4399 473.78 19.6099C477.98 20.8899 482.18 22.1499 486.42 23.2699C486.51 23.5199 486.68 24.0199 486.77 24.2699C479.91 30.4499 473.11 36.6999 466.42 43.0599C468.41 52.7399 470.83 62.3399 472.79 72.0399C467.74 70.6099 462.7 69.1099 457.71 67.5099C457.5 60.0499 456.61 52.6299 456.47 45.1599C453.74 46.5099 452.12 49.2099 449.97 51.2499C446.42 54.7499 443.27 58.6599 439.48 61.9099C434.93 61.3399 430.63 59.1899 426.1 58.2799C433.21 51.1299 441.19 44.7999 447.95 37.3499C445.8 28.0599 443.02 18.9099 440.54 9.68994Z" fill="#E43949"/>
<path d="M179.92 44.6799C190.05 39.9399 199.95 34.6699 210.27 30.3799C211.49 33.1099 212.84 35.7799 214.15 38.4699C207.93 41.8299 201.36 44.4799 195.11 47.7599C196.24 50.8899 197.86 53.8199 199.06 56.9199C200.29 56.9499 201.44 56.6699 202.51 56.0699C206.69 53.8399 211.07 51.9999 215.27 49.7999C216.71 52.5899 218.04 55.4499 219.45 58.2599C214.21 60.4499 209.28 63.3199 204 65.3999C204.57 69.3299 207.01 72.6099 208.45 76.2299C215.33 74.1499 221.43 70.0699 228.14 67.4899C229.4 70.2499 230.63 73.0299 231.9 75.7899C221.89 80.6999 211.78 85.3899 201.78 90.3099C194.31 75.1999 186.94 60.0199 179.92 44.6799Z" fill="#E43949"/>
<path d="M524.45 40.3401C528.03 41.7701 531.16 44.0801 534.58 45.8201C540.92 49.4801 548.31 52.6101 551.99 59.3501C554.41 64.0101 552.73 69.4801 550.4 73.8101C547.89 78.4101 544.52 83.2801 539.13 84.6201C531.26 86.0601 524.23 81.3201 517.76 77.5701C514.75 81.3901 513.36 86.4801 510.1 89.9701C506.46 88.3401 503.24 85.9301 499.61 84.2801C507.87 69.6201 516.07 54.9301 524.45 40.3401ZM530.44 55.0901C527.96 59.9001 525.09 64.4801 522.46 69.2101C525.55 70.8501 528.43 73.1901 531.99 73.7001C535.32 73.9501 537.49 70.8201 538.97 68.2801C540.59 65.7201 541.17 61.9101 538.71 59.6701C536.28 57.6301 533.47 56.0301 530.44 55.0901Z" fill="#E43949"/>
<path d="M129.88 76.4C140 69.98 149.44 62.51 159.69 56.29C167.42 67.53 175.2 78.72 182.97 89.93C184.58 88.82 186.19 87.72 187.81 86.65C191.95 93.49 196.31 100.2 200.46 107.03C197.28 108.99 194.33 111.32 191.09 113.19C188.47 109.18 185.57 105.37 183.03 101.31C175.39 106.73 167.58 111.91 159.93 117.3C162.42 121.42 164.81 125.62 167.68 129.49C164.44 131.7 161.34 134.11 157.96 136.09C153.48 129.59 148.77 123.23 144.53 116.57C145.87 115.57 147.21 114.57 148.54 113.55C146.18 99.54 137.18 88.14 129.88 76.4ZM145.04 78.3C150.18 87.35 156.41 96.13 158.24 106.61C163.52 103.94 168.38 100.33 172.9 96.53C166.54 88.47 161.33 79.6 155.11 71.44C151.78 73.77 148.49 76.16 145.04 78.3Z" fill="#E43949"/>
<path d="M567.03 64.6699C570.78 67.6299 574.61 70.4699 578.36 73.4199C575.62 81.6899 572.66 89.8999 569.76 98.1199C569.28 99.5799 569.06 101.1 568.86 102.62C572.03 101.67 574.4 99.2499 577.06 97.4099C582.7 93.3999 588.11 89.0599 593.97 85.3599C597.11 88.0199 600.5 90.3499 603.71 92.9299C593.46 99.7399 583.23 106.56 573 113.38C568.12 116.93 562.18 119.85 555.97 118.72C548.46 116.81 543.18 110.71 538.19 105.19C540.59 103.34 542.94 101.42 545.2 99.4099C548.73 103.95 553.76 110.35 560.31 107.58C558.07 104.36 556.37 100.48 557.58 96.5099C560.66 85.8799 564.08 75.3399 567.03 64.6699Z" fill="#E43949"/>
<path d="M329.64 89.15C366.61 85.92 404.23 90.47 439.47 102.08C482.35 116.08 521.56 140.94 552.86 173.39C581.5 203.17 603.5 239.35 616.49 278.59C629.64 318.58 633.76 361.59 627.86 403.29C622.33 444.11 607.38 483.58 584.66 517.93C563.85 549.44 536.55 576.64 504.98 597.36C470.28 620.2 430.38 635.1 389.19 640.49C343.15 646.48 295.58 641 252.29 624.11C215.65 609.93 182.13 587.79 154.58 559.79C124.5 529.22 101.54 491.64 88.3698 450.81C78.7898 421.36 74.2698 390.24 75.0198 359.29C75.9298 313.59 88.4998 268.18 111.24 228.53C140.09 177.84 185.3 136.63 238.51 112.72C267.23 99.69 298.21 91.69 329.64 89.15ZM336.13 96.34C274.02 99.85 213.55 126 168.3 168.67C142.99 192.24 122.19 220.7 107.69 252.12C84.3898 301.35 77.3398 357.81 86.4298 411.42C91.0898 437.83 99.5798 463.58 111.83 487.45C129.54 522.38 155.08 553.27 185.85 577.49C218.81 603.48 257.94 621.65 299.12 629.85C361.52 642.54 428.41 632.47 483.95 601.14C517.68 582.44 547.16 556.26 570.14 525.31C592.92 494.53 609.03 458.84 616.97 421.37C625.94 378.83 624.51 334.11 612.67 292.26C602.88 257.86 586.27 225.37 563.79 197.54C541.11 169 512.49 145.24 480.42 127.95C436.54 104.19 385.91 93.19 336.13 96.34Z" fill="#E43949"/>
<path d="M87.4598 114.34C90.9398 110.69 94.6398 107.26 98.2498 103.75C113.83 111.97 129.35 120.3 144.97 128.45C142.03 131.58 138.96 134.58 135.93 137.61C132.63 135.94 129.58 133.75 126.15 132.36C122.05 135.18 119.02 139.43 115.06 142.51C115.99 146.45 118.94 149.45 120.12 153.29C116.92 155.92 114.55 159.66 110.78 161.52C102.96 146.13 95.1198 130.73 87.3998 115.29L87.4598 114.34ZM101.74 118.09C102.65 121.4 104.57 124.28 106.08 127.32C107.7 130.04 108.67 133.14 110.77 135.55C113.27 132.76 116.3 130.43 118.37 127.27C112.89 124.1 107.39 120.94 101.74 118.09Z" fill="#E43949"/>
<path d="M578.31 138.26C590.49 126.6 602.61 114.87 614.98 103.4C617.57 106.11 620.21 108.76 622.73 111.54C622.73 111.84 622.74 112.45 622.75 112.75C618.23 117.48 613.24 121.73 608.66 126.4L607.96 128.13C616.73 126.78 625.51 125.4 634.21 123.65C637.57 127.03 640.94 130.41 644.12 133.97C634.38 135.29 624.5 135.75 614.82 137.43C612.52 148.04 610.2 158.65 607.88 169.27C604.65 166 601.5 162.67 598.38 159.3C600.72 149.66 603.29 140.07 605.67 130.44C603.85 130.43 602.77 131.87 601.59 132.95C596.76 137.77 591.66 142.32 586.9 147.21C584.01 144.25 581.02 141.39 578.31 138.26Z" fill="#E43949"/>
<path d="M56.6398 150.06C59.0098 146.72 61.1598 143.2 63.8398 140.09C77.6098 149.76 91.1898 159.69 104.97 169.35C102.73 172.75 100.22 175.94 97.9498 179.31C91.7598 175.64 86.4498 170.47 80.0298 167.29C77.6098 168.88 76.3298 171.73 74.5398 173.95C72.6398 177.03 69.7598 179.6 68.7998 183.17C74.8098 186.98 80.3198 191.51 86.2598 195.42C83.9298 198.79 81.5898 202.17 79.1198 205.45C65.4098 195.75 51.7798 185.93 38.0898 176.19C40.0998 172.65 42.7498 169.54 44.9998 166.17C50.3798 169.65 55.4898 173.54 60.8098 177.12C64.5998 171.83 68.2698 166.45 72.1498 161.22C67.0898 157.34 61.8598 153.71 56.6398 150.06Z" fill="#E43949"/>
<path d="M611.81 173.43C628.7 168.6 645.54 163.6 662.36 158.54C665.26 162.83 668.51 166.91 671.06 171.42C660.32 185.4 649.37 199.31 638.22 212.98C635.95 209.4 633.52 205.93 631.23 202.36C633.38 199.57 635.82 197.01 637.84 194.12C638.31 192.86 636.96 191.86 636.49 190.82C634.3 187.63 632.11 184.46 629.98 181.24C626.08 181.51 622.48 183.06 618.86 184.37C616.44 180.77 613.59 177.42 611.81 173.43ZM655.77 171.9C650.06 174.38 643.91 175.81 637.9 177.44C639.11 180.7 641.37 183.45 643.48 186.18C643.88 186.2 644.68 186.25 645.08 186.27C649.19 181.85 652.65 176.86 656.61 172.32C656.4 172.21 655.98 172.01 655.77 171.9Z" fill="#E43949"/>
<path d="M285.46 191.58C291.42 189.7 297.76 188.79 303.99 189.66C310.6 188.66 317.47 189.11 323.74 191.55C330.34 193.46 337.01 197.15 344.07 195.24C348.36 194.04 352.06 197 355.8 198.54C360.56 200.66 365.88 200.85 370.73 202.68C378.33 205.75 386.7 205.58 394.56 207.62C400.05 208.58 405.36 210.77 411.01 210.65C418.51 210.45 425.79 213.85 430.99 219.15C434.44 222.75 439.96 222.45 443.74 225.52C448.45 228.75 450.66 234.21 453.28 239.05C458.47 248.23 462.88 257.84 468.34 266.87C475.84 278.52 484.27 289.71 489.72 302.54C491.42 307.6 494.15 312.43 494.41 317.88C500.4 318.65 506.15 320.53 512.06 321.72C519.32 323.4 525.62 328.03 533.11 328.84C546.07 330.98 558.93 333.59 571.86 335.91C582.76 337.87 593.3 341.33 603.79 344.82C603.75 345.39 603.67 346.54 603.64 347.11C595.68 346.61 588.59 342.48 580.85 340.9C564.29 337.25 547.51 334.61 530.86 331.36C523.86 330.18 517.86 326.08 511.02 324.4C505.05 322.88 499.16 320.76 492.95 320.56C491 315.58 489.2 310.53 487.56 305.44C484.3 296.75 479.18 288.92 474.16 281.17C466.05 268.93 459.11 255.96 452.71 242.76C450.25 237.71 447.5 232.76 443.86 228.47C440.55 224.3 434.71 224.46 429.91 224.13C421.29 225.43 412.41 223.52 403.92 225.8C392.06 228.49 380.68 232.85 368.99 236.18C358.14 239.11 348.95 245.87 339.99 252.37C333.7 256.9 326.19 259.23 319.61 263.21C321.98 264.12 324.74 264.97 325.87 267.51C327.34 270.16 325.59 273.24 323.49 274.96C319.2 278.53 314.03 280.78 309.13 283.37C306.54 284.97 303.46 283.63 301.17 282.15C299.27 280.9 297.9 278.65 295.44 278.48C295.74 280.6 296.04 282.99 297.81 284.45C300.6 287.02 303.36 289.8 306.85 291.4C316.96 293.79 327.18 290.34 336.5 286.63C349.88 281.48 362.29 272.57 377.05 271.96C388.18 270.93 398.84 267.2 409.93 265.9C412.79 265.48 415.67 265.17 418.5 264.51C421.48 263.76 423.89 261.22 427.13 261.46C426.6 264.03 422.83 264.55 423.07 267.23C425.95 269.29 429.24 270.87 431.55 273.65C430.12 273.64 428.7 273.6 427.28 273.5C427.34 273.93 427.46 274.8 427.52 275.23C417.34 274.04 407.26 271.82 397 271.44C388.89 271.9 381.07 274.34 373.04 275.39C366.28 276.18 360.17 279.41 354.12 282.31C343.98 287.49 333.25 291.64 322.09 294.01C317.07 294.74 311.92 294.52 306.91 293.84C301.8 293.03 298.39 288.7 295.36 284.92C292.75 281.92 292.57 276.74 295.87 274.17C300.94 269.67 307.36 267.2 313.3 264.11C310.03 261.42 306.04 259.71 303.12 256.56C296.46 258.97 291.07 263.82 284.8 267C279.3 270.1 273.16 271.73 267.05 273.1C270.63 281.63 277.95 287.69 285.15 293.12C288.02 295.09 290.75 297.44 294.15 298.46C294.31 297.9 294.62 296.79 294.77 296.23C304.61 304.81 313.92 314.05 321.81 324.46C328.17 331.85 334 339.68 340.43 346.99C345.13 350.97 349.86 354.92 354.56 358.91C366.38 366.25 380.16 370.13 394 370.92C400.61 369.21 406.31 365.22 412.62 362.73C413.26 363.25 413.9 363.79 414.55 364.33C410.67 366.17 406.55 367.69 403.12 370.31C421.47 370.23 439.59 367 457.6 363.74C468.56 360.75 479.76 356.48 487.9 348.24C490.59 345.67 492.21 342.29 494.21 339.21C494.79 342.05 492.96 344.6 491.46 346.83C484.59 355.96 473.68 360.62 463.21 364.28C444.17 370.4 424.13 373.25 404.14 372.93C402.99 373.06 399.79 373.07 401.31 374.91C407.56 379.54 415.64 380.08 422.9 382.2C442.15 387.21 458.97 398.28 476.92 406.44C498.02 416.83 519.7 425.97 540.83 436.29C543.87 438.04 547.5 439.29 549.63 442.23C548.17 443.97 545.97 442.69 544.44 441.85C536.18 437.25 527.82 432.77 519.03 429.27C499.8 420.72 480.7 411.86 461.95 402.29C454.34 398.66 447.09 394.29 439.35 390.92C428.88 385.99 417.44 383.85 406.38 380.73C403.05 379.85 400.4 377.6 397.56 375.78C394.46 373.73 390.59 374.03 387.06 373.59C376.24 372.5 366.43 367.47 356.2 364.21C353.21 363.46 351.91 360.5 349.88 358.52C346.11 354.93 341.67 352.09 338.04 348.34C332.06 342.26 327.3 335.13 321.7 328.73C317.55 323.88 313.24 319.18 309.14 314.29C306.14 310.28 302.75 306.44 298.32 303.96C289.75 299.11 281.14 294.15 273.51 287.87C269.45 283.41 265.94 278.36 263.27 272.95C257.98 272.66 253.05 270.54 248.67 267.68C245.08 264.11 243.2 258.89 243.4 253.86C238.23 252.23 232.47 252.27 227.79 249.27C224.85 247.47 222.89 244.52 220.81 241.84C216.13 240.82 212.36 237.56 209.66 233.73C207.81 231.07 209.27 227.75 209.3 224.81C213.2 221.66 218.02 220.1 222.38 217.76C231.48 212.81 241.31 209.46 250.61 204.96C261.93 199.78 273.54 195.2 285.46 191.58ZM290.81 197.16C275.82 205 261.24 213.6 246.18 221.28C247.14 223.45 248.89 225.74 247.95 228.24C246.96 232.02 242.55 232.96 239.77 235.14C236.88 237.21 233.67 239.02 230.15 239.72C227.58 240.21 225.21 238.82 222.81 238.16C223.08 240.04 223.39 242.06 224.93 243.37C230.1 249.47 238.6 250.29 246.05 250.76C248.9 248.38 252.12 246.53 255.27 244.59C270.33 235.27 285.38 225.95 300.48 216.7C310.64 210.74 321.29 205.65 331.3 199.45C332.18 199 332.82 198.3 333.21 197.37C326.17 195.37 319.47 191.57 311.99 191.58C304.54 191.29 297.49 194.22 290.81 197.16ZM259.46 203.74C251.01 207.47 242.34 210.71 234.1 214.88C235.93 216.87 236.08 219.54 234.92 221.89C228.63 224.33 223.34 230.13 216.16 229.5C215.04 228.87 213.92 228.26 212.78 227.66C210.71 231.81 215.61 237.89 220.11 236.94C222.17 230.95 228.69 228.87 233.55 225.72C237.88 222.55 242.82 220.37 247.6 217.97C259.39 212.34 270.7 205.8 282.04 199.33C284.47 197.93 287.12 196.99 289.76 196.07C291.51 195.35 294.24 195.06 293.97 192.53C281.92 194.32 270.7 199.3 259.46 203.74ZM336.65 200.87C325.34 206.09 313.93 211.17 303.36 217.82C292.9 224.45 281.91 230.29 271.77 237.38C275.33 238.29 279.07 239.26 282.14 241.32C283.3 243.18 281.21 244.45 280.05 245.55C275.95 249.38 270.28 250.77 266.04 254.4C264.14 255.98 263.01 259.15 260.02 258.7C255.05 258.97 248.71 258.83 245.8 254.08C245.35 260.46 249.22 267.34 255.76 268.71C262.75 271.2 270.48 270.31 277.19 267.41C289.69 262.24 300.5 253.86 312.59 247.89C320.28 244.1 327.89 240.02 336.01 237.24C338.59 236.19 341.26 237.31 343.85 237.74C349.14 238.16 354.93 239.97 359.87 237.2C365.76 234.34 372.05 232.45 378.41 231.01C388.47 228.66 397.83 223.76 408.15 222.51C415.07 221.4 422.12 222.81 429.02 221.45C424.25 216.23 417.1 212.9 409.97 213.34C400.46 212.91 391.52 209.04 382.05 208.27C375.42 207.96 369.57 204.4 363.06 203.49C358.62 202.83 354.47 201.1 350.58 198.93C346.04 196.26 340.86 198.76 336.65 200.87ZM215.09 224.13C215.2 224.5 215.42 225.25 215.53 225.62C221.29 227.26 226.64 223.58 231.07 220.35C232.49 219.57 231.48 217.94 231.34 216.79C225.41 218.25 221.12 222.93 215.09 224.13ZM226.13 233.42C224.89 234.05 225.48 235.7 225.23 236.81C232.43 238.43 239.02 233.97 244.25 229.57C246.4 228.32 246.04 223.31 242.92 224.13C237.34 227.24 231.58 230.08 226.13 233.42ZM334.25 241.08C336.33 243.91 337.86 247.09 338.73 250.5C342.7 247.97 346.25 244.83 350.36 242.49C350.45 242.1 350.65 241.34 350.74 240.96C348.54 240.88 346.28 240.9 344.2 240.09C340.92 239.63 337.03 238.72 334.25 241.08ZM266.19 241.72C260.41 245.94 253.74 248.65 247.63 252.33C250.2 257.95 257.22 255.87 262.08 256.1C266.22 249.98 273.82 248.03 279.23 243.38C279.38 243.07 279.69 242.44 279.85 242.12C278.24 241.51 276.65 240.85 275.14 240.03C272.04 239.51 268.76 239.75 266.19 241.72ZM316.42 248.65C312.67 250.27 309.37 252.76 305.56 254.26C305.43 254.75 305.18 255.73 305.05 256.23C308.57 258.67 312.05 261.25 316.05 262.89C322.84 259.23 329.94 256.19 336.53 252.17C336.05 248.27 333.82 244.94 332.22 241.44C327.18 244.32 321.59 246.03 316.42 248.65ZM298.08 275.15C299.7 278.57 303.1 281.74 307.06 281.53C312.85 278.6 319.61 276.53 323.67 271.16C324.73 267.64 320.76 265.72 318 265.05C310.54 266.64 304.46 271.3 298.08 275.15ZM408.16 268.57C408.14 269.12 408.09 270.2 408.07 270.75C410.29 270.81 412.54 271.39 414.77 270.94L414.92 271.1C418.51 271.47 422 272.35 425.57 272.87C426.36 269.82 423.29 269.19 421.04 268.82C416.85 267.83 412.38 267.73 408.16 268.57Z" fill="#E43949"/>
<path d="M671.21 221.02C676.64 213.09 681.55 204.76 687.3 197.06C689.46 201.74 691.79 206.35 693.71 211.14C689.5 216.65 684.53 221.66 680.89 227.57C687.74 227.68 694.59 227.97 701.45 227.99C703.98 232.08 705.39 236.72 707.79 240.89C698.31 239.94 688.8 239.21 679.36 237.94C673.49 246 667.67 254.1 661.75 262.13C659.61 257.47 657.3 252.89 655.3 248.17C660.27 242.36 666.19 237.42 671.29 231.71C663.22 231.46 655.17 231.06 647.11 230.65C645.13 226.41 643.12 222.18 641.28 217.88C651.23 219.19 661.27 219.62 671.21 221.02Z" fill="#E43949"/>
<path d="M11.3298 227.84C12.9498 223.64 16.1798 219.42 20.9798 218.95C27.3498 218.69 34.7598 222.47 35.5298 229.41C38.3398 226.75 42.1698 224.92 46.0998 226C51.5798 227.65 58.1198 230.14 59.8498 236.23C61.1198 241.62 58.2898 246.73 56.3398 251.58C54.0698 256.74 52.0498 262.02 49.6898 267.15C48.2398 267.02 46.9098 266.39 45.5798 265.85C31.4498 259.81 17.1598 254.16 3.02979 248.1C5.47979 241.22 8.66979 234.63 11.3298 227.84ZM15.2198 240C18.7698 241.65 22.4098 243.08 26.0498 244.53C27.1098 241.88 28.4198 239.29 28.9698 236.48C28.3798 233.33 25.2298 230.93 22.0298 231.34C17.2998 230.92 17.1098 237.03 15.2198 240ZM40.6498 237.9C36.5098 239.46 35.7898 244.25 34.2398 247.83C38.0398 249.31 41.8298 250.83 45.5998 252.41C45.8498 250.33 48.3798 249.95 48.6798 247.87C50.3598 244.8 50.2498 240.32 46.4598 238.96C44.6798 238.16 42.5898 236.6 40.6498 237.9Z" fill="#E43949"/>
<path d="M152.44 276.06C152.79 275.73 153.5 275.06 153.86 274.73C159.02 279.79 165.16 283.74 171.8 286.56C183.54 291.69 194.47 298.41 205.82 304.3C213.43 307.96 220.59 312.44 227.85 316.73C237.9 322.31 248.61 327.25 260.1 328.83C269.01 330.38 278.14 332.4 285.69 337.65C294.53 343.86 301.86 352.45 305.98 362.48C309.51 364.43 312.06 367.62 314.79 370.51C327.28 383.91 337.94 399.58 343.04 417.34C345.35 425.03 345.96 433.1 346.06 441.1C347.93 443.06 349.73 445.09 351.37 447.26C357.04 445.1 362.9 443.01 369.05 443.05C370.91 443.31 371.77 441.42 373.08 440.51C378.87 436 386.29 434.79 393.1 432.59C396.59 427.1 402.63 424.17 408.34 421.53C414.81 418.54 421.79 415.46 429.11 416.6C434.46 416.99 439.11 421.94 438.74 427.38C438.91 430.7 436.49 433.26 434.92 435.94C436.54 438.15 439.04 440.25 438.8 443.27C438.77 451.4 434.03 458.44 429.52 464.85C424.22 471.8 418.4 478.34 413.13 485.31C410.64 488.32 407.72 491 405.73 494.39C414.19 492.06 421.94 486.69 430.99 486.95C439.04 486.92 446.57 492.23 449.9 499.45C451.68 503.52 449.98 508.26 447.05 511.34C442.88 516.09 436.56 517.72 431.11 520.49C422.53 524.16 415.66 530.85 406.95 534.3C401.98 536.1 397.13 538.4 391.89 539.32C393.22 540.87 395.41 541.06 397.16 541.94C402.68 544.36 408.51 547.4 411.49 552.92C414.25 557.72 414.19 564.46 410.21 568.58C402.67 570.81 394.73 570.66 386.98 571.46C374.62 571.96 362.16 572.97 349.9 570.75C341 569.01 331.96 568.31 322.93 567.65C313.18 566.72 303.56 564.83 293.91 563.21C286.3 560.93 282.44 553.43 277.5 547.86C275.6 545.86 274.33 543.42 273.13 540.97C271.73 538.47 268.94 537.26 267.08 535.16C259.1 525.84 251.29 516.34 242.51 507.75C235.71 501.04 229.13 493.59 226.05 484.37C224.26 479.24 224.24 473.75 223.57 468.41C222.82 459.4 220.11 450.71 217.37 442.14C212.37 428.07 210.16 413.18 209.19 398.33C188.42 388.42 165.94 383.07 144 376.47C135.62 373.98 127.07 372.17 118.63 369.94C115.41 368.82 111.29 368.02 109.86 364.47C114.85 366 119.56 368.43 124.81 369.12C138.21 371.23 151.13 375.44 164.2 378.98C175.63 382.43 187.14 385.69 198.22 390.19C202.08 391.4 205.48 393.89 209.53 394.44C210.54 390.15 209.83 384.43 213.63 381.46C216.53 369.96 222.68 359.59 229.84 350.25C235.43 343.1 242.58 335.83 252.03 334.68C254.09 334.81 257.53 334.11 257.87 336.91C254.92 336.95 251.86 336.5 249.02 337.54C243.46 339.29 239.33 343.63 235.23 347.54C227.97 355.46 222.59 364.99 218.83 375.02C215.38 384.34 215.93 394.49 216.64 404.23C218.09 413.54 219.72 422.93 223.26 431.72C227.09 442.61 234.07 452.1 242.26 460.13C251.71 469.16 257.61 481.18 267.04 490.23C270.56 493.6 275.04 495.73 279.54 497.45C287.72 499.73 297.11 496.23 301.84 489.19C305.01 483.67 304.18 476.84 302.18 471.05C298.57 461.47 292.75 452.92 286.56 444.83C280.57 436.67 273.71 428.57 271.46 418.43C270.84 413.29 270.89 407.94 272.61 403.01C272.89 403.18 273.47 403.53 273.76 403.71C273.87 407.23 273.05 410.75 273.51 414.28C274.24 421.54 278.25 427.88 282.05 433.92C288.04 431.85 294.56 431.96 300.48 429.55C308.41 427.35 315.76 423.09 323.98 422.06C322.93 423.84 320.97 424.59 319.18 425.39C307.67 429.54 296.19 434.5 283.83 435.37C292.36 448.8 304.88 460.81 307.06 477.32C308.29 483.02 305.85 488.39 303.74 493.51C309.35 491.29 314.75 488.46 319.81 485.18C325.52 481.56 329.57 476.02 333.71 470.8C334.3 470.03 335.07 469.49 336.01 469.19C335.65 472.06 333.29 473.92 331.73 476.15C329.28 480.16 325.86 483.47 322.45 486.64C317.25 490.11 311.54 492.82 305.73 495.11C302.73 496.28 300.29 498.87 296.85 498.62C297.86 499.64 298.87 500.65 299.88 501.67C304.72 496.42 312.38 496.26 318.91 497.54C320.17 498.37 321.39 499.5 323 499.48C327 499.51 330.34 501.91 333.9 503.39C339.88 505.99 345.78 509.13 351.89 511.24C363 504.55 376.31 502.51 389.1 503.13C392.66 503.81 394.37 499.94 396.76 498.09C401.24 494.53 404.5 489.76 408.89 486.11C412.65 483.16 414.69 478.68 417.91 475.21C421.66 469.11 426.89 464.08 430.24 457.72C432.09 453.77 436.63 451.09 436.53 446.32C436.98 441.04 432.22 436.37 427.08 436.13C423.72 436.07 420.21 436.08 417.06 437.39C405.84 443.29 398.44 454.14 392.67 465.07C386.37 466.68 380.69 470.04 375.26 473.53C370.16 476.77 365.88 481.35 363.65 487.01C363.29 487.13 362.56 487.38 362.19 487.51C362.09 486.19 361.99 484.87 361.91 483.55C352.67 483.48 343.19 480.77 334.07 483.46C330.08 484.5 328.18 488.57 324.63 490.35C324.47 489.6 324.15 488.1 323.99 487.35C326.83 483.98 330.25 480.92 334.5 479.47C339.29 479.03 344.12 477.65 348.93 478.95C354.03 480.18 359.68 480.88 364.32 477.84C369.91 476.14 372.33 470.12 377.76 468.14C382.75 466.42 386.62 462.52 391.79 461.24C393.12 455.69 396.91 451.18 400.22 446.68C403.68 441.99 408.94 439.29 413.37 435.67C417.65 432.89 423.23 431.26 428.2 433.08C430.24 433.65 432.31 434.76 434.39 433.67C435.51 431.3 436.45 428.85 437.35 426.38C435.6 423.75 433.56 420.79 430.25 420.12C424.59 418.63 418.86 420.42 413.54 422.26C408.56 424.12 403.86 426.71 399.52 429.76C396.58 431.97 394.65 435.33 394.49 439.04C393.99 439.09 392.98 439.19 392.48 439.24C392.03 438.25 391.58 437.26 391.14 436.27C384.76 438.04 378.15 440.06 372.99 444.37C370.13 446.5 370.68 451.34 366.92 452.47C367.23 450.63 367.78 448.84 368.46 447.11C367.71 446.36 366.96 445.62 366.21 444.89C361.38 446.51 356.19 447.32 352.02 450.46C348.13 452.91 345.2 456.63 343.17 460.71C342.69 462.07 342.21 463.43 341.74 464.8C340.12 468.06 340.25 472.6 336.89 474.71C336.64 470.78 338.44 467.2 339.32 463.46C341.14 458.01 343.75 452.37 348.72 449.1C347.7 447.27 346.57 445.47 344.99 444.08C339.55 444.69 334.46 446.91 329.38 448.83C323.86 451.32 318.28 453.93 313.52 457.74C311.47 459.3 309.91 461.73 307.21 462.2C307.44 459.16 310.25 457.42 312.29 455.55C321.25 448.35 332.27 444.23 343.3 441.4C342.91 430.84 341.05 420.25 337.11 410.41C330.62 393.97 320.04 379.31 307.41 367.04C307.06 367.76 306.36 369.22 306.01 369.94L305.3 369.38C304.19 364.81 302.92 360.07 299.9 356.35C297.53 353.38 295.29 350.32 292.84 347.42C287.61 341.35 280.5 337.08 272.92 334.61C263.25 331.8 252.92 331.66 243.53 327.81C228.75 322.65 216.46 312.61 202.21 306.39C184.57 298.19 167.24 288.81 152.44 276.06ZM212.85 408.06C212.83 408.89 212.8 410.55 212.78 411.39C213.94 414.57 214.88 417.87 214.76 421.3C215 428.67 219.74 435.02 219.84 442.4C222.41 447.64 223.92 453.3 225.56 458.88C227.06 467.84 226.08 477.21 229.42 485.83C232.55 492.44 237.62 497.8 241.54 503.91C242.99 506.07 245.12 507.6 247.01 509.35C255.92 518.13 264.72 527.07 272.47 536.92C278.28 543.1 282.93 550.32 288.96 556.29C293.48 560.8 299.97 561.81 306.04 562.5C314.08 563.48 322.11 564.61 330.17 565.5C339.26 565.86 348.22 567.5 357.2 568.8C362.34 570.66 367.73 568.78 373.01 569.03C381.68 568.54 390.35 568.13 399.04 568.11C402.48 568.15 406.03 567.15 408.76 565.04C411.43 560.41 410.24 553.73 406.01 550.4C397.91 545.11 388.67 541.61 379.09 540.25C372.04 539.9 365.04 541.05 358.02 541.56C355.69 541.65 352.85 543.38 350.98 541.22C352.49 540.14 354.17 539.36 355.99 538.96C353.62 537.26 350.78 536.41 348.08 535.41C342.97 535.09 338.18 532.89 333.02 532.84C327.06 532.24 321.02 532.15 315.12 531.03C314.95 530.39 314.61 529.12 314.45 528.48C315.4 528.43 317.32 528.33 318.28 528.27C314.99 523.83 312.03 519.12 308.44 514.92C303.94 510.22 299.31 505.67 295.09 500.72C290.03 500.63 284.93 501.55 279.95 500.17C273.24 499.23 267.89 494.72 263.28 490.09C259.07 486.82 257.33 481.47 253.46 477.91C248.99 474.36 245.74 469.59 242.48 464.97C239.16 460.6 234.85 457.13 231.26 453C227.34 448.67 224.65 443.41 222.18 438.2C222.38 434.13 219.58 430.88 218.61 427.1C216.88 421.06 215.31 414.97 214.12 408.81C213.81 408.62 213.17 408.25 212.85 408.06ZM419.49 491.97C412.44 494.5 405.61 497.65 399.13 501.42C396.04 503.18 394.07 506.4 393.5 509.87C393.23 511.98 391.04 511.38 390.08 510.16C390.38 508.92 390.67 507.68 390.96 506.46C380.93 505.52 371.01 507.65 361.47 510.57C356.44 512.36 351.04 514.05 347.5 518.32C346.8 518.29 345.41 518.23 344.71 518.2C345.21 516.14 347.14 514.98 348.14 513.23C345.35 511.37 342.02 510.63 338.94 509.43C333.91 507.76 329.36 504.97 324.42 503.06C319.36 500.34 313.43 499.81 307.8 500.45C305.29 500.38 303.39 502.07 301.71 503.7C302.84 507.6 306.79 509.25 309.6 511.72C314.7 517 319.13 522.9 323.04 529.1C323.96 530.33 325.73 529.77 327.03 529.94C335.15 529.91 343.06 532.1 351.03 533.36C356.04 534.03 359.67 539.11 365.04 538.01C374.31 536.39 383.82 538.46 392.99 536.2C398.2 535.38 402.74 532.44 407.87 531.33C412.31 530.21 415.25 526.4 419.16 524.28C421.75 522.53 424.51 521.11 427.33 519.79C432.69 516.15 439.16 514.48 444.38 510.63C447.87 507.93 448.61 502.93 447.3 498.92C445.15 494.07 439.77 491.86 435.1 490.15C429.89 490.03 424.28 489.45 419.49 491.97Z" fill="#E43949"/>
<path d="M367.59 280.78C371.07 284.12 374.64 287.51 379.31 289.13C394.63 295.08 411.49 300.42 427.98 296.29C432.84 295.47 437.02 292.39 441.89 291.74C441.2 294.26 438.65 295.41 436.57 296.6C426.78 301.32 415.41 301.59 404.86 299.87C394.19 297.72 383.89 293.91 374.11 289.19C371.14 287.29 366.58 285.01 367.59 280.78Z" fill="#E43949"/>
<path d="M361.42 289.11C363.85 288.75 365.74 290.41 367.69 291.56C384.39 302.31 402.68 310.67 421.91 315.73C421.8 316.2 421.57 317.16 421.45 317.63C402.56 314.29 385.46 304.9 369.25 295.05C366.5 293.27 363.39 291.83 361.42 289.11Z" fill="#E43949"/>
<path d="M14.6498 320.13C25.4498 316.54 38.0798 325 38.7998 336.35C40.0598 345.35 33.7198 354.44 24.9798 356.69C16.9798 359.09 7.57977 355.26 3.51977 347.95C1.09977 343.58 0.0797698 338.18 1.61977 333.34C3.19977 327.03 8.47977 321.96 14.6498 320.13Z" fill="#E43949"/>
<path d="M682.59 320.11C692.32 316.96 703.78 323.42 706.21 333.32C709.44 343.36 702.28 355.04 691.92 356.88C681.66 359.61 670.37 351.67 669.11 341.22C667.39 332.11 673.68 322.5 682.59 320.11Z" fill="#E43949"/>
<path d="M458.17 357.91C462.65 357.13 466.34 353.86 470.93 353.64C468.68 357.45 464.08 358.55 460.16 359.82C449.33 362.49 438.07 363.55 426.93 362.73C422.8 362.44 418.77 363.67 414.69 364.01C414.75 363.47 414.86 362.38 414.92 361.84C419.22 360.91 423.56 359.7 428.01 360.03C438.1 360.64 448.25 359.77 458.17 357.91Z" fill="#E43949"/>
<path d="M305.4 379.26C305.63 377.23 305.22 374.69 307.14 373.32C308.03 386.45 308.37 400.74 301.42 412.45C300.3 414.5 298.72 416.61 296.25 417.04C296.39 414.07 298.73 411.98 300.01 409.47C305.31 400.35 305.04 389.45 305.4 379.26Z" fill="#E43949"/>
<path d="M663 425.19C668.04 421.8 674.58 422.77 680.1 424.32C684.73 425.58 689.38 428.4 690.93 433.21C693.09 439.89 690.63 446.79 689.95 453.5C694.6 454.45 699.28 455.24 703.91 456.29C703.24 460.28 702.45 464.24 701.72 468.22C685.2 465.31 668.85 461.49 652.33 458.55C652.34 453.74 654.05 449.18 654.74 444.46C656.09 437.63 657.2 429.8 663 425.19ZM664.28 446.81C664.56 447.13 665.1 447.78 665.38 448.1C670.27 449.39 675.27 450.23 680.26 451.09C680.66 447.57 682.24 443.96 681.16 440.43C679.35 436.34 674.03 435.51 670.06 435.7C665.31 436.98 665.04 442.8 664.28 446.81Z" fill="#E43949"/>
<path d="M3.50977 434.13C20.1998 431.63 36.8398 428.88 53.5098 426.3C54.7198 430.7 55.9098 435.12 56.7998 439.59C57.2998 441.01 55.6398 441.46 54.7798 442.11C45.3798 447.78 36.0298 453.54 26.5398 459.05C25.3598 459.69 24.2798 460.54 23.6498 461.76C36.6498 462.31 49.6098 463.59 62.6098 464.05C64.4198 468.72 64.9898 473.75 66.5398 478.51C50.4698 484.1 34.2798 489.44 18.0898 494.67C17.5798 490.56 15.4298 486.32 15.7598 482.36C25.6998 479.56 35.7498 477.06 45.6698 474.21C45.7998 473.7 46.0698 472.68 46.1998 472.17C34.8998 471.73 23.6298 470.69 12.3398 469.98C11.1698 466.39 10.4598 462.69 9.48977 459.05C19.0698 452.83 29.1198 447.34 38.5798 440.95L39.3198 439.32C28.2698 441.39 17.3898 444.38 6.27977 446.15C5.41977 442.13 4.33977 438.16 3.50977 434.13Z" fill="#E43949"/>
<path d="M262.16 468.36C264.62 462.15 270.66 458.01 276.69 455.66C276.9 456.2 277.3 457.29 277.5 457.83C271.69 459.23 266.36 463.81 264.19 469.32C267.63 478.74 273.7 486.93 280.35 494.35C287.54 491.82 294.23 487.05 297.42 479.93C297.88 479.69 298.82 479.21 299.28 478.97C299.18 483.95 295.09 487.62 291.62 490.7C287.83 493.43 283.2 496.69 278.29 495.21C274.87 492.16 272.57 488.09 269.38 484.8C266.68 479.48 263.31 474.29 262.16 468.36Z" fill="#E43949"/>
<path d="M277.51 458.37C278.06 457.81 278.62 457.27 279.18 456.74C286.6 461.33 291.46 468.75 297.61 474.73C298.38 475.57 299.05 476.49 299.62 477.5C297.61 478.26 296.17 476.54 294.89 475.37C289.18 469.65 284.94 462.09 277.51 458.37Z" fill="#E43949"/>
<path d="M649.07 468.23C649.32 468.01 649.83 467.57 650.08 467.35C653.17 467.95 656 469.44 659 470.39C657.91 474.78 655.38 478.75 654.98 483.33C667.58 487.64 680.03 492.41 692.53 497.02C691.02 500.74 689.64 504.51 688.37 508.31C675.43 504.25 662.99 498.63 650 494.79C648.58 498.92 647.25 503.1 645.42 507.08C642.36 505.83 639.25 504.72 636.18 503.54C640.37 491.73 644.92 480.05 649.07 468.23Z" fill="#E43949"/>
<path d="M26.1598 513.14C41.3198 505.79 56.8598 499.19 72.0798 491.96C76.8798 502.1 81.5798 512.3 85.9898 522.61C83.2298 523.88 80.4998 525.24 77.6398 526.29C74.7598 520 71.6598 513.81 69.1098 507.37C65.5798 508.02 62.6098 510.18 59.2398 511.29C61.1898 516.82 64.0098 522 66.3498 527.37C63.5598 528.74 60.7398 530.04 57.9298 531.36C55.5998 526 53.0898 520.71 50.6698 515.4C46.9798 516.85 43.4398 518.66 39.8298 520.31C42.0598 526.07 44.9898 531.53 47.4198 537.22C47.7398 538.13 48.5698 539.76 47.2198 540.28C44.8998 541.54 42.4298 542.48 40.0398 543.59C35.5198 533.39 30.7598 523.3 26.1598 513.14Z" fill="#E43949"/>
<path d="M626.46 522.18C628.53 518.58 630.49 514.92 632.75 511.44C647.24 519.98 661.99 528.07 676.51 536.55C674.56 540.17 672.63 543.81 670.33 547.23C664.18 543.73 658.16 540.01 651.93 536.66C651.68 536.73 651.19 536.87 650.94 536.94C647.84 542.39 644.72 547.83 641.67 553.32C647.82 557.29 654.32 560.7 660.66 564.37C658.58 567.93 656.77 571.65 654.42 575.04C639.96 566.69 625.41 558.48 610.9 550.2C612.17 546.27 614.67 542.93 616.77 539.43C622.29 542.23 627.39 545.81 633 548.4C634.33 547.67 634.81 546.07 635.63 544.88C637.99 540.41 640.84 536.22 642.99 531.64C637.59 528.29 631.94 525.37 626.46 522.18Z" fill="#E43949"/>
<path d="M59.9798 555.74C72.9298 552.73 83.9498 544.81 94.8998 537.64C101.52 547.64 108.39 557.49 115.15 567.4C106.98 573.32 98.4398 578.74 90.2098 584.58C87.1998 586.8 83.6598 588.38 81.1598 591.23C82.0998 592.59 83.7398 593.69 83.9598 595.44C77.5798 600 70.6498 603.83 63.9598 607.96C62.0998 604.84 59.1198 602.09 58.1998 598.59C61.4298 595.75 65.3798 593.9 68.6898 591.18C69.5498 589.9 68.2898 588.72 67.6998 587.7C63.0598 580.99 58.4798 574.23 53.9298 567.46C49.7598 569.79 45.6798 572.27 41.7798 575.03C39.1298 572.08 37.1698 568.62 34.9498 565.36C41.6398 561.02 48.0498 556.26 54.7998 552C56.0398 553.78 57.1998 556.9 59.9798 555.74ZM86.4998 555.81C80.2998 560.54 73.1998 564.48 65.4898 566.01C65.2098 567.36 66.3098 568.29 66.9498 569.34C69.3398 572.92 71.6098 576.59 74.3198 579.96C77.2098 578.06 80.2598 576.4 82.9198 574.17C85.1398 572.26 88.3798 572.04 90.3098 569.75C92.5198 567.41 95.1898 565.59 97.9498 563.97C97.9598 563.29 97.9598 561.92 97.9598 561.24C96.4298 558.81 95.1198 556.22 93.1898 554.08C90.9498 554.59 88.4698 554.51 86.4998 555.81Z" fill="#E43949"/>
<path d="M583.32 584.29C590.63 575.71 597.23 566.51 604.87 558.22C607.18 560.19 609.52 562.13 611.83 564.12C607.69 569.6 602.71 574.55 598.98 580.25C600.71 583.19 604.21 584.93 606.78 587.24C610.45 582.67 614.09 578.08 617.85 573.59C620.13 575.63 622.49 577.56 624.92 579.43C621.63 584.24 616.97 588.35 614.2 593.34C616.98 595.95 620.18 598.06 623.11 600.5C628.06 595.43 631.81 589.32 636.83 584.31C639.25 586.18 641.69 588.03 643.91 590.16C636.7 598.7 629.73 607.44 622.72 616.15C609.56 605.56 596.59 594.73 583.32 584.29Z" fill="#E43949"/>
<path d="M89.1398 615.35C100.97 603.31 113.01 591.47 124.93 579.51C127.86 582.4 130.67 585.41 133.62 588.29C127.22 594.45 121.06 600.87 114.68 607.06C113.69 607.91 113.2 609.13 112.71 610.3C124.88 608.47 136.99 606.22 149.09 603.97C151.75 606.14 154.08 608.68 156.45 611.16C144.65 623.16 132.58 634.88 120.82 646.93C117.72 644.19 114.86 641.19 111.99 638.22C118.28 631.87 124.64 625.58 130.98 619.28C131.99 618.33 132.74 617.14 133.37 615.92C120.92 618.06 108.5 620.39 96.0098 622.28C93.7098 619.98 91.3898 617.7 89.1398 615.35Z" fill="#E43949"/>
<path d="M563.35 604.09C566.24 601.13 569.55 598.64 572.61 595.85C581.44 605.98 590.36 616.05 599.26 626.13C601.4 626.43 602.53 623.99 604.09 622.92C608.62 628.23 613.21 633.53 617.3 639.2C614.56 641.39 612.02 643.82 609.33 646.07C609.06 646.06 608.52 646.03 608.25 646.02C605.79 643.48 603.55 640.74 601.06 638.25C591.96 646.21 582.79 654.09 573.81 662.18C562.36 649.79 551.44 636.91 540.28 624.25C543.32 621.59 546.43 619.01 549.19 616.04C558.33 626.07 567.23 636.32 576.13 646.57C577.38 646.22 578.59 645.69 579.49 644.73C583.08 641.44 586.72 638.19 590.54 635.15C581.68 624.63 572.48 614.38 563.35 604.09Z" fill="#E43949"/>
<path d="M137.06 660.51C146.66 646.59 156.08 632.55 165.71 618.66C168.78 621.12 172.23 623.06 175.3 625.53L175.36 626.22C169.6 634.9 163.55 643.39 157.76 652.06C156.06 654.68 153.89 657.06 152.91 660.08C157.77 663.31 162.76 666.41 167.26 670.14C168.04 669.4 168.77 668.61 169.44 667.78C176.56 657.19 183.82 646.7 191.01 636.16C194.42 638.41 197.83 640.68 201.09 643.15C193.47 654.53 185.44 665.67 178.11 677.23C179.7 678.21 181.26 679.27 182.82 680.32C178.77 686 174.62 691.6 170.37 697.14C167.29 694.83 164.06 692.73 160.95 690.47C162.99 687.37 165.15 684.35 167.16 681.24C157.34 674.02 146.93 667.65 137.06 660.51Z" fill="#E43949"/>
<path d="M492.22 637.25C494.65 636.09 497.06 634.89 499.42 633.59C501.5 635.83 501.99 639.39 500.31 642.02C497.06 646.63 491.72 648.99 486.79 651.33C483.13 652.8 478.96 654.43 475.03 653.08C472.7 652.39 471.55 650.07 470.22 648.27C472.76 646.78 475.43 645.53 478.08 644.24C478.71 644.87 479.35 645.5 480 646.15C484.88 646.98 489.65 644.36 492.51 640.52C492.43 639.7 492.29 638.06 492.22 637.25Z" fill="#E43949"/>
<path d="M501.84 648.13C504.84 646.46 507.99 645.09 511.09 643.61C517.25 656.32 523.58 668.94 529.78 681.63C531.03 684.05 532.33 686.48 533.05 689.13C529.5 690.93 525.97 692.79 522.26 694.24C517.94 685.42 513.61 676.6 509.24 667.81C508.91 667.66 508.25 667.36 507.92 667.2C506.36 679.64 504.16 691.99 502.25 704.37C499.18 705.67 496.35 707.52 493.11 708.36C485.72 693.34 478.25 678.35 470.98 663.28C474.58 661.4 478.25 659.68 481.93 657.96C486.79 667.14 490.77 676.79 496.04 685.74C498.12 673.23 500.22 660.71 501.84 648.13Z" fill="#E43949"/>
<path d="M214.81 650.68C218.45 652.39 222.18 653.91 225.82 655.62C222.06 665.02 217.6 674.14 213.89 683.58C216.22 683.08 218.23 681.78 220.21 680.54C228.76 675.15 237.47 670.03 246.05 664.7C249.39 665.24 252.33 667.24 255.52 668.35C248.96 683.95 242.21 699.5 235.31 714.95C231.79 712.98 227.91 711.81 224.36 709.93C227.99 700.53 232.51 691.48 236.16 682.09C234.52 682.36 232.97 682.97 231.61 683.94C222.53 689.83 212.99 695 204.01 701.07C200.77 699.96 197.68 698.46 194.59 697C201.3 681.55 207.75 665.97 214.81 650.68Z" fill="#E43949"/>
<path d="M450.54 670.02C453.71 669.32 456.78 668.2 460 667.74C464.07 684.04 469.32 700.05 473.1 716.41C469.27 717.36 465.46 718.39 461.72 719.66C458.47 709.86 456.31 699.74 453.12 689.93C452.39 691.03 451.8 692.2 451.35 693.44C447.66 703.74 444.12 714.1 440.34 724.37C440.09 725.94 438.27 725.85 437.12 726.34C434.92 726.96 432.7 727.56 430.51 728.2C427.36 718.35 424.88 708.3 421.99 698.37C420.47 691.97 418.08 685.78 417.03 679.28C420.98 678.56 424.7 676.97 428.66 676.25C431.26 685.44 433.68 694.68 436.31 703.86C436.72 704.03 437.55 704.39 437.96 704.57C442.22 693.08 445.84 681.33 450.54 670.02Z" fill="#E43949"/>
<path d="M266.81 672.34C270.89 672.79 274.81 674.04 278.82 674.85C277.7 681.14 275.59 687.26 274.98 693.65C281.39 694.82 287.63 696.75 294.06 697.78C295 691.63 297.08 685.73 297.89 679.56C302.04 679.81 306.04 681.05 310.06 682.07C306.58 698.48 302.6 714.77 299.03 731.16C294.93 730.43 290.89 729.46 286.86 728.46C288.66 721.36 290.2 714.2 291.79 707.06C285.33 705.81 279.04 703.64 272.44 703.22C270.58 710.15 269.45 717.25 267.51 724.16C263.69 723.38 259.95 722.29 256.11 721.62C256.18 717.39 257.63 713.37 258.4 709.25C261.26 696.96 264 684.64 266.81 672.34Z" fill="#E43949"/>
<path d="M394.81 682.26C399.22 681.75 403.69 681.84 408.06 680.94C403.69 689.68 397.57 697.48 392.82 706.03C399.75 714.53 406.79 722.95 413.71 731.48C409.07 731.72 404.47 732.34 399.85 732.67C394.73 725.75 389.27 719.1 384.19 712.16C383.48 711.01 382.38 710.26 381.05 710.05C381.47 718.14 382.48 726.18 383.2 734.25C379.05 734.43 374.95 735.5 370.79 735.14C369.48 718.4 367.44 701.73 366.26 684.98C370.28 684.78 374.26 684.27 378.25 683.77C379.34 690.98 379.59 698.29 380.51 705.53C381.47 705.19 382.18 704.57 382.63 703.67C386.83 696.62 390.01 688.9 394.81 682.26Z" fill="#E43949"/>
<path d="M322.01 692.42C325.49 686.65 332.34 683.46 338.98 683.62C344.78 683.26 350.45 684.83 355.81 686.88C354.8 689.75 354.13 692.73 353.03 695.57C347.68 694.81 342.04 691.43 336.72 694.11C331.74 696.94 331.15 703.18 331.25 708.32C331.39 713.55 329.56 720.24 334.45 723.94C339.49 727.73 346.26 725.16 351.95 724.66C352.31 727.76 352.64 730.86 352.91 733.98C343.84 735.92 333.3 736.8 325.43 730.95C319.89 726.99 318.01 719.83 318.54 713.34C319.14 706.33 318.49 698.79 322.01 692.42Z" fill="#E43949"/>
</svg>
