<svg width="192" height="68" viewBox="0 0 192 68" fill="none" xmlns="http://www.w3.org/2000/svg">
<g clip-path="url(#clip0)">
<path d="M11.1534 30.3571L7.01985 36.8161L2.8507 30.3571H0V43.7143H2.77943L2.70816 34.8583L6.62787 40.5305H7.394L11.3672 34.7119L11.2959 43.7143H14.0753V30.3571H11.1534Z" fill="white"/>
<path d="M33.0553 32.7541V30.3571H23.0957V43.7143H33.0553V41.3173H25.893V38.2799H32.3427V35.8647H25.893V32.7541H33.0553Z" fill="white"/>
<path d="M41.72 43.7143H48.1163C49.6485 43.7143 50.8779 43.4032 51.7687 42.7445C52.6596 42.0858 53.1228 41.2075 53.1228 40.0914C53.1228 39.2863 52.8555 38.6093 52.3567 38.0604C51.8578 37.5297 51.1095 37.1638 50.1296 36.9625C50.8779 36.7796 51.448 36.3953 51.84 35.8281C52.232 35.2792 52.4279 34.6205 52.4279 33.8886C52.4279 32.809 52.0003 31.949 51.1451 31.3086C50.2899 30.6865 49.1496 30.3571 47.6887 30.3571H41.72V43.7143ZM44.5173 35.8098V32.7541H47.653C48.9002 32.7541 49.5416 33.2481 49.5416 34.1996C49.5416 34.7119 49.3813 35.1145 49.0784 35.3889C48.7755 35.6817 48.3657 35.8098 47.8312 35.8098H44.5173ZM44.5173 41.3173V38.2251H48.1341C48.7933 38.2251 49.31 38.3714 49.6841 38.6276C50.0405 38.9021 50.2365 39.2863 50.2365 39.762C50.2365 40.805 49.506 41.3173 48.045 41.3173H44.5173Z" fill="white"/>
<path d="M71.6784 32.7541V30.3571H61.7188V43.7143H71.6784V41.3173H64.516V38.2799H70.9657V35.8647H64.516V32.7541H71.6784Z" fill="white"/>
<path d="M80.343 43.7143H89.8572V41.3173H83.1403V30.3571H80.343V43.7143Z" fill="white"/>
<path d="M111.98 43.7143C113.55 43.7143 114.853 43.3452 115.87 42.5895C116.888 41.8513 117.405 40.832 117.405 39.549C117.405 39.0217 117.298 38.5648 117.102 38.143C116.906 37.7212 116.673 37.3872 116.388 37.1236C116.102 36.8775 115.745 36.6315 115.281 36.4206C114.817 36.2097 114.407 36.0339 114.05 35.9285C113.693 35.823 113.247 35.7176 112.729 35.5946C111.676 35.3661 110.926 35.1376 110.498 34.9267C110.07 34.7158 109.856 34.3994 109.856 33.9952C109.856 33.6086 110.034 33.2922 110.409 33.0637C110.784 32.8528 111.319 32.7298 112.015 32.7298C113.336 32.7298 114.621 33.0637 115.87 33.714L116.745 31.4468C115.299 30.7262 113.782 30.3571 112.194 30.3571C110.623 30.3571 109.374 30.7087 108.41 31.3765C107.446 32.0444 106.964 33.011 106.964 34.2413C106.964 34.7509 107.036 35.2079 107.214 35.6121C107.393 36.0339 107.607 36.3679 107.857 36.6315C108.107 36.8951 108.446 37.1236 108.838 37.3345C109.231 37.5454 109.606 37.686 109.945 37.7915C110.266 37.8969 110.659 38.0024 111.123 38.1078C112.444 38.4242 113.336 38.6702 113.8 38.8811C114.264 39.092 114.514 39.4084 114.514 39.8126C114.514 40.3223 114.3 40.6914 113.871 40.9374C113.443 41.1835 112.89 41.2889 112.194 41.2889C110.623 41.2889 109.106 40.8671 107.642 40.0059L106.857 42.3962C108.553 43.2749 110.266 43.7143 111.98 43.7143V43.7143Z" fill="white"/>
<path d="M136.517 30.6207H125.005V32.923H129.36V43.4506H132.162V32.923H136.517V30.6207Z" fill="white"/>
<path d="M148.559 43.4506H151.361V38.5295L156.572 30.6207H153.378L149.987 35.9284L146.56 30.6207H143.347L148.559 38.5295V43.4506Z" fill="white"/>
<path d="M164.13 43.4506H173.661V41.1482H166.932V30.6207H164.13V43.4506Z" fill="white"/>
<path d="M191.857 32.923V30.6207H181.88V43.4506H191.857V41.1482H184.682V38.2307H191.143V35.9108H184.682V32.923H191.857Z" fill="white"/>
<path d="M4.67598 67.9999C6.01558 67.9999 7.1277 67.5525 8.01235 66.6322C8.89699 65.7119 9.33931 64.5488 9.33931 63.1427C9.33931 61.7367 8.89699 60.5864 8.01235 59.6661C7.1277 58.7458 6.01558 58.2856 4.67598 58.2856C3.3111 58.2856 2.19897 58.7458 1.31433 59.6661C0.429684 60.5864 0 61.7367 0 63.1427C0 64.5488 0.429684 65.7119 1.31433 66.6322C2.19897 67.5525 3.3111 67.9999 4.67598 67.9999V67.9999ZM4.67598 67.2202C3.56385 67.2202 2.65393 66.8367 1.94622 66.0698C1.22586 65.3029 0.872006 64.3315 0.872006 63.1427C0.872006 61.9668 1.22586 60.9826 1.94622 60.2157C2.65393 59.4488 3.56385 59.0653 4.67598 59.0653C5.76282 59.0653 6.67274 59.4488 7.3931 60.2157C8.10081 60.9826 8.46731 61.9668 8.46731 63.1427C8.46731 64.3315 8.10081 65.3029 7.3931 66.0698C6.67274 66.8367 5.76282 67.2202 4.67598 67.2202V67.2202Z" fill="white"/>
<path d="M13.8667 67.8083H14.7008V63.6669H19.7938V62.9H14.7008V59.2444H20.2993V58.4774H13.8667V67.8083Z" fill="white"/>
<path d="M24.6753 67.8083H25.5094V63.6669H30.6025V62.9H25.5094V59.2444H31.108V58.4774H24.6753V67.8083Z" fill="white"/>
<path d="M35.4841 67.8083H36.3182V58.4774H35.4841V67.8083Z" fill="white"/>
<path d="M45.5549 67.9999C46.6544 67.9999 47.6907 67.757 48.6764 67.2458L48.4111 66.5044C47.577 66.9901 46.6291 67.2202 45.5802 67.2202C44.4175 67.2202 43.4823 66.8495 42.7746 66.1082C42.0669 65.3668 41.713 64.3954 41.713 63.1811C41.713 61.954 42.0669 60.957 42.7999 60.2029C43.5202 59.4488 44.4807 59.0653 45.6687 59.0653C46.0983 59.0653 46.5786 59.1292 47.0841 59.257C47.5896 59.3849 48.0193 59.5638 48.3858 59.7683L48.6512 59.027C47.6907 58.5412 46.6923 58.2856 45.656 58.2856C44.19 58.2856 43.0274 58.7458 42.1427 59.6405C41.2581 60.5352 40.8158 61.724 40.8284 63.1811C40.8158 64.6255 41.2454 65.7886 42.1174 66.6706C42.9768 67.5653 44.1268 67.9999 45.5549 67.9999V67.9999Z" fill="white"/>
<path d="M53.8382 67.0413V63.5902H58.9439V62.8105H53.8382V59.2444H59.4874V58.4774H53.0042V67.8083H59.5V67.0413H53.8382Z" fill="white"/>
<path d="M13.3571 6.67857C13.3571 10.367 10.367 13.3571 6.67857 13.3571C2.9901 13.3571 0 10.367 0 6.67857C0 2.9901 2.9901 0 6.67857 0C10.367 0 13.3571 2.9901 13.3571 6.67857V6.67857Z" fill="#006B2D"/>
<path d="M36.2271 6.67853C36.2271 10.2558 33.3272 13.1557 29.75 13.1557C26.1728 13.1557 23.2729 10.2558 23.2729 6.67853C23.2729 3.10132 26.1728 0.201416 29.75 0.201416C33.3272 0.201416 36.2271 3.10132 36.2271 6.67853Z" fill="white"/>
<path d="M59.5 6.67857C59.5 10.367 56.5099 13.3571 52.8214 13.3571C49.1329 13.3571 46.1428 10.367 46.1428 6.67857C46.1428 2.9901 49.1329 0 52.8214 0C56.5099 0 59.5 2.9901 59.5 6.67857V6.67857Z" fill="#FF5559"/>
</g>
<defs>
<clipPath id="clip0">
<rect width="192" height="68" fill="white"/>
</clipPath>
</defs>
</svg>
