<svg width="550" height="271" viewBox="0 0 550 271" fill="none" xmlns="http://www.w3.org/2000/svg">
<path d="M450.785 46.4865H0V51.0964H450.785V46.4865Z" fill="black"/>
<path d="M231.891 49.5573L229.922 56.0881H221.261L218.505 49.5573L220.867 44.179L229.528 43.7948L231.891 49.5573Z" fill="black"/>
<path d="M548.416 43.7979C548.416 67.6162 528.731 86.8245 504.322 86.8245C479.912 86.8245 460.227 67.6162 460.227 43.7979C460.227 19.9797 479.912 0.771362 504.322 0.771362C528.731 1.15553 548.416 20.3638 548.416 43.7979Z" fill="url(#paint0_linear)"/>
<path d="M504.725 88.3581C479.528 88.3581 459.449 68.3815 459.449 44.1791C459.449 19.5925 479.921 0 504.725 0C529.921 0 550 19.9766 550 44.1791C550 68.3815 529.528 88.3581 504.725 88.3581ZM504.725 2.30499C481.103 2.30499 462.205 21.1291 462.205 43.7949C462.205 66.8448 481.103 85.2848 504.725 85.2848C528.346 85.2848 547.244 66.8448 547.244 43.7949C547.244 21.1291 527.953 2.30499 504.725 2.30499Z" fill="black"/>
<path d="M37.7836 131.003C37.7836 131.003 37.39 126.777 45.2639 124.088C50.7757 122.552 54.7127 120.247 54.7127 120.247C54.7127 120.247 58.256 118.71 60.6182 114.868C63.3741 111.027 63.7678 109.49 72.0355 106.417C81.0906 102.959 98.0196 97.965 116.523 96.8125C121.642 96.4283 132.665 96.0441 132.665 96.0441V93.7392C132.665 93.7392 124.397 93.355 124.397 86.8242C124.397 79.9092 132.665 79.9092 132.665 79.9092C132.665 79.9092 133.453 75.6834 142.508 75.2992C151.563 74.915 173.216 74.1467 173.216 74.1467C173.216 74.1467 171.641 62.2376 178.334 60.7009C184.24 59.5484 208.255 56.8592 208.255 56.8592C208.255 56.8592 208.649 53.7859 216.523 53.7859C224.397 53.7859 238.176 54.1701 238.176 54.1701L239.751 56.8592L252.35 57.6276C252.35 57.6276 257.861 54.5542 263.373 56.4751C268.885 58.0117 270.46 62.2376 266.523 64.9267C262.586 67.6159 262.979 68.7684 262.979 71.0734C263.373 73.3784 267.31 77.6042 276.759 78.7567C285.42 79.9092 293.294 79.9092 293.294 79.9092L440.538 82.2142L490.931 40.3401C490.931 40.3401 495.262 36.1143 498.411 36.1143C501.955 36.1143 524.789 35.346 524.789 35.346C524.789 35.346 528.333 34.9618 524.789 39.1876C521.246 43.4134 481.876 92.5867 481.876 92.5867C481.876 92.5867 475.971 100.654 464.16 100.654C452.349 100.654 369.278 100.654 369.278 100.654C369.278 100.654 342.113 123.704 324.397 132.924C306.68 142.144 290.538 150.98 265.735 151.748C240.932 152.517 126.76 149.443 126.76 149.443C126.76 149.443 98.807 148.675 86.2086 147.138C73.2166 145.217 51.5631 140.607 44.4766 137.918C40.1459 136.382 37.7836 134.077 37.7836 131.003Z" fill="url(#paint1_linear)"/>
<path d="M256.704 153.666C220.483 153.666 128.751 151.361 127.57 151.361C126.389 151.361 99.224 150.592 86.6257 148.672C73.6336 146.751 51.5865 142.141 44.4999 139.452C40.9566 138.299 36.2322 135.994 35.8385 131C35.8385 130.232 36.2322 125.238 44.4999 122.548C49.618 121.012 53.9487 119.091 53.9487 119.091C53.9487 119.091 57.0982 117.554 59.0667 114.097C59.4604 113.713 59.4605 113.328 59.8542 112.944C62.2164 109.487 63.7911 107.95 71.2714 104.877C76.3895 102.956 94.4996 96.4251 116.547 94.8884C119.696 94.5043 124.814 94.5043 128.358 94.1201C125.602 92.9676 122.846 90.6626 122.452 86.4368C122.452 84.1318 123.24 82.211 124.421 80.6743C126.389 78.7535 129.539 77.9851 131.114 77.601C131.901 76.0643 134.657 73.3751 142.137 72.991C149.617 72.6068 165.759 71.8385 170.877 71.8385C170.877 67.9968 170.877 59.9293 177.176 58.3927C182.688 57.2402 201.979 54.9352 206.31 54.551C207.098 53.3985 209.46 51.4777 215.759 51.4777C223.633 51.4777 237.412 51.8619 237.412 51.8619C238.2 51.8619 238.593 52.246 238.987 52.6302L240.168 54.551L251.192 55.3193C252.373 54.9352 255.129 53.7827 258.672 53.7827C260.247 53.7827 261.428 54.1668 263.003 54.551C266.546 55.7035 268.908 58.0085 269.302 60.3135C269.696 62.2343 268.515 64.5393 266.546 66.076C263.396 68.381 263.396 68.7652 263.79 70.686C263.79 71.8385 267.333 75.6801 275.995 76.8326C284.263 77.9851 292.137 77.9851 292.137 77.9851L438.986 80.2901L488.986 38.8002C489.773 38.0319 494.104 34.1902 497.647 34.1902C501.191 34.1902 523.238 33.4219 524.025 33.4219C524.025 33.4219 524.025 33.4219 524.419 33.4219C525.6 33.4219 526.781 34.1902 527.175 34.9586C527.962 36.4952 526.781 38.416 525.6 39.9527C522.057 44.1785 483.868 91.8151 482.687 93.3518C482.293 94.1201 475.994 102.188 463.789 102.188H369.301C365.364 105.261 341.349 125.622 324.814 134.458L322.451 135.61C305.522 144.446 289.774 152.897 265.365 153.282C264.184 153.666 260.641 153.666 256.704 153.666ZM62.2163 116.018C59.4605 120.243 55.9171 122.164 55.5234 122.164C55.5234 122.164 51.1928 124.469 45.681 126.006C39.3818 127.927 39.3818 131 39.3818 131C39.3818 132.537 40.1692 134.458 45.681 136.378C52.3739 138.683 74.0273 143.678 87.0194 145.214C99.6177 147.135 127.177 147.519 127.57 147.519C128.358 147.519 220.483 149.824 256.704 149.824C261.034 149.824 264.184 149.824 266.546 149.824C289.774 149.056 305.522 140.988 322.058 132.537L324.42 131.384C341.743 122.548 368.514 99.4984 368.908 99.1143C369.302 98.7301 369.695 98.7301 370.089 98.7301H464.97C475.6 98.7301 481.112 91.8151 481.112 91.4309C482.687 89.5101 520.482 42.2577 524.025 38.0319C524.419 37.6477 524.813 37.2635 524.813 36.8794C521.269 36.8794 502.372 37.6477 498.828 37.6477C497.254 37.6477 494.104 39.9527 492.529 41.4894L442.136 83.3635C441.742 83.7476 441.348 83.7476 440.955 83.7476L293.711 81.4426C293.318 81.4426 285.837 81.4426 277.176 80.2901C266.94 78.7535 262.609 74.1435 262.215 71.0701C261.822 67.9968 262.215 66.4602 266.152 63.3868C266.94 63.0027 267.727 61.8502 267.333 61.0818C266.94 59.9293 265.365 58.3927 263.003 57.6243C261.822 57.2402 261.034 57.2402 259.853 57.2402C256.31 57.2402 253.554 58.7768 253.554 58.7768C253.16 58.7768 252.767 59.161 252.767 59.161L240.168 58.3927C239.775 58.3927 238.987 58.0085 238.987 57.6243L238.2 55.7035C235.05 55.7035 224.027 55.3193 217.334 55.3193C212.216 55.3193 210.641 56.4718 210.641 57.2402C210.641 58.0085 209.853 58.3927 209.066 58.3927C208.672 58.3927 185.444 61.0818 179.145 62.2343C174.027 63.771 175.602 73.7593 175.602 73.7593C175.602 74.1435 175.602 74.5276 175.208 74.9118C174.814 75.296 174.421 75.296 174.027 75.6801C173.633 75.6801 152.373 76.4485 143.318 76.8326C135.838 77.2168 135.051 79.906 135.051 80.2901C135.051 81.0585 134.263 81.4426 133.476 81.4426C133.476 81.4426 129.933 81.4426 127.964 83.3635C127.177 84.1318 126.783 85.2843 126.783 86.8209C126.783 91.8151 133.082 92.1993 133.476 92.1993C134.263 92.1993 135.051 92.9676 135.051 93.7359V96.0409C135.051 96.8093 134.263 97.5776 133.476 97.5776C133.476 97.5776 122.452 97.9618 117.334 98.3459C100.405 99.4984 83.4761 104.108 73.2399 107.95C66.1533 110.639 65.3659 112.176 63.3974 114.865C62.61 115.249 62.61 115.633 62.2163 116.018Z" fill="black"/>
<path d="M423.996 91.0512C423.996 106.034 411.398 118.327 396.044 118.327C380.689 118.327 368.091 106.034 368.091 91.0512C368.091 76.0687 380.689 63.7754 396.044 63.7754C411.792 64.1596 423.996 76.4529 423.996 91.0512Z" fill="white"/>
<path d="M396.448 119.861C380.306 119.861 367.314 107.183 367.314 91.4323C367.314 75.6815 380.306 63.0041 396.448 63.0041C412.59 63.0041 425.582 75.6815 425.582 91.4323C425.582 106.799 412.196 119.861 396.448 119.861ZM396.448 65.6932C381.881 65.6932 370.07 77.2182 370.07 91.4323C370.07 105.646 381.881 117.171 396.448 117.171C411.015 117.171 422.826 105.646 422.826 91.4323C422.826 77.2182 410.621 65.6932 396.448 65.6932Z" fill="black"/>
<path d="M196.426 87.5896H192.095V91.8154H196.426V87.5896Z" fill="black"/>
<path d="M198.777 92.9572L189.722 92.9838L189.738 98.3621L198.793 98.3356L198.777 92.9572Z" fill="black"/>
<path d="M351.154 93.7429L36.9821 94.5112V91.4379L351.154 90.6696V93.7429Z" fill="black"/>
<path d="M105.526 139.451C105.526 139.451 105.133 135.994 108.282 132.92C111.432 129.847 111.826 129.079 113.4 126.005C114.975 123.316 118.125 121.011 123.243 119.474C128.361 117.938 133.085 117.169 138.597 116.785C144.109 116.401 147.258 116.401 147.258 116.401V115.249C147.258 115.249 143.321 115.249 142.928 112.559C142.534 109.87 144.896 109.102 147.258 108.718C149.621 108.718 151.195 106.029 157.888 105.26C164.581 104.492 170.487 104.492 170.487 104.492C170.487 104.492 168.518 98.3454 177.18 97.9612C185.841 97.9612 218.124 97.9612 218.124 97.9612C218.124 97.9612 225.211 97.577 228.36 101.803C231.51 106.029 232.297 106.413 232.297 106.413L338.202 107.95H372.848L396.47 86.4362H401.982L389.383 109.87C389.383 109.87 385.053 117.169 374.423 117.554C364.187 117.938 268.911 124.853 268.911 124.853C268.911 124.853 266.943 136.378 254.345 143.677C241.746 150.976 227.179 149.824 227.179 149.824H142.928C142.928 149.824 125.999 149.824 117.731 148.287C111.038 147.134 105.526 145.214 105.526 139.451Z" fill="white"/>
<path d="M141.742 151.359C140.955 151.359 124.813 151.359 116.152 149.822C112.608 149.054 103.947 147.517 103.947 139.45C103.947 138.681 103.553 134.84 107.096 131.766C110.246 128.693 110.64 127.925 111.821 125.235C113.396 122.162 116.939 119.473 122.451 117.936C127.175 116.4 132.293 115.631 138.199 115.247C139.773 115.247 140.955 114.863 142.136 114.863C141.742 114.095 141.348 113.326 140.955 112.558C140.561 110.637 141.348 109.485 141.742 109.1C142.923 107.948 144.498 107.18 146.466 107.18C146.86 107.18 147.647 106.795 148.435 106.411C150.01 105.643 152.372 104.106 157.096 103.722C161.427 103.338 165.758 102.954 167.726 102.954C167.726 101.801 168.12 100.649 168.907 99.4963C170.482 97.5755 172.844 96.8071 176.387 96.423C178.75 96.423 183.868 96.423 190.561 96.423C202.372 96.423 216.151 96.423 216.938 96.423C216.938 96.423 216.938 96.423 217.332 96.423C219.301 96.423 225.6 96.8071 228.749 101.033C230.324 103.338 231.505 104.49 231.899 104.875L337.017 106.411H370.875L393.709 85.2821C394.103 84.898 394.497 84.898 394.89 84.898H400.402C400.796 84.898 401.583 85.2821 401.977 85.6663C402.371 86.0505 402.371 86.8188 401.977 87.203L389.379 110.637C388.985 111.021 384.26 118.705 373.237 119.089C363.788 119.473 280.324 125.62 268.907 126.388C268.119 129.845 264.576 138.681 253.552 144.828C243.316 150.59 231.505 151.359 227.175 151.359C226.387 151.359 225.6 151.359 225.6 151.359H141.742ZM190.954 99.8805C183.868 99.8805 179.143 99.8805 176.781 99.8805C175.206 99.8805 173.238 100.265 172.057 101.417C171.269 102.57 171.663 104.106 171.663 104.106C171.663 104.49 171.663 105.259 171.269 105.643C170.876 106.027 170.482 106.411 170.088 106.411C170.088 106.411 164.183 106.411 157.884 107.18C153.947 107.564 151.978 108.716 150.797 109.485C149.616 110.253 148.829 110.637 147.254 110.637C146.073 110.637 144.892 111.021 144.892 111.405C144.892 111.405 144.498 111.79 144.498 112.558C144.498 114.095 147.254 114.095 147.254 114.095C148.041 114.095 148.829 114.863 148.829 115.631V116.784C148.829 117.552 148.041 118.32 147.254 118.32C147.254 118.32 144.104 118.32 138.986 118.705C133.081 119.089 128.75 119.857 124.025 121.394C119.301 122.93 116.545 124.851 115.364 127.156C113.789 130.23 113.396 130.998 109.852 134.455C107.096 137.145 107.49 139.45 107.49 139.834C107.49 139.834 107.49 139.834 107.49 140.218C107.49 143.675 110.64 145.98 117.333 147.133C125.6 148.67 142.136 148.67 142.136 148.67H226.387C226.387 148.67 226.781 148.67 227.962 148.67C232.293 148.67 242.923 147.901 252.765 142.523C264.576 135.992 266.545 125.235 266.545 124.851C266.545 124.083 267.332 123.699 268.119 123.699C268.907 123.699 363.395 116.784 373.631 116.4C382.686 116.015 386.623 109.869 387.016 109.485L398.434 88.7396H396.465L373.631 109.869C373.237 110.253 372.843 110.253 372.45 110.253H337.804L231.899 108.716C231.505 108.716 231.505 108.716 231.112 108.716C230.718 108.716 229.931 108.332 226.781 103.722C224.419 100.649 218.907 100.265 218.12 100.265C217.332 99.8805 203.159 99.8805 190.954 99.8805Z" fill="black"/>
<path d="M235.442 101.038C235.442 101.038 230.718 99.1173 228.749 99.1173C226.781 99.5015 225.206 101.422 225.206 101.422C225.206 101.422 224.025 103.727 226.781 104.111C229.537 104.111 232.293 104.111 232.293 104.111L235.442 103.343V101.038Z" fill="black"/>
<path d="M238.979 101.038C238.979 101.038 243.703 98.7326 245.672 99.1167C247.64 99.1167 249.215 101.422 249.215 101.422C249.215 101.422 250.396 103.727 247.64 104.111C244.885 104.111 242.129 104.111 242.129 104.111L238.979 103.343V101.038Z" fill="black"/>
<path d="M235.035 80.6758C235.035 80.6758 230.311 78.7549 228.342 78.7549C226.374 79.1391 224.799 81.06 224.799 81.06C224.799 81.06 223.618 83.7491 226.374 83.7491C229.13 83.7491 231.886 83.7491 231.886 83.7491L235.035 82.9808V80.6758Z" fill="black"/>
<path d="M238.572 80.6752C238.572 80.6752 243.296 78.3702 245.265 78.7544C247.233 78.7544 248.808 81.0594 248.808 81.0594C248.808 81.0594 249.989 83.3643 247.233 83.7485C244.478 84.1327 241.722 83.7485 241.722 83.7485L238.572 82.9802V80.6752Z" fill="black"/>
<path d="M233.48 97.9628H240.567L239.385 107.567H235.448L233.48 97.9628Z" fill="black"/>
<path d="M233.48 90.2815H240.567L238.992 99.8857H235.448L233.48 90.2815Z" fill="black"/>
<path d="M240.567 87.9755H233.48L234.661 78.3714H238.598L240.567 87.9755Z" fill="black"/>
<path d="M238.577 90.6686H235.033V87.5899H238.577V90.6686Z" fill="black"/>
<path d="M329.138 80.297L144.887 81.4515V82.6059L329.138 81.8363V80.297Z" fill="black"/>
<path d="M329.138 100.271L144.887 101.426V102.965L329.138 101.811V100.271Z" fill="black"/>
<path d="M172.851 137.919C172.851 137.919 172.457 125.241 186.63 118.711C190.567 116.406 198.441 117.174 200.41 116.79C200.41 111.027 201.985 110.259 209.071 109.106C217.339 107.954 225.213 107.186 236.63 107.186C248.047 107.186 266.551 106.801 277.575 110.643C288.598 114.485 290.173 120.247 290.173 120.247L314.976 120.631L315.764 113.716L317.338 113.332C317.338 113.332 317.732 108.338 322.85 108.722C327.968 108.722 336.236 110.643 336.236 110.643C336.236 110.643 338.992 110.643 339.385 114.485C339.779 118.326 340.567 128.699 340.567 128.699C340.567 128.699 341.748 132.541 336.63 134.077C331.511 135.614 324.819 137.919 324.819 137.919C324.819 137.919 320.094 139.071 318.126 136.382C316.157 134.077 316.157 131.772 316.157 131.772L289.779 141.376C289.779 141.376 288.992 143.297 288.205 146.37C287.023 149.444 279.937 150.212 279.937 150.212L267.732 151.365L212.614 150.98C212.614 150.98 201.985 152.133 197.26 150.212C192.536 148.291 181.512 150.596 175.607 144.45C172.851 142.145 172.851 137.919 172.851 137.919Z" fill="url(#paint2_linear)"/>
<path d="M267.332 153.285L212.214 152.9C211.821 152.9 208.671 153.285 205.521 153.285C201.584 153.285 198.435 152.9 196.466 152.132C194.892 151.364 192.923 151.364 190.167 151.364C185.049 150.98 178.356 150.595 174.419 145.985C171.663 142.912 171.663 138.302 171.663 138.302C171.663 137.918 171.27 124.472 186.23 117.557C189.773 115.636 195.285 115.636 198.435 115.636H198.829C199.222 110.258 201.978 109.105 208.671 107.953C218.12 106.416 226.387 106.032 236.624 106.032C237.411 106.032 238.592 106.032 239.38 106.032C240.561 106.032 241.742 106.032 242.923 106.032C255.915 106.032 269.301 106.416 277.962 109.49C286.623 112.563 290.167 116.789 291.348 119.094L313.395 119.478L314.182 114.1C314.182 113.331 314.97 112.947 315.757 112.563H316.151C316.938 110.258 318.513 107.569 322.844 107.569H323.237C328.355 107.569 335.836 109.105 336.623 109.49C338.198 109.49 340.56 111.026 340.954 114.868C341.348 118.325 341.741 127.545 342.135 129.082C342.529 130.619 342.529 134.845 337.411 136.381C332.293 137.918 325.6 140.223 325.6 140.223C325.6 140.223 324.419 140.607 322.844 140.607C320.482 140.607 318.119 139.839 316.938 138.302C315.757 137.15 314.97 135.613 314.97 134.845L290.954 143.68C290.56 144.449 290.167 145.985 289.379 147.906C288.198 151.748 281.112 152.9 279.931 152.9L267.332 153.285C267.726 153.285 267.726 153.285 267.332 153.285ZM243.317 108.721C242.135 108.721 240.954 108.721 239.773 108.721C238.592 108.721 237.805 108.721 237.017 108.721C226.781 108.721 218.907 109.49 209.458 110.642C202.372 111.795 201.978 112.179 202.372 116.405C202.372 117.173 201.584 117.941 200.797 117.941C200.403 117.941 199.616 117.941 198.435 117.941C195.285 117.941 190.561 117.941 187.805 119.478C174.419 125.625 174.813 137.15 174.813 137.15C174.813 137.15 174.813 140.607 176.781 142.912C180.325 146.37 185.837 146.754 190.561 147.138C193.317 147.138 196.073 147.522 198.041 148.29C199.616 149.059 202.372 149.443 205.915 149.443C209.458 149.443 212.608 149.059 212.608 149.059C212.608 149.059 212.608 149.059 213.002 149.059L268.12 149.443L279.931 148.29C283.08 147.906 286.23 146.754 286.623 145.601C287.804 142.528 288.198 140.607 288.592 140.607C288.592 140.223 288.986 139.839 289.379 139.839L315.757 130.235C316.151 130.235 316.938 130.235 317.332 130.619C317.726 131.003 318.119 131.387 318.119 131.771C318.119 131.771 318.119 133.308 319.694 135.613C320.482 136.381 322.056 136.765 322.844 136.765C323.631 136.765 324.419 136.765 324.419 136.765C325.206 136.381 331.505 134.46 336.229 132.924C339.379 131.771 338.985 129.85 338.985 129.466V129.082C338.985 129.082 338.198 118.71 337.804 114.868C337.411 112.563 336.229 112.563 336.229 112.563C336.229 112.563 336.229 112.563 335.836 112.563C335.836 112.563 327.962 111.026 322.844 110.642C319.3 110.642 319.3 113.331 319.3 113.715C319.3 114.484 318.513 115.252 317.726 115.252H317.332L316.545 121.015C316.545 121.783 315.757 122.551 314.97 122.551L290.167 122.167C289.379 122.167 288.986 121.783 288.592 121.015C288.592 121.015 286.623 116.02 276.781 112.563C268.907 109.105 255.127 108.721 243.317 108.721Z" fill="black"/>
<path d="M0.00354004 252.785V188.245H28.3499C38.9798 188.245 42.5231 197.465 42.5231 210.526C42.5231 222.051 38.1924 232.04 28.3499 232.04H14.1767V252.4H0.00354004V252.785ZM13.783 200.538V220.899H23.6255C25.9877 220.899 27.5625 218.21 27.5625 210.91C27.5625 203.611 26.3814 200.538 23.6255 200.538H13.783Z" fill="url(#paint3_linear)"/>
<path d="M79.9265 252.783C78.7454 248.942 77.1706 243.563 75.9895 238.569H59.0604C58.273 242.411 57.4857 246.252 55.9109 252.783H41.344C45.281 235.112 52.7613 207.067 58.273 188.628H77.958C82.6824 208.988 89.3752 235.88 94.887 252.783H79.9265ZM72.8399 226.276C71.2651 218.592 69.6903 209.757 68.5092 201.689H67.3281C65.3596 208.988 63.7848 218.208 61.8163 226.276H72.8399Z" fill="url(#paint4_linear)"/>
<path d="M110.23 252.785H96.4503V188.245H112.986C118.891 201.69 124.403 214.752 128.734 226.661V188.245H142.513V252.4H126.765C121.253 237.418 116.529 226.277 110.23 211.679V252.785Z" fill="url(#paint5_linear)"/>
<path d="M181.095 252.785V225.509H166.134V252.785H152.355V188.245H166.134V212.063H181.095V188.245H194.874V252.4H181.095V252.785Z" fill="url(#paint6_linear)"/>
<path d="M258.687 252.786V220.9H235.852V252.786H229.947V188.246H235.852V215.522H258.687V188.246H264.592V252.786H258.687Z" fill="url(#paint7_linear)"/>
<path d="M303.177 229.735H279.949C279.949 245.101 283.099 248.943 290.185 248.943C293.335 248.943 296.485 248.175 300.028 246.638L301.996 252.016C298.059 253.169 294.122 253.937 290.185 253.937C279.949 253.937 274.437 248.175 274.437 228.966C274.437 210.526 279.555 204.38 289.792 204.38C298.847 204.764 303.177 210.142 303.177 229.735ZM279.555 224.74H296.878C296.878 212.831 294.91 209.758 289.004 209.758C282.705 209.758 280.343 213.215 279.555 224.74Z" fill="url(#paint8_linear)"/>
<path d="M314.989 240.873C314.989 245.867 315.777 248.172 318.139 251.245L313.808 255.087C310.659 250.861 309.478 247.404 309.478 241.257V185.937H314.989V240.873Z" fill="url(#paint9_linear)"/>
<path d="M329.543 191.32C329.543 194.394 328.755 195.162 326.393 195.162C324.031 195.162 323.243 194.778 323.243 191.32C323.243 188.631 324.031 187.863 326.393 187.863C328.755 187.863 329.543 188.247 329.543 191.32ZM323.637 252.787V205.919H329.149V252.787H323.637Z" fill="url(#paint10_linear)"/>
<path d="M363.414 251.632C360.658 253.169 355.934 253.937 353.178 253.937C342.548 253.937 336.642 248.175 336.642 228.966C336.642 209.758 342.548 204.38 353.178 204.38C355.934 204.38 360.658 205.148 363.414 206.3L361.445 212.063C358.296 210.142 355.934 209.758 353.178 209.758C346.091 209.758 342.941 212.831 342.941 228.966C342.941 244.333 346.091 248.559 353.178 248.559C355.54 248.559 358.296 247.79 361.445 245.87L363.414 251.632Z" fill="url(#paint11_linear)"/>
<path d="M366.547 228.966C366.547 209.758 371.665 204.38 381.902 204.38C392.532 204.38 397.256 209.758 397.256 228.966C397.256 248.175 392.532 253.937 381.902 253.937C371.272 253.937 366.547 248.175 366.547 228.966ZM372.453 229.35C372.453 244.717 374.815 248.943 381.902 248.943C388.988 248.943 391.744 244.717 391.744 229.35C391.744 212.831 389.382 209.758 381.902 209.758C374.421 209.758 372.453 212.831 372.453 229.35Z" fill="url(#paint12_linear)"/>
<path d="M410.249 250.862V270.455H404.738V208.604C408.675 206.299 414.58 204.763 418.517 204.763C429.147 204.763 433.871 210.141 433.871 229.349C433.871 248.557 429.147 254.32 418.517 254.32C414.58 253.936 411.824 252.399 410.249 250.862ZM410.249 211.678V242.027C410.249 246.637 414.186 248.557 418.517 248.557C425.604 248.557 428.36 244.716 428.36 228.965C428.36 212.446 425.997 209.757 418.517 209.757C415.761 209.757 412.612 210.525 410.249 211.678Z" fill="url(#paint13_linear)"/>
<path d="M448.444 237.033C448.444 245.101 449.625 248.558 453.956 248.558C456.318 248.558 458.287 248.174 460.649 247.022L462.224 252.4C460.255 253.168 456.712 253.937 454.35 253.937C446.476 253.937 443.326 250.863 443.326 237.033V210.91H437.814V205.916H443.326V196.312L448.838 194.007V206.3H461.043V210.91H448.838V237.033H448.444Z" fill="url(#paint14_linear)"/>
<path d="M494.906 229.735H471.678C471.678 245.101 474.827 248.943 481.914 248.943C485.063 248.943 488.213 248.175 491.756 246.638L493.725 252.016C489.788 253.169 485.851 253.937 481.914 253.937C471.678 253.937 466.166 248.175 466.166 228.966C466.166 210.526 471.284 204.38 481.52 204.38C490.969 204.764 494.906 210.142 494.906 229.735ZM471.678 224.74H489C489 212.831 487.032 209.758 481.126 209.758C474.434 209.758 472.071 213.215 471.678 224.74Z" fill="url(#paint15_linear)"/>
<path d="M519.316 205.147V210.909C518.135 210.909 516.56 210.525 515.379 210.525C510.655 210.525 506.718 212.446 506.718 217.056V252.783H501.206V205.915H506.718V208.604C508.686 206.683 511.442 204.763 515.379 204.763C516.56 204.763 518.135 204.763 519.316 205.147Z" fill="url(#paint16_linear)"/>
<path d="M535.85 209.757C530.732 209.757 527.976 210.909 527.976 218.592C527.976 223.587 529.944 225.507 535.456 226.276C544.118 227.044 548.055 230.886 548.055 239.337C548.055 250.478 543.724 253.936 534.669 253.936C531.519 253.936 526.401 253.167 522.07 251.631L524.039 246.252C527.582 248.173 531.519 249.326 534.669 249.326C539.393 249.326 542.149 247.789 542.149 240.106C542.149 234.727 540.574 232.422 534.669 231.654C527.189 230.502 522.07 227.812 522.07 219.361C522.07 208.22 526.795 204.763 535.456 204.763C539 204.763 542.936 205.147 546.873 207.068L544.905 212.062C541.755 210.141 538.999 209.757 535.85 209.757Z" fill="url(#paint17_linear)"/>
<defs>
<linearGradient id="paint0_linear" x1="456.171" y1="0.77139" x2="552.834" y2="4.50957" gradientUnits="userSpaceOnUse">
<stop stop-color="#FAD162"/>
<stop offset="0.0666667" stop-color="#FAD161"/>
<stop offset="0.133333" stop-color="#FACF5F"/>
<stop offset="0.2" stop-color="#F9CD5B"/>
<stop offset="0.266667" stop-color="#F8CA56"/>
<stop offset="0.333333" stop-color="#F7C64F"/>
<stop offset="0.4" stop-color="#F6C247"/>
<stop offset="0.466667" stop-color="#F4BC3E"/>
<stop offset="0.533333" stop-color="#F3B735"/>
<stop offset="0.6" stop-color="#F1B22C"/>
<stop offset="0.666667" stop-color="#F0AD24"/>
<stop offset="0.733333" stop-color="#EFA91E"/>
<stop offset="0.8" stop-color="#EEA618"/>
<stop offset="0.866667" stop-color="#EDA415"/>
<stop offset="0.933333" stop-color="#EDA312"/>
<stop offset="1" stop-color="#EDA212"/>
</linearGradient>
<linearGradient id="paint1_linear" x1="-181.868" y1="69.0475" x2="468.898" y2="96.1136" gradientUnits="userSpaceOnUse">
<stop stop-color="#FAD162"/>
<stop offset="0.0666667" stop-color="#FAD161"/>
<stop offset="0.133333" stop-color="#FACF5F"/>
<stop offset="0.2" stop-color="#F9CD5B"/>
<stop offset="0.266667" stop-color="#F8CA56"/>
<stop offset="0.333333" stop-color="#F7C64F"/>
<stop offset="0.4" stop-color="#F6C247"/>
<stop offset="0.466667" stop-color="#F4BC3E"/>
<stop offset="0.533333" stop-color="#F3B735"/>
<stop offset="0.6" stop-color="#F1B22C"/>
<stop offset="0.666667" stop-color="#F0AD24"/>
<stop offset="0.733333" stop-color="#EFA91E"/>
<stop offset="0.8" stop-color="#EEA618"/>
<stop offset="0.866667" stop-color="#EDA415"/>
<stop offset="0.933333" stop-color="#EDA312"/>
<stop offset="1" stop-color="#EDA212"/>
</linearGradient>
<linearGradient id="paint2_linear" x1="174.403" y1="127.044" x2="367.728" y2="149.138" gradientUnits="userSpaceOnUse">
<stop stop-color="#528CAE"/>
<stop offset="1" stop-color="#2A5A78"/>
</linearGradient>
<linearGradient id="paint3_linear" x1="0.513774" y1="192.762" x2="44.7244" y2="193.839" gradientUnits="userSpaceOnUse">
<stop stop-color="#FAD060"/>
<stop offset="1" stop-color="#F8B80C"/>
</linearGradient>
<linearGradient id="paint4_linear" x1="41.9865" y1="193.118" x2="97.6391" y2="194.836" gradientUnits="userSpaceOnUse">
<stop stop-color="#FAD060"/>
<stop offset="1" stop-color="#F8B80C"/>
</linearGradient>
<linearGradient id="paint5_linear" x1="97.0031" y1="192.762" x2="144.893" y2="194.026" gradientUnits="userSpaceOnUse">
<stop stop-color="#FAD060"/>
<stop offset="1" stop-color="#F8B80C"/>
</linearGradient>
<linearGradient id="paint6_linear" x1="152.865" y1="192.762" x2="197.076" y2="193.839" gradientUnits="userSpaceOnUse">
<stop stop-color="#FAD060"/>
<stop offset="1" stop-color="#F8B80C"/>
</linearGradient>
<linearGradient id="paint7_linear" x1="230.363" y1="192.764" x2="266.393" y2="193.479" gradientUnits="userSpaceOnUse">
<stop stop-color="#FAD060"/>
<stop offset="1" stop-color="#F8B80C"/>
</linearGradient>
<linearGradient id="paint8_linear" x1="274.782" y1="207.849" x2="304.669" y2="208.49" gradientUnits="userSpaceOnUse">
<stop stop-color="#FAD060"/>
<stop offset="1" stop-color="#F8B80C"/>
</linearGradient>
<linearGradient id="paint9_linear" x1="309.582" y1="190.778" x2="318.593" y2="190.819" gradientUnits="userSpaceOnUse">
<stop stop-color="#FAD060"/>
<stop offset="1" stop-color="#F8B80C"/>
</linearGradient>
<linearGradient id="paint10_linear" x1="323.319" y1="192.408" x2="329.872" y2="192.431" gradientUnits="userSpaceOnUse">
<stop stop-color="#FAD060"/>
<stop offset="1" stop-color="#F8B80C"/>
</linearGradient>
<linearGradient id="paint11_linear" x1="336.964" y1="207.849" x2="364.805" y2="208.405" gradientUnits="userSpaceOnUse">
<stop stop-color="#FAD060"/>
<stop offset="1" stop-color="#F8B80C"/>
</linearGradient>
<linearGradient id="paint12_linear" x1="366.916" y1="207.849" x2="398.848" y2="208.58" gradientUnits="userSpaceOnUse">
<stop stop-color="#FAD060"/>
<stop offset="1" stop-color="#F8B80C"/>
</linearGradient>
<linearGradient id="paint13_linear" x1="405.087" y1="209.361" x2="435.39" y2="209.858" gradientUnits="userSpaceOnUse">
<stop stop-color="#FAD060"/>
<stop offset="1" stop-color="#F8B80C"/>
</linearGradient>
<linearGradient id="paint14_linear" x1="438.107" y1="198.202" x2="463.497" y2="198.584" gradientUnits="userSpaceOnUse">
<stop stop-color="#FAD060"/>
<stop offset="1" stop-color="#F8B80C"/>
</linearGradient>
<linearGradient id="paint15_linear" x1="466.511" y1="207.849" x2="496.398" y2="208.49" gradientUnits="userSpaceOnUse">
<stop stop-color="#FAD060"/>
<stop offset="1" stop-color="#F8B80C"/>
</linearGradient>
<linearGradient id="paint16_linear" x1="501.423" y1="208.124" x2="520.261" y2="208.387" gradientUnits="userSpaceOnUse">
<stop stop-color="#FAD060"/>
<stop offset="1" stop-color="#F8B80C"/>
</linearGradient>
<linearGradient id="paint17_linear" x1="522.382" y1="208.205" x2="549.406" y2="208.733" gradientUnits="userSpaceOnUse">
<stop stop-color="#FAD060"/>
<stop offset="1" stop-color="#F8B80C"/>
</linearGradient>
</defs>
</svg>
