<svg width="166" height="24" viewBox="0 0 166 24" fill="none" xmlns="http://www.w3.org/2000/svg">
<path d="M40.9368 13.6114C40.9368 16.1528 40.1245 18.2571 38.4958 19.9157C36.867 21.5743 34.7509 22.4057 32.1518 22.4057C29.5697 22.4057 27.4707 21.5743 25.8548 19.9157C24.2431 18.2571 23.4352 16.1528 23.4352 13.6114V9.88284C23.4352 7.34999 24.2389 5.24999 25.8462 3.58713C27.4536 1.92428 29.5526 1.08856 32.1347 1.08856C34.7381 1.08856 36.8542 1.91999 38.4872 3.58713C40.1202 5.25427 40.9368 7.34999 40.9368 9.88284V13.6114ZM36.7302 9.8657C36.7302 8.24999 36.3198 6.9257 35.5076 5.88856C34.6953 4.85141 33.5668 4.33284 32.1347 4.33284C30.7026 4.33284 29.5953 4.84713 28.8088 5.87999C28.0222 6.91284 27.6289 8.24142 27.6289 9.8657V13.6286C27.6289 15.2743 28.0264 16.6114 28.8259 17.6486C29.621 18.6857 30.7325 19.2043 32.1518 19.2043C33.5924 19.2043 34.7167 18.6857 35.5247 17.6486C36.3326 16.6114 36.7345 15.2743 36.7345 13.6286V9.8657H36.7302Z" fill="#191919"/>
<path d="M48.3111 13.8257V22.1057H44.1046V1.38861H52.0132C54.4029 1.38861 56.2753 1.92861 57.6262 3.00433C58.9771 4.08004 59.6483 5.58432 59.6483 7.5086C59.6483 8.58003 59.3661 9.50146 58.7975 10.2686C58.229 11.0357 57.3997 11.6572 56.3053 12.1329C57.545 12.4929 58.4342 13.0972 58.9771 13.9415C59.52 14.7857 59.7893 15.8315 59.7893 17.07V18.5915C59.7893 19.17 59.8706 19.7743 60.0287 20.4043C60.1869 21.0343 60.4562 21.5015 60.841 21.8057V22.1057H56.5062C56.1214 21.8015 55.8735 21.2957 55.7581 20.5843C55.6426 19.8729 55.5871 19.2 55.5871 18.5657V17.1C55.5871 16.0672 55.3007 15.2615 54.7321 14.6872C54.1592 14.1129 53.3556 13.8257 52.321 13.8257H48.3111ZM48.3111 10.6243H51.9406C53.1204 10.6243 54.0011 10.3757 54.5825 9.88289C55.1639 9.39003 55.4546 8.65717 55.4546 7.69289C55.4546 6.74575 55.1639 5.99146 54.5825 5.43003C54.0011 4.8686 53.1461 4.59003 52.009 4.59003H48.3069V10.6243H48.3111Z" fill="#191919"/>
<path d="M74.5633 17.64H67.2019L65.7741 22.11H61.5248L68.7409 1.39282H73.05L80.2404 22.11H75.9912L74.5633 17.64ZM68.2407 14.3828H73.5288L70.9339 6.24425H70.8484L68.2407 14.3828Z" fill="#191919"/>
<path d="M98.8621 22.1057H94.6684L86.1997 7.94575L86.1142 7.9586V22.1015H81.9077V1.38861H86.1142L94.5829 15.5315L94.6684 15.5186V1.38861H98.8621V22.1057Z" fill="#191919"/>
<path d="M118.779 19.2771C118.155 20.0914 117.18 20.82 115.864 21.4543C114.543 22.0885 112.875 22.4057 110.858 22.4057C108.293 22.4057 106.198 21.6171 104.578 20.0443C102.953 18.4714 102.141 16.4271 102.141 13.9114V9.58711C102.141 7.08425 102.923 5.03997 104.484 3.46283C106.044 1.88141 108.053 1.09283 110.511 1.09283C113.068 1.09283 115.021 1.70569 116.381 2.93569C117.74 4.16569 118.433 5.7814 118.463 7.78283L118.433 7.86854H114.47C114.393 6.76711 114.038 5.89711 113.405 5.25854C112.773 4.61997 111.845 4.29854 110.627 4.29854C109.34 4.29854 108.301 4.78711 107.515 5.76854C106.728 6.74997 106.335 8.00997 106.335 9.55711V13.9071C106.335 15.48 106.741 16.7571 107.557 17.7385C108.374 18.72 109.473 19.2085 110.858 19.2085C111.837 19.2085 112.623 19.11 113.222 18.9085C113.816 18.7114 114.269 18.4628 114.577 18.1714V14.34H110.862V11.4643H118.783V19.2771H118.779Z" fill="#191919"/>
<path d="M135.173 12.9986H126.487V18.9043H136.644V22.1057H122.28V1.38861H136.614V4.59003H126.487V9.79717H135.173V12.9986Z" fill="#191919"/>
<path d="M149.4 9.89143V1.36285H152.089C153.235 1.36285 154.158 1.70571 154.851 2.39143C155.543 3.07714 155.894 3.96428 155.894 5.04857V6.21429C155.894 7.30286 155.548 8.19 154.851 8.87143C154.158 9.55286 153.235 9.89571 152.089 9.89571H149.4V9.89143ZM150.589 2.27143V8.98714H152.094C152.906 8.98714 153.543 8.72572 154.009 8.20714C154.475 7.68857 154.71 7.02429 154.71 6.21V5.03143C154.71 4.22571 154.475 3.56571 154.009 3.04714C153.543 2.52857 152.902 2.26714 152.094 2.26714H150.589V2.27143Z" fill="#191919"/>
<path d="M158.865 1.36285L161.657 8.29286H161.691L164.482 1.36285H166V9.89571H164.816V6.51857L164.935 3.05143L164.906 3.04714L162.063 9.89571H161.276L158.446 3.06428L158.416 3.06857L158.532 6.51857V9.89571H157.347V1.36285H158.865Z" fill="#191919"/>
<path d="M18.6857 21.7543V0.857117L5.5104 5.4214L18.6857 21.7543Z" fill="#EB6309"/>
<path d="M16.7706 22.7143L5.27099 10.2257L0 20.0743L16.7706 22.7143Z" fill="#EB6309"/>
<path d="M143.638 0H142.783V24H143.638V0Z" fill="#191919"/>
</svg>
