<svg width="81" height="81" viewBox="0 0 81 81" fill="none" xmlns="http://www.w3.org/2000/svg">
<path d="M68.8331 48.7515C68.8048 48.4491 68.8375 48.1519 68.9311 47.8599C69.0246 47.5679 69.1707 47.3071 69.3694 47.0774C69.5699 46.8484 69.7979 46.6682 70.0533 46.5367C70.3087 46.4052 70.5879 46.3244 70.8908 46.2943C71.195 46.2667 71.4931 46.2996 71.7851 46.3932C72.1739 46.5177 72.5028 46.7298 72.7719 47.0293C73.0429 47.3294 73.222 47.676 73.3094 48.069C73.3962 48.4639 73.3773 48.8558 73.2528 49.2445C73.1592 49.5365 73.0122 49.797 72.8116 50.0261C72.6124 50.2576 72.385 50.439 72.1296 50.5705C71.8742 50.702 71.5953 50.7818 71.293 50.8101C70.9901 50.8402 70.6926 50.8085 70.4006 50.7149C70.1086 50.6214 69.8471 50.474 69.6162 50.2729C69.3866 50.0742 69.206 49.8472 69.0746 49.5917C68.9431 49.3363 68.8626 49.0562 68.8331 48.7515Z" fill="#FAC6A3"/>
<path d="M64.8082 54.2741L66.1697 58.6647L66.2024 58.6926L70.6984 59.3115L69.4622 60.7632L66.2702 60.2036L66.2423 60.2363L67.2926 63.3107L66.119 64.6888L64.8267 60.2583L64.7981 60.2339L60.2392 59.6391L61.4372 58.2325L64.6027 58.6989L64.6305 58.6662L63.6729 55.6072L64.8082 54.2741Z" fill="#FAC6A3"/>
<path d="M57.5554 62.8704C57.6444 62.1388 58.0388 61.5086 58.7387 60.9797C59.4386 60.4508 60.1537 60.2448 60.8838 60.3617C61.614 60.4787 62.2619 60.9114 62.8275 61.6598C63.3867 62.3997 63.6214 63.1379 63.5317 63.8745C63.4413 64.616 63.0504 65.248 62.3591 65.7705C61.6649 66.2951 60.9502 66.4985 60.215 66.3809C59.482 66.2661 58.8359 65.8388 58.2768 65.0989C57.709 64.3476 57.4685 63.6047 57.5554 62.8704ZM59.4608 61.9353C59.1523 62.1684 59.0031 62.4787 59.0131 62.8661C59.0231 63.2535 59.2008 63.6758 59.5462 64.1328C59.8873 64.5842 60.2439 64.869 60.616 64.9872C60.9881 65.1055 61.3285 65.048 61.637 64.8149C61.9455 64.5817 62.0951 64.2689 62.0858 63.8765C62.0736 63.4863 61.897 63.0654 61.5559 62.6141C61.2105 62.157 60.8528 61.8708 60.4829 61.7554C60.1129 61.64 59.7722 61.7 59.4608 61.9353Z" fill="#FAC6A3"/>
<path d="M51.5048 65.7354L52.9081 65.0472L53.963 67.1979L54.016 67.1719C54.1656 66.6718 54.5233 66.283 55.0891 66.0055C55.6774 65.717 56.2239 65.6603 56.7286 65.8355C57.2349 66.014 57.6323 66.3973 57.9209 66.9857L58.7179 68.6108L57.3146 69.299L56.6169 67.8765C56.4718 67.5807 56.2796 67.3879 56.04 67.2979C55.7973 67.2096 55.5345 67.2348 55.2516 67.3736C54.8143 67.588 54.5583 67.8831 54.4833 68.2589L55.4436 70.2167L54.0403 70.905L51.5048 65.7354Z" fill="#FAC6A3"/>
<path d="M50.2001 64.2177C50.5319 64.1277 50.7234 64.0814 50.7746 64.0787L51.0907 65.2451C51.0577 65.2466 50.9306 65.2773 50.7094 65.3373C50.4295 65.4131 50.2301 65.5191 50.1111 65.6552C49.9913 65.7879 49.9354 65.9718 49.9435 66.2071C49.9444 66.2105 49.9475 66.2561 49.9527 66.3437C49.9579 66.4313 49.9631 66.4781 49.9685 66.4841L53.4096 71.5226L51.7455 71.9736L49.3862 67.9496L49.3603 67.9567L49.3556 72.6212L47.7589 73.0539L48.1321 66.8538C48.1776 66.0772 48.3568 65.4926 48.6696 65.0999C48.978 64.7047 49.4882 64.4106 50.2001 64.2177Z" fill="#FAC6A3"/>
<path d="M38.9313 73.9018L38.9541 72.7204L40.6671 72.7535L40.7554 68.1781L42.3181 68.2083L42.2298 72.7836L43.9482 72.8168L43.9254 73.9982L38.9313 73.9018Z" fill="#FAC6A3"/>
<path d="M36.0778 69.0651C35.7396 68.9858 35.4309 69.0163 35.1515 69.1567C34.8679 69.2998 34.6908 69.5213 34.6205 69.8211L34.5248 70.2289L35.7238 70.433C36.0145 70.4791 36.2527 70.4596 36.4382 70.3744C36.6202 70.2884 36.7345 70.146 36.7811 69.9473C36.8302 69.7381 36.7906 69.5541 36.6624 69.3953C36.5341 69.2365 36.3393 69.1264 36.0778 69.0651ZM36.8386 68.0795C37.379 68.2063 37.7897 68.47 38.0709 68.8706C38.352 69.2713 38.4341 69.7209 38.3172 70.2194C38.1978 70.7284 37.9159 71.0833 37.4715 71.2844C37.0271 71.4854 36.4497 71.5246 35.7392 71.4021L34.3077 71.1545L34.2206 71.5258C34.1601 71.7837 34.198 72.006 34.3345 72.1925C34.4675 72.3781 34.6787 72.5049 34.968 72.5728C35.2469 72.6382 35.4899 72.629 35.6972 72.5452C35.9009 72.4606 36.0469 72.3165 36.1352 72.1128L37.5313 72.4404C37.3742 72.9847 37.035 73.3722 36.5138 73.603C35.9917 73.8373 35.3647 73.8685 34.6326 73.6968C33.9145 73.5283 33.3793 73.2225 33.0272 72.7795C32.6751 72.3364 32.5653 71.8325 32.6977 71.2678L33.6019 67.4139L35.0765 67.7599L34.8753 68.6175L34.9067 68.6248C35.1288 68.368 35.4167 68.191 35.7705 68.0937C36.1235 68 36.4796 67.9953 36.8386 68.0795Z" fill="#FAC6A3"/>
<path d="M28.2966 68.98L27.3603 65.157L29.0867 65.941L29.8355 68.9945L29.8746 69.0123L30.8962 66.7626L32.3193 67.4089L29.9387 72.6515L28.5156 72.0052L29.4727 69.8974L29.4336 69.8797L26.7354 71.1969L25.102 70.4552L28.2966 68.98Z" fill="#FAC6A3"/>
<path d="M23.1983 63.3603C23.9255 63.2409 24.641 63.4431 25.3447 63.9669C26.0485 64.4907 26.4464 65.1194 26.5386 65.8532C26.6308 66.5869 26.3969 67.33 25.8367 68.0826C25.283 68.8265 24.64 69.2586 23.9078 69.3787C23.1707 69.4996 22.4545 69.3013 21.7594 68.7839C21.0614 68.2644 20.6659 67.6353 20.573 66.8965C20.4779 66.1607 20.7072 65.4208 21.261 64.6768C21.8232 63.9214 22.469 63.4825 23.1983 63.3603ZM24.6296 64.9277C24.3193 64.6968 23.9797 64.6404 23.6106 64.7585C23.2415 64.8766 22.8859 65.1654 22.5438 65.625C22.206 66.0788 22.0325 66.5009 22.0232 66.8912C22.0138 67.2816 22.1643 67.5922 22.4745 67.8231C22.7847 68.054 23.1269 68.11 23.501 67.9912C23.8723 67.8703 24.2268 67.5829 24.5646 67.129C24.9066 66.6694 25.0813 66.2459 25.0884 65.8585C25.0956 65.471 24.9427 65.1607 24.6296 64.9277Z" fill="#FAC6A3"/>
<path d="M21.1807 61.128L22.1894 62.2866L17.8468 66.0674L16.8381 64.9088L19.5522 62.5458L19.524 62.5134L15.3075 63.1507L14.2988 61.9921L18.6414 58.2113L19.6501 59.3699L16.9035 61.7611L16.9317 61.7935L21.1807 61.128ZM15.3178 67.1297L14.69 66.4086C14.904 66.2128 15.026 65.9903 15.056 65.7411C15.0832 65.4942 15.0051 65.2655 14.8217 65.0548C14.6407 64.8469 14.426 64.7394 14.1778 64.7324C13.9268 64.7277 13.6896 64.8179 13.4662 65.003L12.8349 64.2778C13.2346 63.9299 13.6713 63.7799 14.1452 63.8279C14.6163 63.8782 15.0376 64.1168 15.4091 64.5435C15.7806 64.9702 15.9588 65.4203 15.9438 65.8939C15.9262 66.3698 15.7175 66.7817 15.3178 67.1297Z" fill="#FAC6A3"/>
<path d="M11.031 51.3163L13.1605 48.1842L13.8021 49.934L12.0871 52.4336L12.1019 52.4739L14.4216 51.6234L14.9541 53.0757L12.6344 53.9263L12.6474 53.9616L15.5736 54.765L16.2078 56.4947L12.5891 55.4875L10.7761 58.4063L10.1566 56.717L11.7346 54.2962L11.7217 54.2609L9.54826 55.0579L9.01572 53.6056L11.1892 52.8086L11.1744 52.7683L8.40737 51.9465L7.79347 50.2723L11.031 51.3163Z" fill="#FAC6A3"/>
<path d="M7.85556 46.5292C7.8961 46.867 8.04558 47.1357 8.30398 47.3355C8.56196 47.5318 8.87219 47.6226 9.23468 47.6079L8.9434 45.1815C8.57935 45.2432 8.29678 45.3979 8.09571 45.6457C7.89421 45.8899 7.81416 46.1844 7.85556 46.5292ZM10.6473 44.9553L10.4758 43.5261C11.0477 43.544 11.5347 43.7704 11.9368 44.2054C12.3348 44.6373 12.5761 45.2052 12.6606 45.9091C12.766 46.7873 12.5858 47.5085 12.1198 48.073C11.6533 48.6339 10.9615 48.9694 10.0443 49.0795C9.13058 49.1892 8.37189 49.0278 7.76819 48.5954C7.16094 48.1634 6.80674 47.5261 6.70559 46.6835C6.60615 45.8551 6.78651 45.1645 7.24668 44.6116C7.70684 44.0586 8.37243 43.7299 9.24346 43.6253L9.71808 43.5684L10.1912 47.5093L10.2872 47.4978C10.696 47.4487 11.0141 47.2897 11.2415 47.0208C11.4649 46.7487 11.5529 46.4154 11.5055 46.0207C11.4714 45.7363 11.378 45.4987 11.2252 45.3079C11.0689 45.1174 10.8763 44.9999 10.6473 44.9553Z" fill="#FAC6A3"/>
<path d="M11.4536 30.9622C11.4751 31.2651 11.4357 31.5615 11.3355 31.8513C11.2354 32.1411 11.0834 32.3986 10.8796 32.6237C10.674 32.8481 10.442 33.0231 10.1836 33.1488C9.92533 33.2745 9.6444 33.3489 9.34087 33.3722C9.03614 33.3929 8.73885 33.3532 8.44902 33.2531C8.0632 33.1198 7.73915 32.9004 7.47689 32.5949C7.21278 32.2887 7.04149 31.9382 6.96303 31.5432C6.88521 31.1465 6.91295 30.7552 7.04625 30.3693C7.14639 30.0795 7.29928 29.8224 7.50495 29.5979C7.7094 29.371 7.94079 29.1947 8.19911 29.0691C8.45743 28.9434 8.73803 28.8699 9.04093 28.8485C9.34445 28.8252 9.64113 28.8637 9.93096 28.9638C10.2208 29.0639 10.4789 29.2172 10.7051 29.4235C10.9302 29.6273 11.1056 29.8583 11.2312 30.1167C11.3569 30.375 11.431 30.6568 11.4536 30.9622Z" fill="#FAC6A3"/>
<path d="M15.5734 25.5446L14.308 21.1253L14.2759 21.0967L9.79447 20.3798L11.0621 18.9555L14.2411 19.5846L14.2697 19.5525L13.2867 16.4559L14.4901 15.1038L15.6854 19.5614L15.7135 19.5864L20.2583 20.2805L19.0299 21.6607L15.8754 21.1253L15.8468 21.1574L16.7375 24.2366L15.5734 25.5446Z" fill="#FAC6A3"/>
<path d="M23.0257 17.0846C22.9207 17.814 22.5125 18.4354 21.8012 18.9489C21.0899 19.4624 20.3705 19.6526 19.6431 19.5197C18.9156 19.3868 18.2773 18.9401 17.7283 18.1794C17.1854 17.4274 16.967 16.6842 17.0728 15.9498C17.1794 15.2105 17.584 14.5872 18.2866 14.08C18.9921 13.5707 19.7111 13.3829 20.4435 13.5167C21.1739 13.6475 21.8105 14.0889 22.3533 14.8408C22.9045 15.6044 23.1286 16.3523 23.0257 17.0846ZM21.1002 17.9777C21.4137 17.7514 21.5698 17.4445 21.5682 17.0569C21.5667 16.6694 21.3983 16.2434 21.063 15.7788C20.7318 15.3201 20.3816 15.0276 20.0121 14.9012C19.6427 14.7748 19.3012 14.8248 18.9876 15.0512C18.6741 15.2775 18.5177 15.5869 18.5184 15.9795C18.522 16.3699 18.6893 16.7945 19.0205 17.2532C19.3558 17.7177 19.7071 18.0117 20.0745 18.1352C20.4418 18.2587 20.7837 18.2062 21.1002 17.9777Z" fill="#FAC6A3"/>
<path d="M29.0073 14.4078L27.589 15.0646L26.5824 12.8909L26.5288 12.9157C26.3681 13.4123 26.0018 13.793 25.43 14.0579C24.8354 14.3332 24.2877 14.3777 23.7871 14.1913C23.2849 14.0016 22.8961 13.6095 22.6208 13.0149L21.8601 11.3724L23.2784 10.7156L23.9443 12.1534C24.0827 12.4523 24.2706 12.6494 24.5081 12.7446C24.7488 12.8383 25.0121 12.819 25.298 12.6866C25.7399 12.4819 26.0025 12.1926 26.0858 11.8186L25.1695 9.83983L26.5878 9.18303L29.0073 14.4078Z" fill="#FAC6A3"/>
<path d="M30.2257 15.9461C29.8923 16.0297 29.6999 16.0724 29.6487 16.0741L29.3548 14.9019C29.3878 14.901 29.5154 14.8727 29.7377 14.817C30.0191 14.7465 30.2205 14.6443 30.342 14.5105C30.4643 14.3801 30.5237 14.1973 30.5201 13.9619C30.5192 13.9584 30.517 13.9128 30.5134 13.8251C30.5099 13.7374 30.5055 13.6905 30.5003 13.6844L27.1555 8.58149L28.8279 8.1622L31.1103 12.2302L31.1364 12.2237L31.2296 7.56005L32.8342 7.15774L32.3434 13.3497C32.2831 14.1253 32.0929 14.7064 31.7727 15.0931C31.4568 15.4824 30.9412 15.7667 30.2257 15.9461Z" fill="#FAC6A3"/>
<path d="M41.7017 6.43939L41.6561 7.62015L39.944 7.55404L39.7674 12.1268L38.2056 12.0665L38.3822 7.49373L36.6647 7.42742L36.7103 6.24666L41.7017 6.43939Z" fill="#FAC6A3"/>
<path d="M44.5957 11.3287C44.932 11.4157 45.2413 11.3922 45.5238 11.2582C45.8107 11.1216 45.9927 10.9043 46.0699 10.6062L46.1748 10.2006L44.9808 9.96924C44.6912 9.91648 44.4527 9.93057 44.2653 10.0115C44.0814 10.0934 43.9638 10.2331 43.9127 10.4307C43.8589 10.6387 43.8942 10.8235 44.0188 10.9852C44.1434 11.1469 44.3357 11.2614 44.5957 11.3287ZM43.8126 12.2967C43.2753 12.1576 42.8706 11.8846 42.5987 11.4776C42.3268 11.0707 42.2549 10.6193 42.3832 10.1236C42.5142 9.61751 42.8041 9.26904 43.253 9.07822C43.7018 8.88739 44.28 8.86134 44.9875 9.00007L46.413 9.28023L46.5086 8.91104C46.575 8.65452 46.5421 8.43148 46.4099 8.24193C46.2812 8.05327 46.073 7.92171 45.7852 7.84724C45.5079 7.77547 45.2647 7.7791 45.0556 7.85814C44.85 7.93808 44.7008 8.07884 44.6079 8.28043L43.2196 7.92112C43.389 7.38059 43.737 7.0009 44.2633 6.78205C44.7906 6.55974 45.4182 6.54278 46.1462 6.73119C46.8603 6.916 47.3883 7.23389 47.7302 7.68486C48.0722 8.13583 48.1705 8.6421 48.0251 9.20367L47.0333 13.0359L45.567 12.6564L45.7877 11.8036L45.7565 11.7956C45.5286 12.0473 45.2367 12.2177 44.8807 12.3068C44.5257 12.3925 44.1696 12.3891 43.8126 12.2967Z" fill="#FAC6A3"/>
<path d="M52.393 11.5839L53.2438 15.4268L51.5354 14.6045L50.8548 11.5351L50.8161 11.5164L49.7446 13.7427L48.3363 13.0649L50.8333 7.87669L52.2416 8.5545L51.2377 10.6404L51.2764 10.6591L54.0033 9.40236L55.6198 10.1803L52.393 11.5839Z" fill="#FAC6A3"/>
<path d="M57.4047 17.3324C56.6751 17.4359 55.9643 17.218 55.2722 16.679C54.5801 16.1399 54.1959 15.5026 54.1198 14.767C54.0437 14.0315 54.2939 13.2936 54.8703 12.5535C55.4402 11.8218 56.0925 11.4039 56.8271 11.2999C57.5668 11.1952 58.2784 11.4091 58.9621 11.9415C59.6485 12.4762 60.0301 13.1138 60.1069 13.8544C60.1858 14.5922 59.9404 15.3269 59.3705 16.0586C58.7918 16.8015 58.1366 17.2261 57.4047 17.3324ZM56.0082 15.734C56.3133 15.9717 56.6516 16.0355 57.0232 15.9255C57.3948 15.8155 57.7566 15.5345 58.1087 15.0826C58.4563 14.6362 58.6391 14.218 58.6569 13.828C58.6748 13.4379 58.5312 13.1241 58.2261 12.8865C57.921 12.6488 57.5801 12.5853 57.2035 12.6959C56.8297 12.8087 56.469 13.0883 56.1213 13.5346C55.7693 13.9866 55.5854 14.4062 55.5698 14.7935C55.5541 15.1807 55.7002 15.4942 56.0082 15.734Z" fill="#FAC6A3"/>
<path d="M59.2956 19.5136L58.3124 18.3333L62.7365 14.6482L63.7197 15.8286L60.9546 18.1317L60.9821 18.1647L65.2116 17.6197L66.1947 18.8L61.7706 22.485L60.7875 21.3047L63.5856 18.9741L63.5581 18.941L59.2956 19.5136ZM65.2881 13.6413L65.9 14.3759C65.6817 14.5671 65.5549 14.7869 65.5196 15.0354C65.487 15.2816 65.56 15.5119 65.7388 15.7265C65.9152 15.9384 66.1275 16.0505 66.3755 16.063C66.6263 16.0731 66.8654 15.9881 67.0928 15.808L67.7082 16.5467C67.301 16.8859 66.861 17.0263 66.3884 16.968C65.9185 16.9074 65.5025 16.6597 65.1404 16.225C64.7783 15.7903 64.6099 15.3364 64.6352 14.8632C64.6633 14.3878 64.8809 13.9805 65.2881 13.6413Z" fill="#FAC6A3"/>
<path d="M69.3072 29.6405L67.1075 32.7237L66.5055 30.9598L68.2765 28.4996L68.2626 28.4589L65.9244 29.257L65.4247 27.793L67.763 26.995L67.7509 26.9594L64.8436 26.0901L64.2485 24.3466L67.8436 25.4352L69.722 22.558L70.3032 24.2609L68.6709 26.6454L68.6831 26.681L70.8739 25.9333L71.3736 27.3972L69.1827 28.1449L69.1966 28.1856L71.9443 29.0696L72.5203 30.7572L69.3072 29.6405Z" fill="#FAC6A3"/>
<path d="M72.3819 34.5296C72.3492 34.191 72.2059 33.9189 71.9522 33.7132C71.6988 33.511 71.3908 33.4131 71.028 33.4194L71.2633 35.8519C71.6286 35.7986 71.9147 35.6504 72.1214 35.4074C72.3285 35.1679 72.4153 34.8753 72.3819 34.5296ZM69.5546 36.0387L69.6931 37.4715C69.1217 37.4404 68.64 37.2028 68.2481 36.7586C67.8602 36.3177 67.632 35.7444 67.5638 35.0387C67.4787 34.1583 67.6756 33.4414 68.1545 32.8878C68.6337 32.3379 69.3331 32.0184 70.2526 31.9295C71.1686 31.8409 71.9234 32.0198 72.5169 32.466C73.114 32.9119 73.4534 33.5572 73.5351 34.4019C73.6154 35.2323 73.4192 35.9186 72.9464 36.4608C72.4736 37.003 71.8006 37.3163 70.9274 37.4007L70.4516 37.4467L70.0695 33.4959L69.9733 33.5052C69.5634 33.5448 69.2417 33.6965 69.0082 33.9601C68.7786 34.2269 68.6829 34.5581 68.7212 34.9537C68.7487 35.2389 68.8367 35.4786 68.985 35.6729C69.1368 35.8669 69.3267 35.9888 69.5546 36.0387Z" fill="#FAC6A3"/>
<path d="M33.6463 53.1774C33.3923 53.6173 32.8297 53.7681 32.3898 53.5141C31.9498 53.2601 31.7991 52.6975 32.0531 52.2576C32.3071 51.8177 32.8697 51.6669 33.3096 51.9209C33.7495 52.1749 33.9003 52.7375 33.6463 53.1774Z" fill="white"/>
<path d="M39.3195 26.4692L52.3465 33.9903L41.4032 52.9446L28.3763 45.4234L39.3195 26.4692Z" fill="white"/>
<path d="M55.2997 28.5741L42.5333 21.2034C41.382 20.5404 39.9111 20.9345 39.2456 22.0843L24.2034 48.1382C23.5404 49.2895 23.9345 50.7604 25.0843 51.4259L37.8507 58.7966C39.002 59.4596 40.4729 59.0655 41.1384 57.9157L56.1806 31.8618C56.8436 30.7105 56.4495 29.2396 55.2997 28.5741ZM45.0077 24.89L50.8698 28.2745C51.1576 28.4406 51.2562 28.8086 51.0901 29.0964C50.9239 29.3842 50.5559 29.4828 50.2681 29.3166L44.406 25.9321C44.1182 25.766 44.0196 25.398 44.1858 25.1102C44.3519 24.8225 44.7199 24.7238 45.0077 24.89ZM31.7879 54.5564C30.7724 53.9701 30.4245 52.6714 31.0107 51.6559C31.597 50.6405 32.8957 50.2925 33.9111 50.8788C34.9266 51.4651 35.2746 52.7638 34.6883 53.7792C34.1009 54.7936 32.8038 55.1412 31.7879 54.5564ZM42.1444 54.0673C41.9783 54.3551 41.6102 54.4537 41.3225 54.2876L27.2534 46.1648C26.9656 45.9986 26.867 45.6306 27.0331 45.3428L38.578 25.3465C38.7442 25.0587 39.1122 24.9601 39.4 25.1262L53.4691 33.249C53.7568 33.4152 53.8555 33.7832 53.6893 34.071L42.1444 54.0673Z" fill="white"/>
</svg>
