<svg width="36" height="36" viewBox="0 0 36 36" fill="none" xmlns="http://www.w3.org/2000/svg">
<g clip-path="url(#clip0)">
<path d="M23.6556 8.16814V9.16814H24.6556H32.409C33.8318 9.16814 34.991 10.3273 34.9909 11.7502C34.9909 11.9536 34.9927 12.1497 34.9944 12.3394C35.0085 13.8945 35.0188 15.0298 34.0152 16.3673C33.3759 17.2193 32.5014 17.8243 31.4786 18.1221L19.5286 21.6014L19.5285 21.6014C18.5279 21.8928 17.4711 21.8927 16.4706 21.6014C16.4706 21.6014 16.4706 21.6014 16.4706 21.6014L4.52056 18.1221L4.52054 18.1221C3.49778 17.8243 2.62328 17.2194 1.98396 16.3673C0.982308 15.0324 0.991789 13.9065 1.00506 12.3309C1.00663 12.144 1.00826 11.9508 1.00826 11.7502C1.00826 10.3274 2.16748 9.16814 3.59033 9.16814H11.3437H12.3437V8.16814V5.04388C12.3437 4.10859 13.1062 3.34608 14.0416 3.34608H21.9577C22.8931 3.34608 23.6556 4.10859 23.6556 5.04388V8.16814ZM22.3704 9.16814H23.3704V8.16814V5.04388C23.3704 4.26397 22.7374 3.63121 21.9577 3.63121H14.0416C13.262 3.63121 12.6289 4.26379 12.6289 5.04388V8.16814V9.16814H13.6289H22.3704Z" stroke="white" stroke-width="2"/>
<path d="M3.32295 22.2366L3.32299 22.2366C5.93327 22.9966 8.01223 23.6067 9.68019 24.0962C12.1971 24.8348 13.7782 25.2988 14.837 25.5888C15.7173 25.8299 16.2824 25.9638 16.7468 26.0334C17.2251 26.1052 17.5767 26.1052 17.9874 26.1052H17.9999C18.4305 26.1052 18.7972 26.1008 19.2976 26.0227C19.778 25.9477 20.3627 25.808 21.2576 25.5625C22.3236 25.27 23.8917 24.8096 26.346 24.0889C28.0094 23.6006 30.0798 22.9927 32.6768 22.2365L32.3977 21.2777L32.6768 22.2365C33.5022 21.9962 34.2787 21.6474 34.9913 21.2002V30.0716C34.9913 31.4944 33.8321 32.6536 32.4092 32.6536H3.59061C2.16769 32.6536 1.00854 31.4944 1.00854 30.0716V21.2003C1.72107 21.6475 2.49756 21.9962 3.32295 22.2366Z" stroke="white" stroke-width="2"/>
</g>
<defs>
<clipPath id="clip0">
<rect width="36" height="36" fill="white"/>
</clipPath>
</defs>
</svg>
