<svg width="16" height="24" viewBox="0 0 16 24" fill="none" xmlns="http://www.w3.org/2000/svg">
<path d="M13.9035 23.6164L14.6952 22.8302C14.9424 22.5828 15.0786 22.2537 15.0786 21.9018C15.0786 21.5502 14.9424 21.2207 14.6952 20.9733L5.72689 12.0054L14.7051 3.02715C14.9523 2.78012 15.0883 2.45056 15.0883 2.09894C15.0883 1.74733 14.9523 1.41757 14.7051 1.17035L13.9184 0.384003C13.4068 -0.128001 12.5734 -0.128001 12.0618 0.384003L1.33369 11.0737C1.08666 11.3207 0.912609 11.6499 0.912609 12.0046L0.912609 12.0087C0.912609 12.3605 1.08685 12.6897 1.33369 12.9367L12.0327 23.6164C12.2797 23.8638 12.6188 23.9996 12.9705 24C13.3223 24 13.6567 23.8638 13.9035 23.6164Z" fill="#EB6309"/>
</svg>
