<svg width="36" height="36" viewBox="0 0 36 36" fill="none" xmlns="http://www.w3.org/2000/svg">
<path d="M34.321 16.3646L35.0288 15.6583L34.3217 16.3654C35.221 17.2674 35.2204 18.7352 34.3202 19.6364C34.3202 19.6365 34.3201 19.6365 34.32 19.6366C34.32 19.6367 34.3199 19.6367 34.3199 19.6368C33.8808 20.0755 33.303 20.3146 32.6835 20.3146H32.1408H31.1408V21.3146V32.1216C31.1408 33.7077 29.8487 35 28.2618 35H22.5165C22.4862 35 22.4618 34.9756 22.4618 34.9453V26.4727C22.4618 24.9445 21.2204 23.703 19.6922 23.703H16.3035C14.7753 23.703 13.5338 24.9445 13.5338 26.4727V34.9453C13.5338 34.9754 13.5093 35 13.4792 35H7.73386C6.14702 35 4.85487 33.7077 4.85487 32.1216V21.3146V20.3146H3.85486H3.26957L3.2645 20.3144L3.23744 20.3117L3.21027 20.3106C2.62808 20.2856 2.08721 20.0481 1.67548 19.6362L1.67531 19.636C0.775766 18.7365 0.773993 17.2705 1.67103 16.3683L1.67996 16.3592L1.68603 16.353L1.68737 16.3516L16.3613 1.67803L15.6542 0.970917L16.3613 1.67802C16.8 1.23931 17.3779 1 17.9978 1C18.6176 1 19.1955 1.23945 19.634 1.67814L19.6341 1.67831L34.3193 16.3629L34.3193 16.3629L34.3193 16.3629L34.3193 16.363L34.3194 16.363L34.3194 16.363L34.3194 16.363L34.3194 16.3631L34.3195 16.3631L34.3195 16.3631L34.3195 16.3631L34.3195 16.3632L34.3196 16.3632L34.3196 16.3632L34.3196 16.3632L34.3196 16.3633L34.3196 16.3633L34.3197 16.3633L34.3197 16.3633L34.3197 16.3634L34.3197 16.3634L34.3198 16.3634L34.3198 16.3634L34.3198 16.3634L34.3198 16.3635L34.3199 16.3635L34.3199 16.3635L34.3199 16.3635L34.3199 16.3636L34.32 16.3636L34.32 16.3636L34.32 16.3636L34.32 16.3637L34.3201 16.3637L34.3201 16.3637L34.3201 16.3637L34.3201 16.3638L34.3201 16.3638L34.3202 16.3638L34.3202 16.3638L34.3202 16.3638L34.3202 16.3639L34.3203 16.3639L34.3203 16.3639L34.3203 16.3639L34.3203 16.364L34.3204 16.364L34.3204 16.364L34.3204 16.364L34.3204 16.3641L34.3205 16.3641L34.3205 16.3641L34.3205 16.3641L34.3205 16.3642L34.3206 16.3642L34.3206 16.3642L34.3206 16.3642L34.3206 16.3643L34.3206 16.3643L34.3207 16.3643L34.3207 16.3643L34.3207 16.3643L34.3207 16.3644L34.3208 16.3644L34.3208 16.3644L34.3208 16.3644L34.3208 16.3645L34.3209 16.3645L34.3209 16.3645L34.3209 16.3645L34.3209 16.3646L34.321 16.3646L34.321 16.3646ZM34.321 16.3646C34.321 16.3646 34.321 16.3646 34.321 16.3647M34.321 16.3646L34.321 16.3647M34.321 16.3647C34.321 16.3647 34.321 16.3647 34.321 16.3647C34.3211 16.3647 34.3211 16.3647 34.3211 16.3647C34.3211 16.3648 34.3211 16.3648 34.3212 16.3648C34.3212 16.3648 34.3212 16.3648 34.3212 16.3649L34.3213 16.3649L34.3213 16.3649C34.3213 16.3649 34.3213 16.3649 34.3213 16.365C34.3214 16.365 34.3214 16.365 34.3214 16.365C34.3214 16.3651 34.3215 16.3651 34.3215 16.3651C34.3215 16.3651 34.3215 16.3652 34.3216 16.3652L34.3216 16.3652L34.3216 16.3652C34.3216 16.3653 34.3216 16.3653 34.3217 16.3653L34.321 16.3647Z" stroke="white" stroke-width="2"/>
</svg>
