<svg width="12" height="12" viewBox="0 0 12 12" fill="none" xmlns="http://www.w3.org/2000/svg">
<path d="M4.44449 3.02235C3.03053 4.4853 3.33908 6.9131 4.95875 7.98859C5.01212 8.02404 5.08312 8.01701 5.12896 7.97222C5.46994 7.63905 5.7584 7.31634 6.01098 6.9059C6.04962 6.84311 6.02559 6.76163 5.96075 6.7265C5.71371 6.59266 5.46788 6.3417 5.32949 6.0766L5.32932 6.07669C5.16355 5.74659 5.10711 5.37655 5.19487 4.9944C5.19497 4.99442 5.19506 4.99445 5.19515 4.99445C5.29614 4.50518 5.8214 4.05006 6.22257 3.62914C6.22173 3.62886 6.22091 3.62855 6.22007 3.62827L7.72315 2.09416C8.32215 1.48281 9.30744 1.47776 9.91265 2.08298C10.524 2.68196 10.5341 3.67221 9.93512 4.28355L9.02468 5.21978C8.98254 5.26311 8.96887 5.32633 8.98859 5.38347C9.19822 5.99136 9.24978 6.8485 9.1093 7.49609C9.10536 7.51421 9.12773 7.52608 9.1407 7.51283L11.0784 5.53513C12.3162 4.27176 12.3057 2.2148 11.0551 0.964136C9.77872 -0.312209 7.70088 -0.301587 6.43764 0.987701L4.45225 3.01405C4.44962 3.01682 4.44714 3.01963 4.44449 3.02235Z" fill="white"/>
<path d="M8.06699 8.26719C8.06697 8.26726 8.06692 8.26733 8.0669 8.2674C8.06814 8.26688 8.06929 8.26639 8.07053 8.26585C8.46598 7.54274 8.54383 6.71341 8.35849 5.90494L8.35765 5.90581L8.35674 5.90541C8.18076 5.18535 7.6979 4.47033 7.0421 4.03009C6.98569 3.99222 6.89558 3.99661 6.84275 4.03933C6.51056 4.30793 6.18541 4.65235 5.97086 5.09189C5.93716 5.16089 5.96239 5.24378 6.0288 5.28233C6.27779 5.42689 6.50266 5.63853 6.65322 5.91951L6.65345 5.91934C6.77078 6.11783 6.88641 6.49445 6.81151 6.89912C6.81147 6.89912 6.8114 6.89912 6.81135 6.89912C6.74148 7.43563 6.19969 7.92776 5.76899 8.3712L5.7692 8.37141C5.44135 8.70667 4.60794 9.55629 4.27423 9.89722C3.67525 10.5086 2.685 10.5187 2.07366 9.91969C1.46232 9.32071 1.45222 8.33045 2.0512 7.71912L2.96433 6.78007C3.00572 6.73751 3.01979 6.67566 3.00138 6.61922C2.79863 5.99712 2.74308 5.1593 2.87106 4.51244C2.87462 4.49441 2.85244 4.48289 2.83957 4.49603L0.931017 6.44397C-0.319512 7.72031 -0.308913 9.79837 0.954605 11.0619C2.23088 12.3123 4.29822 12.2912 5.5487 11.0149C5.98312 10.529 7.84273 8.80724 8.06699 8.26719Z" fill="white"/>
</svg>
