<svg fill="none" height="20" viewBox="0 0 16 20" width="16" xmlns="http://www.w3.org/2000/svg"><path d="m8 0c-4.2 0-7.617188 3.41719-7.617188 7.61719 0 1.66211.525001 3.24141 1.519528 4.56641l5.62813 7.5801c.01406.0184.03555.0254.05117.0418.28125.3012.68711.2254.8875-.0418 1.62066-2.1625 4.59136-6.2012 5.73356-7.7246 0 0 .0004-.0012.0008-.002l.007-.0094c.9204-1.2929 1.4067-2.81794 1.4067-4.41051 0-4.2-3.4172-7.61719-7.6172-7.61719zm0 11.7266c-2.26133 0-4.10938-1.84809-4.10938-4.10941 0-2.26133 1.84805-4.10938 4.10938-4.10938 2.2613 0 4.1094 1.84805 4.1094 4.10938 0 2.26132-1.8481 4.10941-4.1094 4.10941z" fill="#eb6309"/></svg>