<svg fill="none" height="20" viewBox="0 0 20 20" width="20" xmlns="http://www.w3.org/2000/svg" xmlns:xlink="http://www.w3.org/1999/xlink"><clipPath id="a"><path d="m0 0h20v20h-20z"/></clipPath><g clip-path="url(#a)" fill="#eb6309"><path d="m19.8239 3.97351-6.0656 6.02649 6.0656 6.0266c.1096-.2292.1761-.4826.1761-.7531v-10.5469c0-.27059-.0665-.52391-.1761-.75309z"/><path d="m18.2422 2.96875h-16.48437c-.27058 0-.5239.06652-.75308.17617l7.75246 7.71338c.68546.6855 1.80019.6855 2.48559 0l7.7525-7.71338c-.2292-.10965-.4825-.17617-.7531-.17617z"/><path d="m.176172 3.97351c-.1096486.22918-.176172.4825-.176172.75309v10.5469c0 .2706.0665234.5239.176172.7531l6.065588-6.0266z"/><path d="m12.9297 10.8286-.8583.8583c-1.1422 1.1422-3.00064 1.1422-4.14279 0l-.85828-.8583-6.06558 6.0265c.22918.1097.4825.1762.75308.1762h16.48437c.2706 0 .5239-.0665.7531-.1762z"/></g></svg>