<svg width="44" height="52" viewBox="0 0 44 52" fill="none" xmlns="http://www.w3.org/2000/svg">
<path d="M13.7995 42.6668C13.4793 43.2215 12.7699 43.4116 12.2152 43.0913C11.6606 42.7711 11.4705 42.0617 11.7907 41.507C12.1109 40.9524 12.8204 40.7623 13.375 41.0825C13.9297 41.4028 14.1197 42.1122 13.7995 42.6668Z" fill="white"/>
<path d="M20.9524 8.99265L37.377 18.4754L23.5796 42.3732L7.15498 32.8905L20.9524 8.99265Z" fill="white"/>
<path d="M41.1005 11.6465L25.0044 2.35344C23.5529 1.51752 21.6983 2.01443 20.8592 3.46414L1.89371 36.3134C1.05779 37.7649 1.5547 39.6194 3.0044 40.4586L19.1005 49.7517C20.5521 50.5876 22.4066 50.0907 23.2457 48.641L42.2112 15.7917C43.0471 14.3402 42.5502 12.4857 41.1005 11.6465ZM28.1242 7.00157L35.5152 11.2688C35.8781 11.4783 36.0024 11.9423 35.7929 12.3051C35.5834 12.6679 35.1194 12.7923 34.7566 12.5828L27.3655 8.31554C27.0027 8.10607 26.8784 7.64206 27.0879 7.27924C27.2973 6.91643 27.7614 6.7921 28.1242 7.00157ZM11.4564 44.4055C10.1761 43.6663 9.73738 42.0289 10.4765 40.7486C11.2157 39.4683 12.8532 39.0295 14.1334 39.7687C15.4137 40.5079 15.8525 42.1453 15.1133 43.4256C14.3727 44.7046 12.7373 45.1428 11.4564 44.4055ZM24.5141 43.7889C24.3046 44.1517 23.8406 44.276 23.4778 44.0666L5.73921 33.8252C5.37639 33.6157 5.25206 33.1517 5.46153 32.7889L20.0176 7.5771C20.227 7.21428 20.691 7.08995 21.0539 7.29942L38.7925 17.5408C39.1553 17.7503 39.2796 18.2143 39.0701 18.5771L24.5141 43.7889Z" fill="white"/>
</svg>
