<svg width="32" height="32" viewBox="0 0 32 32" fill="none" xmlns="http://www.w3.org/2000/svg">
<path fill-rule="evenodd" clip-rule="evenodd" d="M4 0C1.79086 0 0 1.79086 0 4V28C0 30.2091 1.79086 32 4 32H28C30.2091 32 32 30.2091 32 28V4C32 1.79086 30.2091 0 28 0H4ZM12.0181 24.181L12.371 18.9692L21.4619 10.3985C21.8575 10.0308 21.3766 9.8273 20.8477 10.195L9.60918 17.5786L4.77084 15.9985C3.71837 15.6559 3.69882 14.8999 4.9904 14.3735L23.9153 6.76598C24.7918 6.42345 25.558 6.96944 25.2727 8.3657L25.2718 8.36664L22.0521 24.2071C21.8095 25.3252 21.1757 25.6024 20.2761 25.076L15.3711 21.3044L13.0039 23.6798C12.7417 23.9532 12.523 24.181 12.0181 24.181Z" fill="#CCCCCC"/>
</svg>
