<svg width="1762" height="2780" viewBox="0 0 1762 2780" fill="none" xmlns="http://www.w3.org/2000/svg">
<rect width="1762" height="2780" fill="white"/>
<rect x="408" y="141" width="64" height="12" fill="#C4C4C4"/>
<rect x="504" y="141" width="64" height="12" fill="#C4C4C4"/>
<rect x="600" y="141" width="64" height="12" fill="#C4C4C4"/>
<rect x="696" y="141" width="64" height="12" fill="#C4C4C4"/>
<rect x="888" y="141" width="64" height="12" fill="#C4C4C4"/>
<rect x="984" y="141" width="64" height="12" fill="#C4C4C4"/>
<rect x="1080" y="141" width="64" height="12" fill="#C4C4C4"/>
<rect x="1332" y="135" width="24" height="24" fill="#C4C4C4"/>
<rect width="1762" height="33" fill="#C4C4C4"/>
<rect y="175" width="1762" height="473" fill="#C4C4C4"/>
<rect y="2307" width="1760" height="473" fill="#C4C4C4"/>
<path d="M1458.65 299.112H1206.35C1196.22 299.112 1188 307.327 1188 317.461V505.54C1188 515.673 1196.22 523.889 1206.35 523.889H1458.65C1468.78 523.889 1477 515.673 1477 505.54V317.461C1477 307.327 1468.78 299.112 1458.65 299.112ZM1458.65 317.461V450.91L1422.49 418.032C1417.05 413.092 1408.69 413.289 1403.5 418.487L1366.9 455.079L1294.74 368.884C1289.29 362.37 1279.3 362.306 1273.76 368.742L1206.35 447.084V317.461H1458.65ZM1380.67 365.627C1380.67 351.691 1391.96 340.397 1405.9 340.397C1419.83 340.397 1431.13 351.691 1431.13 365.627C1431.13 379.564 1419.83 390.857 1405.9 390.857C1391.96 390.858 1380.67 379.564 1380.67 365.627Z" fill="#7B7B7B"/>
<rect x="285" y="258" width="699" height="55" fill="#7B7B7B"/>
<rect x="285" y="325" width="699" height="55" fill="#7B7B7B"/>
<rect x="285" y="404" width="599" height="20" fill="#7B7B7B"/>
<rect y="263" width="69" height="32" fill="#7B7B7B"/>
<path d="M41.9206 271.889H27.0794C26.4833 271.889 26 272.372 26 272.968V284.032C26 284.628 26.4833 285.111 27.0794 285.111H41.9206C42.5167 285.111 43 284.628 43 284.032V272.968C43 272.372 42.5167 271.889 41.9206 271.889ZM41.9206 272.968V280.818L39.7934 278.884C39.4737 278.594 38.982 278.605 38.6766 278.911L36.5237 281.063L32.2789 275.993C31.9581 275.61 31.3704 275.606 31.0447 275.985L27.0794 280.593V272.968H41.9206ZM37.3333 275.802C37.3333 274.982 37.9976 274.317 38.8174 274.317C39.6372 274.317 40.3015 274.982 40.3015 275.802C40.3015 276.621 39.6373 277.286 38.8174 277.286C37.9977 277.286 37.3333 276.621 37.3333 275.802Z" fill="#C4C4C4"/>
<rect y="407" width="69" height="32" fill="#7B7B7B"/>
<path d="M41.9206 415.889H27.0794C26.4833 415.889 26 416.372 26 416.968V428.032C26 428.628 26.4833 429.111 27.0794 429.111H41.9206C42.5167 429.111 43 428.628 43 428.032V416.968C43 416.372 42.5167 415.889 41.9206 415.889ZM41.9206 416.968V424.818L39.7934 422.884C39.4737 422.594 38.982 422.605 38.6766 422.911L36.5237 425.063L32.2789 419.993C31.9581 419.61 31.3704 419.606 31.0447 419.985L27.0794 424.593V416.968H41.9206ZM37.3333 419.802C37.3333 418.982 37.9976 418.317 38.8174 418.317C39.6372 418.317 40.3015 418.982 40.3015 419.802C40.3015 420.621 39.6373 421.286 38.8174 421.286C37.9977 421.286 37.3333 420.621 37.3333 419.802Z" fill="#C4C4C4"/>
<rect y="299" width="69" height="32" fill="#7B7B7B"/>
<path d="M41.9206 307.889H27.0794C26.4833 307.889 26 308.372 26 308.968V320.032C26 320.628 26.4833 321.111 27.0794 321.111H41.9206C42.5167 321.111 43 320.628 43 320.032V308.968C43 308.372 42.5167 307.889 41.9206 307.889ZM41.9206 308.968V316.818L39.7934 314.884C39.4737 314.594 38.982 314.605 38.6766 314.911L36.5237 317.063L32.2789 311.993C31.9581 311.61 31.3704 311.606 31.0447 311.985L27.0794 316.593V308.968H41.9206ZM37.3333 311.802C37.3333 310.982 37.9976 310.317 38.8174 310.317C39.6372 310.317 40.3015 310.982 40.3015 311.802C40.3015 312.621 39.6373 313.286 38.8174 313.286C37.9977 313.286 37.3333 312.621 37.3333 311.802Z" fill="#C4C4C4"/>
<rect y="443" width="69" height="32" fill="#7B7B7B"/>
<path d="M41.9206 451.889H27.0794C26.4833 451.889 26 452.372 26 452.968V464.032C26 464.628 26.4833 465.111 27.0794 465.111H41.9206C42.5167 465.111 43 464.628 43 464.032V452.968C43 452.372 42.5167 451.889 41.9206 451.889ZM41.9206 452.968V460.818L39.7934 458.884C39.4737 458.594 38.982 458.605 38.6766 458.911L36.5237 461.063L32.2789 455.993C31.9581 455.61 31.3704 455.606 31.0447 455.985L27.0794 460.593V452.968H41.9206ZM37.3333 455.802C37.3333 454.982 37.9976 454.317 38.8174 454.317C39.6372 454.317 40.3015 454.982 40.3015 455.802C40.3015 456.621 39.6373 457.286 38.8174 457.286C37.9977 457.286 37.3333 456.621 37.3333 455.802Z" fill="#C4C4C4"/>
<rect y="335" width="69" height="32" fill="#7B7B7B"/>
<path d="M41.9206 343.889H27.0794C26.4833 343.889 26 344.372 26 344.968V356.032C26 356.628 26.4833 357.111 27.0794 357.111H41.9206C42.5167 357.111 43 356.628 43 356.032V344.968C43 344.372 42.5167 343.889 41.9206 343.889ZM41.9206 344.968V352.818L39.7934 350.884C39.4737 350.594 38.982 350.605 38.6766 350.911L36.5237 353.063L32.2789 347.993C31.9581 347.61 31.3704 347.606 31.0447 347.985L27.0794 352.593V344.968H41.9206ZM37.3333 347.802C37.3333 346.982 37.9976 346.317 38.8174 346.317C39.6372 346.317 40.3015 346.982 40.3015 347.802C40.3015 348.621 39.6373 349.286 38.8174 349.286C37.9977 349.286 37.3333 348.621 37.3333 347.802Z" fill="#C4C4C4"/>
<rect y="479" width="69" height="32" fill="#7B7B7B"/>
<path d="M41.9206 487.889H27.0794C26.4833 487.889 26 488.372 26 488.968V500.032C26 500.628 26.4833 501.111 27.0794 501.111H41.9206C42.5167 501.111 43 500.628 43 500.032V488.968C43 488.372 42.5167 487.889 41.9206 487.889ZM41.9206 488.968V496.818L39.7934 494.884C39.4737 494.593 38.982 494.605 38.6766 494.911L36.5237 497.063L32.2789 491.993C31.9581 491.61 31.3704 491.606 31.0447 491.985L27.0794 496.593V488.968H41.9206ZM37.3333 491.801C37.3333 490.982 37.9976 490.317 38.8174 490.317C39.6372 490.317 40.3015 490.982 40.3015 491.801C40.3015 492.621 39.6373 493.285 38.8174 493.285C37.9977 493.285 37.3333 492.621 37.3333 491.801Z" fill="#C4C4C4"/>
<rect y="371" width="69" height="32" fill="#7B7B7B"/>
<path d="M41.9206 379.889H27.0794C26.4833 379.889 26 380.372 26 380.968V392.032C26 392.628 26.4833 393.111 27.0794 393.111H41.9206C42.5167 393.111 43 392.628 43 392.032V380.968C43 380.372 42.5167 379.889 41.9206 379.889ZM41.9206 380.968V388.818L39.7934 386.884C39.4737 386.594 38.982 386.605 38.6766 386.911L36.5237 389.063L32.2789 383.993C31.9581 383.61 31.3704 383.606 31.0447 383.985L27.0794 388.593V380.968H41.9206ZM37.3333 383.802C37.3333 382.982 37.9976 382.317 38.8174 382.317C39.6372 382.317 40.3015 382.982 40.3015 383.802C40.3015 384.621 39.6373 385.286 38.8174 385.286C37.9977 385.286 37.3333 384.621 37.3333 383.802Z" fill="#C4C4C4"/>
<rect y="515" width="69" height="32" fill="#7B7B7B"/>
<path d="M41.9206 523.889H27.0794C26.4833 523.889 26 524.372 26 524.968V536.032C26 536.628 26.4833 537.111 27.0794 537.111H41.9206C42.5167 537.111 43 536.628 43 536.032V524.968C43 524.372 42.5167 523.889 41.9206 523.889ZM41.9206 524.968V532.818L39.7934 530.884C39.4737 530.593 38.982 530.605 38.6766 530.911L36.5237 533.063L32.2789 527.993C31.9581 527.61 31.3704 527.606 31.0447 527.985L27.0794 532.593V524.968H41.9206ZM37.3333 527.801C37.3333 526.982 37.9976 526.317 38.8174 526.317C39.6372 526.317 40.3015 526.982 40.3015 527.801C40.3015 528.621 39.6373 529.285 38.8174 529.285C37.9977 529.285 37.3333 528.621 37.3333 527.801Z" fill="#C4C4C4"/>
<rect x="285" y="432" width="699" height="20" fill="#7B7B7B"/>
<rect x="285" y="460" width="699" height="20" fill="#7B7B7B"/>
<rect x="285" y="520" width="240" height="56" fill="#ED3344"/>
<rect x="408" y="49" width="217" height="57" fill="#C4C4C4"/>
<path d="M530.841 63.7778H501.159C499.967 63.7778 499 64.7444 499 65.9365V88.0636C499 89.2557 499.967 90.2222 501.159 90.2222H530.841C532.033 90.2222 533 89.2557 533 88.0635V65.9365C533 64.7444 532.033 63.7778 530.841 63.7778ZM530.841 65.9365V81.6364L526.587 77.7685C525.947 77.1873 524.964 77.2105 524.353 77.822L520.047 82.127L511.558 71.9864C510.916 71.22 509.741 71.2125 509.089 71.9696L501.159 81.1864V65.9365H530.841ZM521.667 71.6032C521.667 69.9636 522.995 68.6349 524.635 68.6349C526.274 68.6349 527.603 69.9636 527.603 71.6032C527.603 73.2428 526.275 74.5714 524.635 74.5714C522.995 74.5715 521.667 73.2428 521.667 71.6032Z" fill="#7B7B7B"/>
<rect x="897" y="59" width="177" height="36" fill="#ED3344"/>
<rect x="697" y="60" width="175" height="34" stroke="#ED3344" stroke-width="2"/>
<rect x="1332" y="65" width="24" height="24" fill="#C4C4C4"/>
<rect x="1195" y="61" width="64" height="12" fill="#C4C4C4"/>
<rect x="1195" y="81" width="113" height="12" fill="#C4C4C4"/>
<circle cx="1165" cy="77" r="20" fill="#C4C4C4"/>
<rect x="590" y="788" width="274" height="20" fill="#C4C4C4"/>
<circle cx="550.5" cy="797.5" r="23.5" fill="#C4C4C4"/>
<rect x="527" y="845" width="239" height="20" fill="#C4C4C4"/>
<rect x="528" y="874" width="335" height="38" stroke="#C4C4C4" stroke-width="2"/>
<rect x="959" y="788" width="274" height="20" fill="#C4C4C4"/>
<circle cx="919.5" cy="797.5" r="23.5" fill="#C4C4C4"/>
<rect x="896" y="845" width="239" height="20" fill="#C4C4C4"/>
<rect x="897" y="874" width="335" height="38" stroke="#C4C4C4" stroke-width="2"/>
<rect x="1008" y="937" width="225" height="40" fill="#ED3344"/>
<rect x="487" y="749" width="787" height="252" stroke="#C4C4C4" stroke-width="2"/>
<rect x="428" y="1965" width="218.23" height="20" fill="#C4C4C4"/>
<rect x="428" y="1997" width="259" height="20" fill="#C4C4C4"/>
<rect x="428" y="2025" width="259" height="20" fill="#C4C4C4"/>
<rect x="428" y="2053" width="259" height="20" fill="#C4C4C4"/>
<rect x="428" y="2081" width="259" height="20" fill="#C4C4C4"/>
<rect x="408" y="1716" width="303" height="229" fill="#C4C4C4"/>
<path d="M589.619 1803.67H529.381C526.962 1803.67 525 1805.63 525 1808.05V1852.95C525 1855.37 526.962 1857.33 529.381 1857.33H589.619C592.038 1857.33 594 1855.37 594 1852.95V1808.05C594 1805.63 592.038 1803.67 589.619 1803.67ZM589.619 1808.05V1839.91L580.985 1832.06C579.687 1830.88 577.692 1830.93 576.452 1832.17L567.714 1840.9L550.485 1820.33C549.183 1818.77 546.797 1818.75 545.475 1820.29L529.381 1839V1808.05H589.619ZM571 1819.55C571 1816.22 573.696 1813.52 577.024 1813.52C580.351 1813.52 583.047 1816.22 583.047 1819.55C583.047 1822.88 580.351 1825.57 577.024 1825.57C573.696 1825.57 571 1822.88 571 1819.55Z" fill="#7B7B7B"/>
<rect x="409" y="1717" width="301" height="418" stroke="#C4C4C4" stroke-width="2"/>
<rect x="751" y="1968" width="218.23" height="20" fill="#C4C4C4"/>
<rect x="751" y="2000" width="259" height="20" fill="#C4C4C4"/>
<rect x="751" y="2028" width="259" height="20" fill="#C4C4C4"/>
<rect x="751" y="2056" width="259" height="20" fill="#C4C4C4"/>
<rect x="751" y="2084" width="259" height="20" fill="#C4C4C4"/>
<rect x="731" y="1719" width="303" height="229" fill="#C4C4C4"/>
<path d="M910.619 1803.67H850.381C847.962 1803.67 846 1805.63 846 1808.05V1852.95C846 1855.37 847.962 1857.33 850.381 1857.33H910.619C913.038 1857.33 915 1855.37 915 1852.95V1808.05C915 1805.63 913.038 1803.67 910.619 1803.67ZM910.619 1808.05V1839.91L901.985 1832.06C900.687 1830.88 898.692 1830.93 897.452 1832.17L888.714 1840.9L871.485 1820.33C870.183 1818.77 867.797 1818.75 866.475 1820.29L850.381 1839V1808.05H910.619ZM892 1819.55C892 1816.22 894.696 1813.52 898.024 1813.52C901.351 1813.52 904.047 1816.22 904.047 1819.55C904.047 1822.88 901.351 1825.57 898.024 1825.57C894.696 1825.57 892 1822.88 892 1819.55Z" fill="#7B7B7B"/>
<rect x="732" y="1720" width="301" height="418" stroke="#C4C4C4" stroke-width="2"/>
<rect x="795" y="2172" width="175" height="34" fill="#ED3344" stroke="#ED3344" stroke-width="2"/>
<rect x="1073" y="1968" width="218.23" height="20" fill="#C4C4C4"/>
<rect x="1073" y="2000" width="259" height="20" fill="#C4C4C4"/>
<rect x="1073" y="2028" width="259" height="20" fill="#C4C4C4"/>
<rect x="1073" y="2056" width="259" height="20" fill="#C4C4C4"/>
<rect x="1073" y="2084" width="259" height="20" fill="#C4C4C4"/>
<rect x="1053" y="1719" width="303" height="229" fill="#C4C4C4"/>
<path d="M1234.62 1803.67H1174.38C1171.96 1803.67 1170 1805.63 1170 1808.05V1852.95C1170 1855.37 1171.96 1857.33 1174.38 1857.33H1234.62C1237.04 1857.33 1239 1855.37 1239 1852.95V1808.05C1239 1805.63 1237.04 1803.67 1234.62 1803.67ZM1234.62 1808.05V1839.91L1225.99 1832.06C1224.69 1830.88 1222.69 1830.93 1221.45 1832.17L1212.71 1840.9L1195.49 1820.33C1194.18 1818.77 1191.8 1818.75 1190.48 1820.29L1174.38 1839V1808.05H1234.62ZM1216 1819.55C1216 1816.22 1218.7 1813.52 1222.02 1813.52C1225.35 1813.52 1228.05 1816.22 1228.05 1819.55C1228.05 1822.88 1225.35 1825.57 1222.02 1825.57C1218.7 1825.57 1216 1822.88 1216 1819.55Z" fill="#7B7B7B"/>
<rect x="1054" y="1720" width="301" height="418" stroke="#C4C4C4" stroke-width="2"/>
<circle cx="1294" cy="2189" r="18" fill="#C4C4C4"/>
<circle cx="1338" cy="2189" r="18" fill="#C4C4C4"/>
<rect x="408" y="1608" width="395" height="20" fill="#C4C4C4"/>
<rect x="408" y="1648" width="948" height="20" fill="#C4C4C4"/>
<rect x="408" y="1676" width="395" height="20" fill="#C4C4C4"/>
<rect x="408" y="1102" width="395" height="20" fill="#C4C4C4"/>
<rect x="408" y="1310" width="218.23" height="20" fill="#C4C4C4"/>
<rect x="408" y="1376" width="303.32" height="20" fill="#C4C4C4"/>
<rect x="408" y="1362" width="303.32" height="2" fill="#C4C4C4"/>
<rect x="408" y="1404" width="303.32" height="20" fill="#C4C4C4"/>
<rect x="408" y="1432" width="303.32" height="20" fill="#C4C4C4"/>
<rect x="408" y="1142" width="303.32" height="156" fill="#C4C4C4"/>
<path d="M589.619 1193.67H529.381C526.962 1193.67 525 1195.63 525 1198.05V1242.95C525 1245.37 526.962 1247.33 529.381 1247.33H589.619C592.038 1247.33 594 1245.37 594 1242.95V1198.05C594 1195.63 592.038 1193.67 589.619 1193.67ZM589.619 1198.05V1229.91L580.985 1222.06C579.687 1220.88 577.692 1220.93 576.452 1222.17L567.714 1230.9L550.485 1210.33C549.183 1208.77 546.797 1208.75 545.475 1210.29L529.381 1229V1198.05H589.619ZM571 1209.55C571 1206.22 573.696 1203.52 577.024 1203.52C580.351 1203.52 583.047 1206.22 583.047 1209.55C583.047 1212.88 580.351 1215.57 577.024 1215.57C573.696 1215.57 571 1212.88 571 1209.55Z" fill="#7B7B7B"/>
<rect x="730.34" y="1310" width="218.23" height="20" fill="#C4C4C4"/>
<rect x="730.34" y="1376" width="303.32" height="20" fill="#C4C4C4"/>
<rect x="730.34" y="1362" width="303.32" height="2" fill="#C4C4C4"/>
<rect x="730.34" y="1404" width="303.32" height="20" fill="#C4C4C4"/>
<rect x="730.34" y="1432" width="303.32" height="20" fill="#C4C4C4"/>
<rect x="730.34" y="1142" width="303.32" height="156" fill="#C4C4C4"/>
<path d="M910.619 1193.67H850.381C847.962 1193.67 846 1195.63 846 1198.05V1242.95C846 1245.37 847.962 1247.33 850.381 1247.33H910.619C913.038 1247.33 915 1245.37 915 1242.95V1198.05C915 1195.63 913.038 1193.67 910.619 1193.67ZM910.619 1198.05V1229.91L901.985 1222.06C900.687 1220.88 898.692 1220.93 897.452 1222.17L888.714 1230.9L871.485 1210.33C870.183 1208.77 867.797 1208.75 866.475 1210.29L850.381 1229V1198.05H910.619ZM892 1209.55C892 1206.22 894.696 1203.52 898.024 1203.52C901.351 1203.52 904.047 1206.22 904.047 1209.55C904.047 1212.88 901.351 1215.57 898.024 1215.57C894.696 1215.57 892 1212.88 892 1209.55Z" fill="#7B7B7B"/>
<rect x="1052.68" y="1310" width="218.23" height="20" fill="#C4C4C4"/>
<rect x="1052.68" y="1376" width="303.32" height="20" fill="#C4C4C4"/>
<rect x="1052.68" y="1362" width="303.32" height="2" fill="#C4C4C4"/>
<rect x="1052.68" y="1404" width="303.32" height="20" fill="#C4C4C4"/>
<rect x="1052.68" y="1432" width="303.32" height="20" fill="#C4C4C4"/>
<rect x="1052.68" y="1142" width="303.32" height="156" fill="#C4C4C4"/>
<path d="M1234.62 1193.67H1174.38C1171.96 1193.67 1170 1195.63 1170 1198.05V1242.95C1170 1245.37 1171.96 1247.33 1174.38 1247.33H1234.62C1237.04 1247.33 1239 1245.37 1239 1242.95V1198.05C1239 1195.63 1237.04 1193.67 1234.62 1193.67ZM1234.62 1198.05V1229.91L1225.99 1222.06C1224.69 1220.88 1222.69 1220.93 1221.45 1222.17L1212.71 1230.9L1195.49 1210.33C1194.18 1208.77 1191.8 1208.75 1190.48 1210.29L1174.38 1229V1198.05H1234.62ZM1216 1209.55C1216 1206.22 1218.7 1203.52 1222.02 1203.52C1225.35 1203.52 1228.05 1206.22 1228.05 1209.55C1228.05 1212.88 1225.35 1215.57 1222.02 1215.57C1218.7 1215.57 1216 1212.88 1216 1209.55Z" fill="#7B7B7B"/>
<circle cx="1294" cy="1490" r="18" fill="#C4C4C4"/>
<circle cx="1338" cy="1490" r="18" fill="#C4C4C4"/>
<rect x="0.5" y="0.5" width="1761" height="2779" stroke="black" stroke-opacity="0.5"/>
</svg>
