<svg width="1782" height="2823" viewBox="0 0 1782 2823" fill="none" xmlns="http://www.w3.org/2000/svg">
<rect x="2" y="2" width="1778" height="2819" fill="white"/>
<rect x="418" y="141" width="64" height="12" fill="#C4C4C4"/>
<rect x="514" y="141" width="64" height="12" fill="#C4C4C4"/>
<rect x="610" y="141" width="64" height="12" fill="#C4C4C4"/>
<rect x="706" y="141" width="64" height="12" fill="#C4C4C4"/>
<rect x="898" y="141" width="64" height="12" fill="#C4C4C4"/>
<rect x="994" y="141" width="64" height="12" fill="#C4C4C4"/>
<rect x="1090" y="141" width="64" height="12" fill="#C4C4C4"/>
<rect x="1342" y="135" width="24" height="24" fill="#C4C4C4"/>
<rect width="1782" height="33" fill="#C4C4C4"/>
<rect x="4" y="175" width="1774" height="2" fill="#C4C4C4"/>
<rect y="2350" width="1782" height="473" fill="#C4C4C4"/>
<rect x="418" y="49" width="217" height="57" fill="#C4C4C4"/>
<path d="M540.841 63.7778H511.159C509.967 63.7778 509 64.7444 509 65.9365V88.0636C509 89.2557 509.967 90.2222 511.159 90.2222H540.841C542.033 90.2222 543 89.2557 543 88.0635V65.9365C543 64.7444 542.033 63.7778 540.841 63.7778ZM540.841 65.9365V81.6364L536.587 77.7685C535.947 77.1873 534.964 77.2105 534.353 77.822L530.047 82.127L521.558 71.9864C520.916 71.22 519.741 71.2125 519.089 71.9696L511.159 81.1864V65.9365H540.841ZM531.667 71.6032C531.667 69.9636 532.995 68.6349 534.635 68.6349C536.274 68.6349 537.603 69.9636 537.603 71.6032C537.603 73.2428 536.275 74.5714 534.635 74.5714C532.995 74.5715 531.667 73.2428 531.667 71.6032Z" fill="#7B7B7B"/>
<rect x="907" y="59" width="177" height="36" fill="#ED3344"/>
<rect x="707" y="60" width="175" height="34" stroke="#ED3344" stroke-width="2"/>
<rect x="1342" y="65" width="24" height="24" fill="#C4C4C4"/>
<rect x="1205" y="61" width="64" height="12" fill="#C4C4C4"/>
<rect x="1205" y="81" width="113" height="12" fill="#C4C4C4"/>
<circle cx="1175" cy="77" r="20" fill="#C4C4C4"/>
<rect x="416" y="217" width="348" height="12" fill="#C4C4C4"/>
<rect x="417" y="270" width="217" height="362" stroke="#C4C4C4" stroke-width="2"/>
<rect x="417" y="658" width="217" height="38" fill="#ED3344" stroke="#ED3344" stroke-width="2"/>
<rect x="417" y="714" width="217" height="38" fill="#ED3344" stroke="#ED3344" stroke-width="2"/>
<rect x="660" y="1408" width="133" height="38" fill="#ED3344" stroke="#ED3344" stroke-width="2"/>
<rect x="416" y="269" width="219" height="300" fill="#C4C4C4"/>
<path d="M555.619 391.667H495.381C492.962 391.667 491 393.628 491 396.048V440.953C491 443.372 492.962 445.333 495.381 445.333H555.619C558.038 445.333 560 443.372 560 440.952V396.048C560 393.628 558.038 391.667 555.619 391.667ZM555.619 396.048V427.909L546.985 420.06C545.687 418.88 543.692 418.927 542.452 420.168L533.714 428.905L516.485 408.325C515.183 406.77 512.797 406.755 511.475 408.291L495.381 426.996V396.048H555.619ZM537 407.548C537 404.22 539.696 401.524 543.024 401.524C546.351 401.524 549.047 404.22 549.047 407.548C549.047 410.875 546.351 413.571 543.024 413.571C539.696 413.572 537 410.875 537 407.548Z" fill="#7B7B7B"/>
<rect x="659" y="269" width="707" height="52" fill="#C4C4C4"/>
<rect x="659" y="345" width="449" height="32" fill="#C4C4C4"/>
<rect x="659" y="1097" width="449" height="32" fill="#C4C4C4"/>
<rect x="416" y="1547" width="449" height="32" fill="#C4C4C4"/>
<rect x="416" y="1605" width="465" height="139" fill="#C4C4C4"/>
<rect x="901" y="1605" width="465" height="139" fill="#C4C4C4"/>
<rect x="659" y="1149" width="421" height="12" fill="#C4C4C4"/>
<rect x="659" y="1235" width="135" height="12" fill="#C4C4C4"/>
<rect x="659" y="1259" width="75" height="12" fill="#C4C4C4"/>
<rect x="806" y="1235" width="59" height="12" fill="#C4C4C4"/>
<rect x="659" y="1291" width="707" height="12" fill="#C4C4C4"/>
<rect x="659" y="1331" width="707" height="12" fill="#C4C4C4"/>
<rect x="659" y="1311" width="707" height="12" fill="#C4C4C4"/>
<rect x="659" y="1351" width="707" height="12" fill="#C4C4C4"/>
<rect x="659" y="1371" width="458" height="12" fill="#C4C4C4"/>
<rect x="659" y="1181" width="707" height="2" fill="#C4C4C4"/>
<rect x="659" y="1181" width="152" height="2" fill="#ED3344"/>
<rect x="659" y="397" width="707" height="12" fill="#C4C4C4"/>
<rect x="659" y="417" width="707" height="12" fill="#C4C4C4"/>
<rect x="659" y="437" width="707" height="12" fill="#C4C4C4"/>
<rect x="659" y="457" width="421" height="12" fill="#C4C4C4"/>
<rect x="659" y="513" width="707" height="12" fill="#C4C4C4"/>
<rect x="659" y="493" width="132" height="12" fill="#C4C4C4"/>
<rect x="659" y="533" width="707" height="12" fill="#C4C4C4"/>
<rect x="659" y="553" width="707" height="12" fill="#C4C4C4"/>
<rect x="659" y="573" width="421" height="12" fill="#C4C4C4"/>
<rect x="659" y="629" width="707" height="12" fill="#C4C4C4"/>
<rect x="659" y="609" width="132" height="12" fill="#C4C4C4"/>
<rect x="659" y="649" width="707" height="12" fill="#C4C4C4"/>
<rect x="659" y="669" width="707" height="12" fill="#C4C4C4"/>
<rect x="659" y="689" width="421" height="12" fill="#C4C4C4"/>
<rect x="659" y="745" width="707" height="12" fill="#C4C4C4"/>
<rect x="659" y="725" width="132" height="12" fill="#C4C4C4"/>
<rect x="659" y="765" width="707" height="12" fill="#C4C4C4"/>
<rect x="659" y="785" width="707" height="12" fill="#C4C4C4"/>
<rect x="659" y="805" width="421" height="12" fill="#C4C4C4"/>
<rect x="659" y="861" width="707" height="12" fill="#C4C4C4"/>
<rect x="659" y="841" width="132" height="12" fill="#C4C4C4"/>
<rect x="659" y="881" width="707" height="12" fill="#C4C4C4"/>
<rect x="659" y="901" width="707" height="12" fill="#C4C4C4"/>
<rect x="659" y="921" width="421" height="12" fill="#C4C4C4"/>
<rect x="659" y="977" width="707" height="12" fill="#C4C4C4"/>
<rect x="659" y="957" width="132" height="12" fill="#C4C4C4"/>
<rect x="659" y="997" width="707" height="12" fill="#C4C4C4"/>
<rect x="659" y="1017" width="707" height="12" fill="#C4C4C4"/>
<rect x="659" y="1037" width="421" height="12" fill="#C4C4C4"/>
<rect x="660" y="270" width="181" height="50" stroke="#ED3344" stroke-width="2"/>
<rect x="480" y="585" width="114" height="12" fill="#C4C4C4"/>
<rect x="480" y="605" width="114" height="12" fill="#C4C4C4"/>
<rect x="432" y="585" width="32" height="32" fill="#C4C4C4"/>
<rect x="418" y="1844" width="395" height="20" fill="#C4C4C4"/>
<rect x="418" y="2052" width="218.23" height="20" fill="#C4C4C4"/>
<rect x="418" y="2118" width="303.32" height="20" fill="#C4C4C4"/>
<rect x="418" y="2104" width="303.32" height="2" fill="#C4C4C4"/>
<rect x="418" y="2146" width="303.32" height="20" fill="#C4C4C4"/>
<rect x="418" y="2174" width="303.32" height="20" fill="#C4C4C4"/>
<rect x="418" y="1884" width="303.32" height="156" fill="#C4C4C4"/>
<path d="M599.619 1935.67H539.381C536.962 1935.67 535 1937.63 535 1940.05V1984.95C535 1987.37 536.962 1989.33 539.381 1989.33H599.619C602.038 1989.33 604 1987.37 604 1984.95V1940.05C604 1937.63 602.038 1935.67 599.619 1935.67ZM599.619 1940.05V1971.91L590.985 1964.06C589.687 1962.88 587.692 1962.93 586.452 1964.17L577.714 1972.9L560.485 1952.33C559.183 1950.77 556.797 1950.75 555.475 1952.29L539.381 1971V1940.05H599.619ZM581 1951.55C581 1948.22 583.696 1945.52 587.024 1945.52C590.351 1945.52 593.047 1948.22 593.047 1951.55C593.047 1954.88 590.351 1957.57 587.024 1957.57C583.696 1957.57 581 1954.88 581 1951.55Z" fill="#7B7B7B"/>
<rect x="740.34" y="2052" width="218.23" height="20" fill="#C4C4C4"/>
<rect x="740.34" y="2118" width="303.32" height="20" fill="#C4C4C4"/>
<rect x="740.34" y="2104" width="303.32" height="2" fill="#C4C4C4"/>
<rect x="740.34" y="2146" width="303.32" height="20" fill="#C4C4C4"/>
<rect x="740.34" y="2174" width="303.32" height="20" fill="#C4C4C4"/>
<rect x="740.34" y="1884" width="303.32" height="156" fill="#C4C4C4"/>
<path d="M920.619 1935.67H860.381C857.962 1935.67 856 1937.63 856 1940.05V1984.95C856 1987.37 857.962 1989.33 860.381 1989.33H920.619C923.038 1989.33 925 1987.37 925 1984.95V1940.05C925 1937.63 923.038 1935.67 920.619 1935.67ZM920.619 1940.05V1971.91L911.985 1964.06C910.687 1962.88 908.692 1962.93 907.452 1964.17L898.714 1972.9L881.485 1952.33C880.183 1950.77 877.797 1950.75 876.475 1952.29L860.381 1971V1940.05H920.619ZM902 1951.55C902 1948.22 904.696 1945.52 908.024 1945.52C911.351 1945.52 914.047 1948.22 914.047 1951.55C914.047 1954.88 911.351 1957.57 908.024 1957.57C904.696 1957.57 902 1954.88 902 1951.55Z" fill="#7B7B7B"/>
<rect x="1062.68" y="2052" width="218.23" height="20" fill="#C4C4C4"/>
<rect x="1062.68" y="2118" width="303.32" height="20" fill="#C4C4C4"/>
<rect x="1062.68" y="2104" width="303.32" height="2" fill="#C4C4C4"/>
<rect x="1062.68" y="2146" width="303.32" height="20" fill="#C4C4C4"/>
<rect x="1062.68" y="2174" width="303.32" height="20" fill="#C4C4C4"/>
<rect x="1062.68" y="1884" width="303.32" height="156" fill="#C4C4C4"/>
<path d="M1244.62 1935.67H1184.38C1181.96 1935.67 1180 1937.63 1180 1940.05V1984.95C1180 1987.37 1181.96 1989.33 1184.38 1989.33H1244.62C1247.04 1989.33 1249 1987.37 1249 1984.95V1940.05C1249 1937.63 1247.04 1935.67 1244.62 1935.67ZM1244.62 1940.05V1971.91L1235.99 1964.06C1234.69 1962.88 1232.69 1962.93 1231.45 1964.17L1222.71 1972.9L1205.49 1952.33C1204.18 1950.77 1201.8 1950.75 1200.48 1952.29L1184.38 1971V1940.05H1244.62ZM1226 1951.55C1226 1948.22 1228.7 1945.52 1232.02 1945.52C1235.35 1945.52 1238.05 1948.22 1238.05 1951.55C1238.05 1954.88 1235.35 1957.57 1232.02 1957.57C1228.7 1957.57 1226 1954.88 1226 1951.55Z" fill="#7B7B7B"/>
<circle cx="1304" cy="2232" r="18" fill="#C4C4C4"/>
<circle cx="1348" cy="2232" r="18" fill="#C4C4C4"/>
<rect x="2" y="2" width="1778" height="2819" stroke="#C4C4C4" stroke-width="4"/>
</svg>
